<svg version="1.1" xmlns="http://www.w3.org/2000/svg" xmlns:xlink="http://www.w3.org/1999/xlink" width="1024" height="1024" viewBox="-448893 207639 39293 26036"><g transform="scale(1,-1)"><path class="C3300100" d="M-443569 -232123h0h0h0Z M-442342 -230898l169 1l267 -139l-111 -164l331 2l7 -200l197 147l234 10l-161 -157l25 -203l237 109l198 -252l-230 -119l-226 187l-277 -159l-180 26l36 -143l-148 -87l-92 89l-470 -108l-31 163l-216 109l-242 6l-314 -372l-176 -11l111 253l-177 -1l-195 194l377 181l449 391l-26 -172l129 -49l91 191l258 78l-71 95l227 104Z M-443920 -230676h0h0h0Z M-444102 -230623h0h0h0Z M-443380 -230609h0h0h0Z M-444052 -230594h0h0h0Z M-443763 -230585h0h0h0Z M-443773 -230574h0h0h0Z M-443132 -230568h0h0h0Z M-444143 -230567h0h0h0Z M-443762 -230557h0h0h0Z M-444125 -230561h0h0h0Z M-443330 -230559h0h0h0Z M-444031 -230543h0h0h0Z M-443275 -230543h0h0h0Z M-443127 -230529h0h0h0Z M-444209 -230534h0h0h0Z M-443330 -230526h0h0h0Z M-443076 -230501h0h0h0Z M-443994 -230466h0h0h0Z M-444925 -230437h0h0h0Z M-444818 -230411h0h0h0Z M-443944 -230393h0h0h0Z M-442981 -230372h0h0h0Z M-443404 -230372h0h0h0Z M-443977 -230374h0h0h0Z M-445153 -230354h0h0h0Z M-442999 -230352h0h0h0Z M-443994 -230346h0h0h0Z M-442796 -230359h0h0h0Z M-444114 -230351h0h0h0Z M-443836 -230332h0h0h0Z M-442836 -230345h0h0h0Z M-443715 -230384l244 3l-74 -246l-98 166l-272 2l200 75Z M-442958 -230311h0h0h0Z M-444806 -230296h0h0h0Z M-443257 -230279h0h0h0Z M-444450 -230285h0h0h0Z M-443125 -230265h0h0h0Z M-444002 -230258h0h0h0Z M-443322 -230256h0h0h0Z M-442787 -230270h0h0h0Z M-444362 -230249h0h0h0Z M-443104 -230243h0h0h0Z M-442841 -230242h0h0h0Z M-442692 -230255h0h0h0Z M-443310 -230227h0h0h0Z M-443186 -230183h0h0h0Z M-442768 -230173h0h0h0Z M-443208 -230173h0h0h0Z M-444258 -230151h0h0h0Z M-444262 -230147h0h0h0Z M-444262 -230141h0h0h0Z M-442684 -230133h0h0h0Z M-443686 -230116h0h0h0Z M-443691 -230112h0h0h0Z M-443698 -230105h0h0h0Z M-443020 -230101h0h0h0Z M-443019 -230097h0h0h0Z M-443010 -230093h0h0h0Z M-443023 -230097h0h0h0Z M-443014 -230090h0h0h0Z M-443020 -230084h0h0h0Z M-443020 -230084h0h0h0Z M-443076 -230076h0h0h0Z M-443835 -230066h0h0h0Z M-444221 -230035h0h0h0Z M-444225 -230030h0h0h0Z M-444234 -230024h0h0h0Z M-444225 -229956h0h0h0Z M-443995 -229938h0h0h0Z M-443519 -229935h0h0h0Z M-444077 -229941h0h0h0Z M-444025 -229898h0h0h0Z M-444128 -229893h0h0h0Z M-443410 -229852h0h0h0Z M-443590 -229841h0h0h0Z M-444112 -229835h0h0h0Z M-443504 -229808h0h0h0Z M-443302 -229806h0h0h0Z M-444069 -229777h0h0h0Z M-444019 -229760h0h0h0Z M-443401 -229760h0h0h0Z M-443464 -229775h0h0h0Z M-443911 -229747h0h0h0Z M-443743 -229743h0h0h0Z M-443279 -229718h0h0h0Z M-443884 -229714h0h0h0Z M-443153 -229686h0h0h0Z M-444144 -229688h0h0h0Z M-443681 -229666h0h0h0Z M-443118 -229664h0h0h0Z M-443175 -229658h0h0h0Z M-443634 -229635h0h0h0Z M-443409 -229621h0h0h0Z M-444081 -229618h0h0h0Z M-443414 -229610h0h0h0Z M-443200 -229612h0h0h0Z M-443454 -229598h0h0h0Z M-443979 -229587h0h0h0Z M-443514 -229527h0h0h0Z M-443352 -229543h0h0h0Z M-443390 -229344h0h0h0Z M-443486 -229323h0h0h0Z M-443459 -229302h0h0h0Z M-443180 -228450l160 -91l103 117l309 -51l162 -205l121 -24l-90 -425l266 -189l224 29l201 -552l68 -499l-303 -204l-51 154l-349 -186l-114 83l92 212l160 119l-296 171l-210 -52l-242 -222l-12 184l-187 -12l-304 -218l-158 200l171 197l193 1l207 294l-327 45l154 256l-357 89l-124 -150l212 -58l-270 -259l-129 170l-316 28l-127 -133l-44 -314l153 -24l-207 -147l137 -69l-114 -94l-361 219l-274 -245l-157 29l-251 72l56 245l-173 346l-190 149l-437 70l-180 253l92 92l219 197l85 -51l236 123l202 -100l605 414l193 -106l-48 -92l135 -188l334 164l102 184l419 -79l474 155l157 -22Z"></path><path class="C3300159" d="M-421159 -216048l250 -244l339 -76l-109 -168l-396 -274l-99 -153l-209 -81l-116 123l-292 52l-249 389l152 163l167 16l331 259l231 -6Z"></path><path class="C3300209" d="M-421824 -225526l510 -1004l-355 -277l-514 -895l-371 -249l158 -452l-99 -76l127 -155l-458 -366l73 -171l-159 -219l-915 33l50 279l-86 120l164 603l-806 155l87 900l217 -64l410 180l474 143l173 562l190 241l242 152l244 -41l90 133l225 77l284 363l45 28Z"></path><path class="C3300225" d="M-430490 -222077l-263 -153l-186 -193l43 -188l-206 -218l-171 81l-189 -297l-283 -69l-71 103l44 364l183 711l-87 63l477 -120l641 337l172 24l-38 -158l-164 -106l98 -181Z"></path><path class="C3300233" d="M-419443 -227389h0h0h0Z M-418736 -227298h0h0h0Z M-419694 -228225l-318 272l-63 195l338 459l158 -30l256 -343l160 -42l188 221l116 -51l147 169l-50 -240l-179 -245l-146 76l-175 -144l-25 -215l-115 48l-292 -130Z M-419199 -227219h0h0h0Z"></path><path class="C3300258" d="M-419730 -229921l-92 -124l-153 12l-74 -200l-86 237l256 238l149 -163Z M-419898 -229691h0h0h0Z M-421993 -228792l347 32l112 -147l299 -168l316 -250l562 -16l222 -303l-83 -184l-268 206l-443 89l-1363 113l-620 30l159 219l-73 171l458 366l375 -158Z"></path><path class="C3300308" d="M-437486 -224030l-286 -391l215 -172l-104 3l-39 -587l-219 -166l-55 -175l-219 58l135 223l-490 166l-138 -210l-446 77l-872 76l-179 276l-132 -120l-255 185l-143 190l657 527l-794 243l251 521l372 263l-21 80l160 -137l357 -37l65 -301l362 -81l-174 -155l69 -128l263 294l208 55l85 156l298 149l132 -134l-152 -344l212 -221l266 322l340 -157l109 -230l162 -118Z"></path><path class="C3300407" d="M-440056 -224070l-841 6l-163 -130l-354 -156l-123 -275l-23 -543l198 -199l453 79l3 -544l41 -573l-22 -82l-286 44l-312 -46l-128 -293l-101 188l-181 103l54 119l-368 207l-48 118l-276 -77l-154 137l-169 -110l-96 80l-470 131l-41 154l226 106l-58 713l-98 185l201 32l181 205l495 -362l178 15l163 204l-47 266l108 173l48 325l515 132l-134 412l204 12l242 -75l705 253l286 173l21 -80l-372 -263l-251 -521l794 -243Z"></path><path class="C3300456" d="M-433292 -227559l-556 -104l-123 -112l-136 95l-233 435l115 169l356 177l216 49l172 -135l198 34l86 -142l-75 -146l-20 -320Z"></path><path class="C3300506" d="M-422937 -221151l144 -83l-8 -182l-170 -115l169 -348l-58 -129l518 -307l-124 -52l-60 -200l-341 -185l-3 -171l-598 -138l-118 30l-1168 775l24 144l-131 173l-394 332l553 278v204l319 -101l98 78l325 -58l23 -80l478 219l107 -192l203 160l146 -140l66 88Z"></path><path class="C3300605" d="M-417337 -209433l164 -99l73 -375l-104 -89l59 -158l-107 -176l-71 -338l105 -12l-143 -331l192 -39l-34 -176l148 -52l105 125l496 -281l236 -35l93 -101l258 76l9 -115l208 -226l84 110l88 -109l311 -43l52 119l133 -92l196 15l68 -190l24 -295l-261 -122l-61 -174l-129 7l-349 -319l-383 -198l-535 681l-311 -48l-100 -80l-176 197l-58 188l-226 -2l-24 169l115 210l-92 124l-371 -69l11 226l-398 95l49 277l-312 -26l138 150l-226 225l-98 232l317 352l164 366l107 209l-225 210l279 397l259 272l176 46l291 45l-140 -243l79 -68l-38 -241l-149 -42l34 -159Z"></path><path class="C3300704" d="M-419927 -225987l-52 -326l68 -665l174 -321l-338 -459l63 -195l318 -272l-162 -278l-45 -310l-296 -80l-124 -170l-36 -278l-562 16l-316 250l154 64l2 331l108 65l318 -50l269 51l152 661l-1082 1423l-510 1004l486 104l92 -214l315 16l-8 -93l334 -3l-1 116l186 -89l50 89l333 -249l86 103l24 -241Z"></path><path class="C3300803" d="M-427275 -223555l167 -67l-5 -160l238 -141l323 42l107 -68l316 130l286 262l223 -55l105 -254l-70 -377l-179 -173l242 -136l-357 -690l-149 -168l383 -791l-201 -50l-416 -320l-288 193l-377 -51l14 -115l-179 -160l-350 -146l-460 505l-549 -16l-623 -192l82 169l-115 190l36 182l201 96l204 203l-200 237l-114 277l82 143l-177 97l-141 204l93 207l200 -29l399 320l-8 89l421 126l-39 149l200 133l258 -77l417 282Z"></path><path class="C3300902" d="M-417799 -213994l700 -569l-330 -79l-811 -178l79 -83l-159 -261l-395 -437l22 -144l-314 -7l-370 -221l-695 -420l-155 102l-343 -77l-339 76l-250 244l114 28l263 267l270 381l-32 112l571 377l274 182l168 358l335 199l219 205l17 119l297 174l124 203l387 175l380 -607l-27 -119Z"></path><path class="C3300936" d="M-415385 -222331l-1045 -425l-460 -245l-150 215l-14 207l-663 785l781 711l1200 -303l186 -192l151 -400l-132 -42l146 -311Z"></path><path class="C3300951" d="M-433266 -220078l244 -132l235 105l446 -36l65 -146l263 29l-7 -116l325 156l159 -111l224 37l6 -58l-165 -116l-678 -210l-449 -347l48 460l-168 -196l-277 131l-107 -37l-323 161l-41 468l200 -42Z"></path><path class="C3301009" d="M-412767 -212402l-104 -159l-213 -574l598 7h0l-233 -419l313 -144l35 -133l-162 -52l-132 -198l90 -141l10 -636l79 -167l189 21l-348 -524l339 -138l313 -272l157 -5l-19 -427l-113 -462l197 -66l191 147l237 -35l-113 -168l-509 -333l242 -205l-50 -280l282 -421l-41 -643l254 -290l1467 4l78 -358l-36 -338l-128 -295l-217 -148l-633 -313l-501 -282l-90 -105l-252 16l-321 -94l-367 76l-292 -38l-197 320l-1612 841l-124 103l-188 -268l-454 -154l-255 -355l-112 -47l-701 52l-366 -71l-419 79l-157 -93l-239 -272l-111 -4l-134 514l19 152l392 269l94 318l-75 158l48 339l95 195l-813 44l-88 107l-427 -110l-491 91l-12 155l495 279l54 140l399 375l418 -74l176 290l231 79l112 285l188 227l269 103l125 209l268 -2l295 98l178 221l310 186l83 -40l387 -485l622 571l261 149l17 195l407 373l-146 449l-379 353l2 248l-186 266l-188 158l-1017 -321l-195 724l-141 407l-25 42l383 198l349 319l129 -7l61 174l261 122l-24 295l364 -133l145 130l443 71l605 -178l196 -217l198 -50Z"></path><path class="C3301108" d="M-421671 -218592l-333 -217l-68 38l-209 -576l-148 -177l-1 -204l-143 -169l-421 155l-186 -226l-454 -78l-209 19l-309 -375l-949 1319l358 155h0l167 138l273 80l-230 238l131 170l-286 318l91 137l641 231l180 133l199 73l243 -48l269 174l400 140l287 167l314 -859l393 -756Z"></path><path class="C3301157" d="M-415379 -216215l-107 66l67 535l-188 -43l-664 -294l-304 1165l387 70l184 -94l488 511l1017 321l188 -158l186 -266l-2 -248l379 -353l146 -449l-407 -373l-17 -195l-261 -149l-622 -571l-387 485l-83 40Z"></path><path class="C3301207" d="M-425101 -219083l-167 13l-304 -598l90 -323l-126 -8l-116 -192l-1186 498l283 626l-60 323l635 239l-7 42l1427 601l35 15l-91 -137l286 -318l-131 -170l230 -238l-273 -80l-167 -138h0l-358 -155Z"></path><path class="C3301306" d="M-422055 -223687l-137 -367l179 -245l190 -21l115 101l293 -30l31 117l208 108l178 -28l-66 -308l135 -32l281 164l276 -91l228 60l-130 -290l85 -249l277 -225l47 -439l73 -167l-135 -358l-24 241l-86 -103l-333 249l-50 -89l-186 89l1 -116l-334 3l8 93l-315 -16l-92 214l-486 -104l-45 -28l-257 167l-371 -80l-128 200l-4 264l-260 348l-152 77l266 563l-128 106l375 235l343 116l130 -129Z"></path><path class="C3301405" d="M-417505 -220863l111 4l239 272l157 93l419 -79l-174 -188l-183 -322l-781 -711l-524 341l45 -409l-213 -152l-121 -477l-107 -251l-225 49l-166 381l-163 88l181 351l-199 255l-137 -31l-186 131l-202 -45l17 246l137 141l-28 403l261 207l196 -106l267 183l157 -26l238 -199l114 2l157 -277l431 23l119 119l163 -16Z"></path><path class="C3301504" d="M-422693 -220892l43 -327l-287 68l-66 -88l-146 140l-203 -160l-107 192l-563 484l-130 181l309 375l209 -19l454 78l64 -348l153 -86l-151 -170l86 -233l335 -87Z"></path><path class="C3301603" d="M-425101 -219083l949 -1319l130 -181l563 -484l-478 -219l-23 80l-325 58l-98 -78l-319 101v-204l-553 -278l-198 50l-123 -80l-168 12l-31 208l-336 10l-62 62l148 226l151 92l-160 46l51 198l244 142l-75 125l178 216l-88 109l116 192l126 8l-90 323l304 598l167 -13Z"></path><path class="C3301702" d="M-432252 -225637l309 -588l-233 -304l-70 -215l99 -286l1 -247l-37 -107l-203 -43l-399 -376l60 -230l-186 -67l-158 101l-240 -27l17 467l20 320l75 146l-86 142l-198 -34l-172 135l-60 107l-258 112l-41 111l183 208l-70 155l-222 54l-41 142l280 240l-15 121l-197 147l52 103l294 144l60 -59l369 73l352 435l499 -307l154 -136l-150 -69l-143 -343l61 -139l294 114Z"></path><path class="C3301801" d="M-435608 -225045l-370 -599l-244 388l-122 -455l-375 -157l-214 95l120 205l-89 55l-172 -135l-90 48l164 228l132 769l1028 52l110 -58l122 -436Z"></path><path class="C3301850" d="M-429123 -224548l-93 -207l141 -204l177 -97l-82 -143l114 -277l200 -237l-204 -203l-201 -96l-36 -182l115 -190l-82 -169l-43 -165l-519 -533l-304 -22l-156 119l-166 -104l-25 203l-171 132l234 273l95 275l-45 1103l-107 281l-342 155l144 234l219 49l92 -105l175 57l230 -109l212 133l272 76l156 -47Z"></path><path class="C3301876" d="M-421993 -228792l-375 158l-127 155l99 76l-158 452l514 150l117 -413l154 -58l-190 -280l-34 -240Z"></path><path class="C3301900" d="M-427442 -226850l-54 -259l-169 -274l-309 14l-69 -75l191 -156l20 -152l-198 -189l188 -98l242 52l233 -125l-122 -118l153 -181l-222 -99l-65 69l-635 -162l-209 -125l-392 52l-199 512l-342 87l-3 312l-214 165l-488 236l-220 -108l63 214l166 104l156 -119l304 22l519 533l43 165l623 192l549 16l460 -505Z"></path><path class="C3302007" d="M-436666 -230425l-11 -105l-1159 -96l-755 -96l-54 270l582 -161l524 16l591 93l282 79Z M-438573 -229450h0h0h0Z M-438651 -229457h0h0h0Z M-438641 -229256h0h0h0Z M-438842 -229479l-4 205l165 15l-161 -220Z M-438123 -229207h0h0h0Z M-437536 -226996l153 -90l-128 -194l-148 -4l-96 -409l-209 -31l-59 -307l364 -259l912 -358l-357 -20l-403 -210l-439 -155l-14 -137l-462 -152l-119 131l131 174l-264 -21l-173 -187l-4 371l-258 8l-133 -93l-144 68l282 416l-29 80l223 80l117 175l403 139l261 265l-160 38l-59 158l40 248l453 347l319 -71Z"></path><path class="C3302056" d="M-415516 -214299l-488 -511l-184 94l-387 -70l304 -1165l-552 790l-606 519l330 79l-700 569l426 201l162 126l189 14l336 202l181 -137l24 129l263 -122l-37 181l360 145l43 87l141 -407l195 -724Z"></path><path class="C3302106" d="M-419373 -217412l-152 129l-281 -101l-42 57l-368 -196l83 -193l-186 55l-135 -177l-101 24l-367 -319l-123 28l-225 -192l67 -206l-170 137l-92 -241l-206 15l-393 756l-314 859l430 138l157 -30l292 -52l116 -123l209 81l99 153l396 274l109 168l343 77l155 -102l695 420l4 -1439Z"></path><path class="C3302205" d="M-418393 -210809l226 -225l-138 -150l312 26l-49 -277l398 -95l-11 -226l371 69l92 -124l-115 -210l24 -169l226 2l58 -188l176 -197l100 80l311 48l535 -681l25 -42l-43 -87l-360 -145l37 -181l-263 122l-24 -129l-181 137l-336 -202l-189 -14l-162 -126l-426 -201l27 119l-380 607l-238 389l-173 -145l-614 68l-141 -163l-408 19l-272 -180l-242 -18l-98 -128l-163 -116l-233 -13l-195 108l185 297l-46 149l90 343l141 123l261 81l-221 94l48 546l-344 26l-39 -153l-159 106l-106 -309l-218 331l114 140l-281 63l-328 -160l-121 168l209 285l108 311l239 -21l85 234l128 46l139 200l35 206l210 39l289 -89l127 -365l194 -73l-170 -301l88 -204l441 124l378 -300l152 -55l95 197l231 38l53 176l529 345Z"></path><path class="C3302254" d="M-445437 -223323l-53 -247l-169 -83l-228 31l-220 -184l28 -117l1228 -451l65 -180l-89 -132l-251 -41l-1 -107l-374 -130l-264 -214l109 -168l-362 -306l-249 297l83 278l-439 241l256 577l-212 269l-28 185l346 452l390 150l237 -111l197 -9Z"></path><path class="C3302270" d="M-435563 -226788l4 -105l-535 -31l-190 -301l-103 22l-135 389l190 200l-78 109l-192 -95l-106 73l109 334l372 -229l302 225l235 103l-23 -249l127 -22l118 -193l129 10l-224 -240Z"></path><path class="C3302304" d="M-420929 -213447l-274 134l-89 205l-158 49l-212 -92l-245 13l-335 -240l-133 202l84 107l4 245l390 319l17 202l-145 91l81 189l-139 234l130 187l121 -168l328 160l281 -63l-114 -140l218 -331l106 309l159 -106l39 153l344 -26l-48 -546l221 -94l-261 -81l-141 -123l-90 -343l46 -149l-185 -297Z"></path><path class="C3302403" d="M-416975 -224033h0h0h0Z M-416860 -223970h0h0h0Z M-417717 -221794l663 -785l14 -207l150 -215l-835 -618l25 -273l-476 -278l-88 76l-288 -16l-54 -76l-276 41l-185 145l-580 125l-366 -112l-222 96l-413 -337l-281 -164l-135 32l66 308l-178 28l-208 -108l-31 -117l-293 30l-115 -101l-190 21l-179 245l137 367l-106 259l-497 256l148 104l28 129l768 688l255 148l172 -37l356 120l-43 181l92 143l611 121l70 103l353 202l131 -47l-17 -246l202 45l186 -131l137 31l199 -255l-181 -351l163 -88l166 -381l225 -49l107 251l121 477l213 152l-45 409l524 -341Z"></path><path class="C3302452" d="M-422194 -220096l-308 -351l-88 -3l-103 -442l-335 87l-86 233l151 170l-153 86l-64 348l186 226l421 -155l143 169l132 -23l104 -345Z"></path><path class="C3302502" d="M-430458 -226923l-397 119l-316 -179l-176 -176l-276 35l-228 -114l-295 -39l-1 247l-99 286l70 215l233 304l-309 588l289 19l782 314l98 -37l377 301l-81 166l164 38l342 -155l107 -281l45 -1103l-95 -275l-234 -273Z"></path><path class="C3302601" d="M-441363 -230433h0h0h0Z M-441582 -230406h0h0h0Z M-441297 -230422h0h0h0Z M-439520 -230257h0h0h0Z M-441100 -230239h0h0h0Z M-438645 -230452l54 -270l-956 -155l-314 -143l-222 87l-42 150l132 61l250 267l252 -35l546 -197l143 43l-6 226l163 -34Z M-439441 -230238h0h0h0Z M-439495 -230061h0h0h0Z M-439535 -230036h0h0h0Z M-440312 -230004h0h0h0Z M-439084 -229913h0h0h0Z M-439171 -229893l-178 -260l-28 155l206 105Z M-440416 -229906h0h0h0Z M-439208 -229877h0h0h0Z M-439084 -229793h0h0h0Z M-439506 -229594h0h0h0Z M-439660 -229447h0h0h0Z M-439621 -229447h0h0h0Z M-439200 -229447h0h0h0Z M-438846 -229274l4 -205l-255 -80l-24 213l275 72Z M-439386 -228871l144 -68l133 93l258 -8l4 -371l-252 -84l-372 35l-294 -41l-301 -112l-236 -217l-14 -167l-244 -4l157 288l-82 112l-322 -179l50 -149l-95 -180l-276 -307l-168 -92l-360 -18l-68 499l-201 552l160 -13l136 297l493 406l257 -236l367 57l104 -48l219 116l206 236l148 -116l161 -262l288 -19Z"></path><path class="C3302700" d="M-426609 -228590l-182 -197l28 -258l211 8l206 -158l8 -171l-475 -103l-28 -125l-400 31l-1049 -61l-570 -55l-257 -67l-473 38h-528l-21 -62l-85 160l382 283l298 318l-15 71l550 163l150 99l392 -52l209 125l635 162l65 -69l222 99l159 -128l568 -51Z"></path><path class="C3302809" d="M-436868 -224603l-132 -769l-164 -228l-122 -36l-439 -345l3 -87l-47 398l-205 152l55 175l219 166l39 587l104 -3l189 -245l217 289l283 -54Z"></path><path class="C3302858" d="M-434107 -227680l136 -95l-136 -141l-174 -97l-201 -246l-210 -145l-208 249l-123 222l310 55l391 220l215 -22Z"></path><path class="C3302908" d="M-433703 -224518l193 27l312 -93l212 66l98 -86l-79 -153l-352 -435l-369 -73l-60 59l-294 -144l-144 -31l-277 112l-515 -277l-163 -177l-288 69l-162 -114l-237 -38l-48 -102l-354 -280l3 -234l-372 229l452 337l169 212l370 599l62 -220l146 751l217 46l258 277l541 -266l26 -289l321 52l334 176Z"></path><path class="C3303005" d="M-420929 -213447l195 -108l233 13l163 116l-52 -234l112 -109l-300 -564l-221 -167l-286 -31l-123 -190l-811 31l-757 397l-3 202l100 96l129 -102l167 62l-136 160l220 211l-56 235l113 51l335 240l245 -13l212 92l158 -49l89 -205l274 -134Z"></path><path class="C3303104" d="M-418010 -209859l-164 -366l-317 -352l98 -232l-529 -345l-53 -176l-231 -38l-95 -197l-152 55l-378 300l-441 -124l-88 204l170 301l-194 73l-127 365l-289 89l-48 73l821 92l37 143l-57 327l132 67l425 9l-3 202l117 -88l260 185l-70 -175l271 -264l316 32l63 185l217 -1l209 -94l-60 -130l160 -120Z"></path><path class="C3303203" d="M-433905 -228138l-246 -75l-160 -179l-270 -98l-111 86l210 145l201 246l174 97l202 -222Z"></path><path class="C3303302" d="M-430837 -229854h0h0h0Z M-430623 -229827h0h0h0Z M-430548 -229807h0h0h0Z M-431021 -229568h0h0h0Z M-431155 -229517h0h0h0Z M-431196 -228748h0h0h0Z M-431170 -228593h0h0h0Z M-429544 -229009l-298 -318l-382 -283l85 -160l-258 23l-358 186l-349 25l-52 125l-172 19l132 168l166 -125l73 194l-153 1l-238 337l314 259l520 -174l236 -27l192 -157l180 35l50 -194l312 66Z M-431160 -228543h0h0h0Z"></path><path class="C3303401" d="M-425255 -221607l394 -332l131 -173l-24 -144l1168 -775l118 -30l598 138l217 -153l143 8l-148 -104l497 -256l106 -259l-130 129l-343 -116l-375 -235l128 -106l-373 -229l-373 -45l-296 69l-711 -133l-228 -139l-177 138l-230 -11l-196 -205l-163 18l-242 136l179 173l70 377l-105 254l-223 55l-286 -262l-316 -130l-107 68l-323 -42l-238 141l5 160l-167 67l11 364l149 322l-29 195l400 272l162 311l130 -34l47 252l269 -90l207 169l253 6l100 151l123 80l198 -50Z"></path><path class="C3303500" d="M-434042 -225350l-52 -103l197 -147l15 -121l-280 -240l41 -142l222 -54l70 -155l-183 -208l41 -111l258 -112l60 -107l-216 -49l-356 -177l-115 -169l233 -435l-215 22l-391 -220l-310 -55l123 -222l-693 -133l-291 -98l-43 -218l-312 -23l-206 70l-289 -83l506 381l-119 426l266 363l488 -108l242 64l-71 153l64 323l219 127l-424 123l224 240l-129 -10l-118 193l-127 22l23 249l-235 -103l-302 -225l-3 234l354 280l48 102l237 38l162 114l288 -69l163 177l515 277l277 -112l144 31Z"></path><path class="C3303609" d="M-435978 -225644l-169 -212l-452 -337l-109 -334l-403 49l-272 -269l-153 -249l-319 71l-235 27l-81 221l-226 193l364 197l94 141l217 78l-3 87l439 345l122 36l90 -48l172 135l89 -55l-120 -205l214 -95l375 157l122 455l244 -388Z"></path><path class="C3303708" d="M-433466 -220036l41 -468l323 -161l107 37l277 -131l168 196l-48 -460l113 -331l475 -424l30 -229l304 134l87 -63l-183 -711l-44 -364l-256 25l-282 -130l-65 86l-226 -214l-189 -396l-386 570l-272 320l-523 585l-358 1565l189 62l718 502Z"></path><path class="C3303807" d="M-447189 -233590h0h0h0Z M-446723 -233573h0h0h0Z M-445671 -233487h0h0h0Z M-445710 -232682h0h0h0Z M-446689 -232404h0h0h0Z M-446367 -232269h0h0h0Z M-445566 -232244h0h0h0Z M-446907 -232182h0h0h0Z M-445824 -232109h0h0h0Z M-447090 -232054h0h0h0Z M-445916 -232044l-111 -186l-176 8l287 178Z M-445793 -232012h0h0h0Z M-445742 -231902h0h0h0Z M-446580 -231818h0h0h0Z M-446826 -231789h0h0h0Z M-446643 -231637h0h0h0Z M-446826 -231563h0h0h0Z M-446756 -231334h0h0h0Z M-446860 -231312h0h0h0Z M-446788 -231274h0h0h0Z M-446763 -231112h0h0h0Z M-446801 -231085h0h0h0Z M-446887 -231097h0h0h0Z M-446728 -230993h0h0h0Z M-446843 -230886h0h0h0Z M-445961 -230897h0h0h0Z M-446308 -230699h0h0h0Z M-446368 -230696h0h0h0Z M-446022 -230683h0h0h0Z M-445957 -230670h0h0h0Z M-446276 -230611h0h0h0Z M-446215 -230593h0h0h0Z M-446083 -230646h0h0h0Z M-445528 -230580h0h0h0Z M-445601 -230536h0h0h0Z M-445450 -230490h0h0h0Z M-445210 -230276l-98 3l-452 -206l-403 37l-348 -124l-175 22l-162 -177l-94 -241l-50 -396l59 -114l-131 -107l-11 -164l-141 -278l134 -180l-45 -117l177 -5l409 415l275 -60l10 -264l-113 110l-536 -414l265 57l127 122l377 4l-438 -573l274 116l88 224l242 142l3 93l371 44l-166 -145l-36 -263l305 -35l97 77l208 -137l-471 -431l41 -68l-237 -290l-220 -69l5 172l-324 183l-432 -184l-199 94l-148 -56l-68 -216l-116 19l-242 244l-178 35l-10 233l-291 309l-196 -71l-86 345l-334 63l-199 233l68 238l78 181l503 220l-10 189l149 282l-83 241l176 469l84 348l-97 110l120 175l257 -21l138 113l72 248l302 173l267 -60l138 180l140 -100l206 138l180 -253l437 -70l190 -149l173 -346l-56 -245l251 -72Z"></path><path class="C3303856" d="M-432834 -223640l-349 -205l-195 -317l-183 -20l-177 -168l35 -168l-334 -176l-321 -52l-26 289l-541 266l-156 174l195 219l-185 472l13 215l1566 361l272 -320l386 -570Z"></path><path class="C3303906" d="M-429806 -222646l-92 -138l-278 -121l44 -83l-300 -168l226 -410l-135 -144l63 -216l-110 -237l161 -240l-33 -150l-219 -49l-144 -234l-164 -38l81 -166l-377 -301l-98 37l-782 -314l-289 -19l-294 -114l-61 139l143 343l150 69l-154 136l-499 307l79 153l-98 86l-212 -66l-312 93l-193 -27l-35 168l177 168l183 20l195 317l349 205l189 396l226 214l65 -86l282 130l256 -25l71 -103l283 69l189 297l171 -81l206 218l-43 188l186 193l263 153l200 51l137 -206l172 -26l182 -235l-7 -153Z"></path><path class="C3303955" d="M-439132 -225204l-433 -426l-264 147l-126 -334l-593 -39l-129 -64l159 397l136 38l92 288l-25 225l132 120l179 -276l872 -76Z"></path><path class="C3304003" d="M-437974 -225518l205 -152l47 -398l-217 -78l-94 -141l-364 -197l226 -193l81 -221l235 -27l-453 -347l-40 -248l59 -158l160 -38l-261 -265l-403 -139l-162 358l89 206l-190 25l69 187l180 62l-15 266l-309 -117l-58 135l-251 -109l12 137l-274 350l-329 -246l-178 110l116 238l-75 110l-280 -7l-261 -138l-136 -170l-42 236l22 82l188 485l129 64l593 39l126 334l264 -147l433 426l446 -77l138 210l490 -166l-135 -223l219 -58Z"></path><path class="C3304102" d="M-418444 -207773l160 -192l295 -87l238 54l-29 -26h0l-283 -211h0l-232 -212l-314 -190l-385 79l-21 -409l-136 -231l35 -94l-260 -185l-117 88l3 -202l-425 -9l-132 -67l57 -327l-37 -143l-821 -92l-308 125l-253 175l-100 189l74 103l498 281l460 9l259 94l453 -105l92 374l176 255l-3 147l204 147l-57 145l72 350l231 -33l259 182l44 133l228 19l75 -134Z"></path><path class="C3304110" d="M-443011 -224491l-181 -205l-201 -32l98 -185l-263 44l-175 260l224 249l-4 223h270l103 112l373 -10l-25 -178l-219 -278Z"></path><path class="C3304128" d="M-441481 -223314l-204 -12l134 -412l-515 -132l-48 -325l-108 -173l47 -266l-163 -204l-178 -15l-495 362l219 278l25 178l-373 10l-53 10h0l-186 145l-32 269l79 169l409 238l202 -13l121 193l-1 333l365 83l100 120l244 75l148 -16l177 -157l-111 -146l214 -104l-18 -240l-93 -49l94 -199Z"></path><path class="C3304144" d="M-436347 -227833l-87 294l47 336l103 -22l190 301l535 31l-4 105l424 -123l-219 -127l-64 -323l71 -153l-242 -64l-488 108l-266 -363Z"></path><path class="C3304151" d="M-411338 -220954l-640 -345l-691 -242l-2055 -545l-661 -245l-146 311l132 42l-151 400l-186 192l-1200 303l183 322l174 188l366 71l701 -52l112 47l255 355l454 154l188 268l124 -103l1612 -841l197 -320l292 38l367 -76l321 94l252 -16Z"></path><path class="C3304201" d="M-442601 -222681l1 -333l-121 -193l-202 13l-409 -238l-79 -169l32 -269l186 -145h0l53 -10l-103 -112h-270l4 -223l-224 -249l175 -260l263 -44l58 -713l-226 -106l41 -154l-187 -232l-55 331h0l-266 56l-137 -353l-233 98l-362 -170l-177 117l-246 -369l-416 371l-139 -82l-102 101l-93 -244l-132 159l-165 -67l-95 117l-231 14l41 446l-197 84l-135 -104l51 227l-183 172l-341 367l30 213l-137 293l-224 189l-540 97v12l58 107l787 348l169 -100l421 -38l51 -79l28 -185l212 -269l-256 -577l439 -241l-83 -278l249 -297l362 306l-109 168l264 214l374 130l1 107l251 41l89 132l-65 180l-1228 451l-28 117l220 184l228 -31l169 83l53 247l302 238l313 145l235 236l17 129l229 58l394 -72l72 -136l279 185l425 -55l256 165l288 -10l26 -241Z"></path><path class="C3304300" d="M-424418 -227300l-87 -900l-318 -82l-407 41l-89 154l-221 -61l-279 89l-479 -274l-126 -178l-263 61l125 161l-136 139l104 162l-199 40h0l-89 88l123 118l-184 217l-144 291l-355 384l350 146l179 160l-14 115l377 51l288 -193l416 320l201 50l365 -115l13 -737l-40 -117l336 -85l371 70l182 -115Z"></path><path class="C3304409" d="M-438793 -228120l-117 -175l-223 -80l29 -80l-282 -416l-288 19l-161 262l-148 116l-206 -236l-219 -116l-104 48l-367 -57l-257 236l-493 -406l-136 -297l-160 13l-224 -29l-266 189l90 425l-121 24l-162 205l-309 51l-103 -117l-160 91l215 172l133 -82l156 70l83 248l192 129l-157 30l-27 176l317 371l279 -16l-28 198l279 133l125 239l128 293l312 46l286 -44l42 -236l136 170l261 138l280 7l75 -110l-116 -238l178 -110l329 246l274 -350l-12 -137l251 109l58 -135l309 117l15 -266l-180 -62l-69 -187l190 -25l-89 -206l162 -358Z"></path><path class="C3304508" d="M-434373 -220600l358 -1565l-271 -209l-275 218l-165 -17l-45 -275l-372 86l-19 -240l-99 -166l-347 121l-278 -236l-17 11h0l22 231l-204 55l4 324l-159 35l-113 161l-231 93l30 112l-189 196l99 190l47 420l-87 195l23 111l205 101l248 -190l294 281l74 -154l244 -127l524 223l34 -137l388 25l277 127Z"></path><path class="C3304524" d="M-418176 -224170l-357 -302l-111 -320l-251 -69l-431 -514l-267 49l-199 -303l-73 167l-47 439l-277 225l-85 249l130 290l-228 -60l-276 91l413 337l222 -96l366 112l580 -125l185 -145l276 -41l54 76l288 16l88 -76Z"></path><path class="C3304557" d="M-435591 -230806h0h0h0Z M-435733 -230728h0h0h0Z M-431998 -230726h0h0h0Z M-431946 -230667h0h0h0Z M-435112 -230613h0h0h0Z M-435113 -230604h0h0h0Z M-435675 -230600h0h0h0Z M-431488 -230588h0h0h0Z M-435658 -230588v1v-1h0Z M-435658 -230587v-1v1h0Z M-435670 -230579h0h0h0Z M-435635 -230590h0h0h0Z M-435651 -230580h0h0h0Z M-435632 -230545h0h0h0Z M-435081 -230526h0h0h0Z M-435693 -230509l1 1l2 1l-3 -2Z M-435693 -230509l3 2l-2 -1l-1 -1Z M-435693 -230499l1 -3l-1 3h0Z M-435830 -230453h0h0h0Z M-435856 -230447h0h0h0Z M-435885 -230422h0h0h0Z M-435927 -230413h0h0h0Z M-433039 -230366h0h0h0Z M-435779 -230426h0h0h0Z M-431974 -230346h0h0h0Z M-431950 -230331h0h0h0Z M-431929 -230313h0h0h0Z M-432986 -230311h0h0h0Z M-435670 -230579l-414 76l-593 -27l11 105l527 116l469 -270Z M-436045 -230307h0h0h0Z M-431922 -230289h0h0h0Z M-432763 -230288h0h0h0Z M-435991 -230280l198 -181l-237 80l39 101Z M-436026 -230289h0h0h0Z M-432029 -230255h0h0h0Z M-431920 -230255h0h0h0Z M-431825 -230237h0h0h0Z M-431833 -230215h0h0h0Z M-436604 -229996h0h0h0Z M-436597 -229982h0h0h0Z M-436953 -229864h0h0h0Z M-431823 -229863h0h0h0Z M-437031 -229851h0h0h0Z M-431473 -229617h0h0h0Z M-431460 -229342h0h0h0Z M-431958 -228870h0h0h0Z M-432092 -228863h0h0h0Z M-431742 -228828h0h0h0Z M-431729 -228384h0h0h0Z M-432301 -228370l-3 -147l160 -178l-177 37l-85 192l105 96Z M-431671 -228292h0h0h0Z M-432543 -228253h0h0h0Z M-432583 -228245h0h0h0Z M-432552 -228241h0h0h0Z M-431627 -228192h0h0h0Z M-431622 -228111h0h0h0Z M-431232 -228070h0h0h0Z M-431170 -228036h0h0h0Z M-431091 -228016h0h0h0Z M-432725 -228033l77 -231l198 -140l119 -286l287 -53l-64 -232l149 56l345 -134l-65 -91l-30 -381l208 18l-374 -269l-26 -117l-293 18l-264 -136l-298 -18l-147 -114l-824 26l-451 -54l-809 -204l-116 -106l-225 -16l-294 -256l-70 251l-1 3l-532 417l-306 54l-192 213l-169 -100l-642 506l-426 239l14 137l439 155l403 210l357 20l13 8l289 83l206 -70l312 23l43 218l291 98l693 133l208 -249l111 -86l270 98l160 179l246 75l204 85l392 27l240 27l158 -101l186 67Z M-431576 -227998h0h0h0Z M-431687 -227997h0h0h0Z M-431232 -227991h0h0h0Z M-431120 -227970h0h0h0Z M-431209 -227962h0h0h0Z M-431558 -227946h1h-1h0Z M-431554 -227945h0h0h0Z M-431558 -227943l-1 -2l1 2h0Z M-431549 -227941h1h-1h0Z M-431549 -227941v1v-1h1h-1Z M-431548 -227941v1v-1h0Z M-431557 -227940h-1h1h0Z M-431549 -227941l-5 -4l-3 -1h0h-1l-1 1l1 2v3h1h9h0h-1v-1Z M-431556 -227920h0h0h0Z M-431554 -227918h-1h1h0Z M-431555 -227918h1h-1h0Z M-431555 -227918v1v-1h0Z M-431556 -227917h-1h1h0Z M-431555 -227917v-1l-1 1h1Z M-431555 -227917h0h0h0Z M-431557 -227917h0h0h0Z M-431552 -227917h0h0h0Z M-431557 -227917h0h0h0Z M-431038 -227906h0h0h0Z M-431522 -227902h0h0h0Z M-431048 -227902h0h0h0Z M-431014 -227899h0h0h0Z M-431513 -227892h0h0h0Z M-431492 -227887h0h0h0Z M-430991 -227885h0h0h0Z M-431495 -227866h0h0h0Z M-431378 -227826h0h0h0Z M-431404 -227817h0h0h0Z M-431054 -227767h0h0h0Z M-431376 -227760h0h0h0Z M-431410 -227758h0h0h0Z M-431721 -227756l157 -107l-219 -156l-19 -294l-157 125l-209 17l-225 -167l-263 209l93 158l356 126l322 -100l-9 114l173 75Z M-431599 -227700h0h0h0Z M-431146 -227695h0h0h0Z M-431167 -227688h0h0h0Z M-431689 -227687h0h0h0Z M-431686 -227681h0h0h0Z M-431676 -227680h0h0h0Z M-431685 -227677h0h0h0Z M-431682 -227676h0h0h0Z M-431691 -227674h2h-2h0Z M-431678 -227674h0h0h0Z M-431686 -227673h0h0h0Z M-431686 -227673h0h0h0Z M-431682 -227672h0h0h0Z M-431689 -227674h-2h2h0Z M-431691 -227669h0h0h0Z M-431689 -227670h0h0h0Z M-431691 -227669h0h0h0Z M-431691 -227669v2v-2h0Z M-431687 -227668h0h0h0Z M-431691 -227667h0h0h0Z M-431017 -227624h0h0h0Z M-431176 -227536h0h0h0Z M-431055 -227486h0h0h0Z M-431271 -227460h0h0h0Z"></path><path class="C3304607" d="M-419711 -218031l54 -242l279 -444l421 -67l60 153l12 -155l491 -91l427 110l88 -107l813 -44l-95 -195l-48 -339l75 -158l-94 -318l-392 -269l-19 -152l134 -514l-163 16l-119 -119l-431 -23l-157 277l-114 -2l-238 199l-157 26l-267 -183l-196 106l-261 -207l-375 195l-533 -18l-509 125l-19 170l-302 -35l-17 87l25 137l208 281l131 23l-20 236l199 45l-191 257l174 -95l199 173l396 582l531 579Z"></path><path class="C3304706" d="M-419973 -214883l-571 -377l32 -112l-270 -381l-263 -267l-114 -28l-231 6l-331 -259l-167 -16l-152 -163l249 -389l-157 30l-430 -138l-287 -167l16 207l-172 128l-194 261l-388 -70l-79 202l-216 27l144 139l-137 51l165 283l67 89l211 132l-57 79l205 94l37 228l181 14l119 198h0l217 213l-134 181l-241 96l145 299l757 -397l811 -31l123 190l286 31l221 167l341 -30l144 77l158 -354l-122 -178l84 -65Z"></path><path class="C3304755" d="M-409600 -213015l-5 -599l-216 -304l-126 -51l-289 -495l-416 -450l-73 -216l127 -510l166 -275l329 -204l-426 -60l-233 -142l-210 -222l-17 -184l-354 -52l-237 35l-191 -147l-197 66l113 462l19 427l-157 5l-313 272l-339 138l348 524l-189 -21l-79 167l-10 636l-90 141l132 198l162 52l-35 133l-313 144l233 419h0l-598 -7l213 574l104 159l354 199l503 -284l127 103l186 -66l223 171l219 -7l244 95l228 -96l284 -264l157 94l189 -53l96 -351l158 60l199 -214Z"></path><path class="C3304805" d="M-416271 -215951l664 294l188 43l-67 -535l107 -66l-310 -186l-178 -221l-295 -98l-268 2l-125 -209l-269 -103l-188 -227l-112 -285l-231 -79l-176 -290l-418 74l-399 -375l-54 -140l-495 -279l-60 -153l-421 67l-279 444l-54 242l211 333l157 27l-30 259l-4 1439l370 221l314 7l-22 144l395 437l159 261l-79 83l811 178l606 -519l552 -790Z"></path><path class="C3304904" d="M-431083 -228474h0h0h0Z M-431036 -228460h0h0h0Z M-431098 -228310h0h0h0Z M-430931 -228213h0h0h0Z M-428859 -228676l-150 -99l-550 -163l15 -71l-312 -66l-50 194l-180 -35l-192 157l-236 27l-520 174l48 251l330 269l-159 144l174 243l316 179l220 108l488 -236l214 -165l3 -312l342 -87l199 -512Z"></path><path class="C3305000" d="M-409811 -219115l-1467 -4l-254 290l41 643l-282 421l50 280l-242 205l509 333l113 168l354 52l17 184l210 222l233 142l426 60l-124 -774l15 -603l401 -1619Z"></path><path class="C3305109" d="M-433309 -228026l-392 -27l-204 -85l-202 222l136 141l123 112l556 104l-17 -467Z"></path><path class="C3305133" d="M-418152 -213268l-387 -175l-124 -203l-297 -174l-17 -119l-219 -205l-335 -199l-168 -358l-274 -182l-84 65l122 178l-158 354l-144 -77l-341 30l300 564l-112 109l52 234l98 128l242 18l272 180l408 -19l141 163l614 -68l173 145l238 -389Z"></path><path class="C3305158" d="M-427554 -221179l83 -53l-319 -99l-271 -240l-630 -339l-231 11l-147 -356l-360 -92l-145 -187l-232 -112l7 153l-182 235l-172 26l-137 206l-200 -51l285 462l33 132l156 -29l459 134l-88 122l-52 370l150 59l69 -127l512 -155l128 99l148 -60l47 -205l-101 -270l106 -107l369 223l73 -45l216 223l426 72Z"></path><path class="C3305208" d="M-421235 -229075l-299 168l-112 147l-347 -32l34 240l190 280l-154 58l-117 413l-514 -150l371 249l514 895l355 277l1082 -1423l-152 -661l-269 -51l-318 50l-108 -65l-2 -331l-154 -64Z"></path><path class="C3305307" d="M-419373 -217412l30 -259l-157 -27l-211 -333l-531 -579l-396 -582l-199 -173l-174 95l191 -257l-199 -45l20 -236l-131 -23l-208 -281l-25 -137l-185 140l-257 39l-63 -110l-326 84l-104 345l-132 23l1 204l148 177l209 576l68 -38l333 217l206 -15l92 241l170 -137l-67 206l225 192l123 -28l367 319l101 -24l135 177l186 -55l-83 193l368 196l42 -57l281 101l152 -129Z"></path><path class="C3305406" d="M-426910 -219693l-58 -320l-130 -121l-38 -333l-76 -72l-228 68l74 -135l22 -348l-266 -60l56 -165l-426 -72l-216 -223l-73 45l-369 -223l-106 107l101 270l-47 205l-148 60l-128 -99l-512 155l-69 127l-150 -59l-449 50l116 513l62 -38l279 213l593 241l312 251l-30 64l937 297l478 209l550 295l162 47l60 -323l-283 -626Z"></path><path class="C3305505" d="M-424505 -228200l806 -155l-164 -603l86 -120l-50 -279l-710 7l-217 -28l-421 43l-583 6l-580 -37l-8 171l-206 158l-211 -8l-28 258l182 197l185 79l126 178l479 274l279 -89l221 61l89 -154l407 -41l318 82Z"></path><path class="C3305554" d="M-436708 -226527l106 -73l192 95l78 -109l-190 -200l135 -389l-47 -336l87 -294l119 -426l-506 -381l-13 -8l-912 358l-364 259l59 307l209 31l96 409l148 4l128 194l-153 90l153 249l272 269l403 -49Z"></path><path class="C3305604" d="M-421869 -225554l-284 -363l-225 -77l-90 -133l-244 41l-242 -152l-190 -241l-173 -562l-474 -143l-410 -180l-217 64l-182 115l-371 -70l-336 85l40 117l-13 737l-365 115l-383 791l149 168l357 690l163 -18l196 205l230 11l177 -138l228 139l711 133l296 -69l373 45l373 229l-266 -563l152 -77l260 -348l4 -264l128 -200l371 80l257 -167Z"></path><path class="C3305703" d="M-425724 -220191l88 -109l-178 -216l75 -125l-244 -142l-51 -198l160 -46l-151 -92l-148 -226l62 -62l336 -10l31 -208l168 -12l-100 -151l-253 -6l-207 -169l-269 90l-47 -252l-130 34l-162 -311l-400 -272l-100 221l-202 115l112 244l-187 191l71 241l-114 89l93 341l-83 53l-56 165l266 60l-22 348l-74 135l228 -68l76 72l38 333l130 121l58 320l1186 -498Z"></path><path class="C3305752" d="M-426424 -228511l-185 -79l-568 51l-159 128l-153 181l122 118l-233 125l-242 -52l-188 98l198 189l-20 152l-191 156l69 75l309 -14l169 274l54 259l355 -384l144 -291l184 -217l-123 -118l89 -88h0l199 -40l-104 -162l136 -139l-125 -161l263 -61Z"></path><path class="C3305802" d="M-427144 -222674l29 -195l-149 -322l-11 -364l-417 -282l-258 77l-200 -133l39 -149l-421 -126l8 -89l-399 -320l-200 29l-156 47l-272 -76l-212 -133l-230 109l-175 -57l-92 105l33 150l-161 240l110 237l-63 216l135 144l-226 410l300 168l-44 83l278 121l92 138l232 112l145 187l360 92l147 356l231 -11l630 339l271 240l319 99l-93 -341l114 -89l-71 -241l187 -191l-112 -244l202 -115l100 -221Z"></path><path class="C3305901" d="M-421363 -220249l17 -87l302 35l19 -170l509 -125l533 18l375 -195l28 -403l-137 -141l-131 47l-353 -202l-70 -103l-611 -121l-92 -143l43 -181l-356 -120l-172 37l-255 -148l-768 -688l-28 -129l-143 -8l-217 153l3 171l341 185l60 200l124 52l-518 307l58 129l-169 348l170 115l8 182l-144 83l287 -68l-43 327l103 442l88 3l308 351l326 -84l63 110l257 -39l185 -140Z"></path><path class="C3306008" d="M-430030 -220323l-116 -513l449 -50l52 -370l88 -122l-459 -134l-156 29l-33 -132l-285 -462l-98 181l164 106l38 158l-172 -24l-641 -337l-477 120l-304 -134l-30 229l-475 424l-113 331l449 347l678 210l165 116l-25 -228l-216 -197l125 -268l157 6l43 144l161 67l306 -105l424 272l-60 214l361 122Z"></path><path class="C3306107" d="M-437087 -220757l267 42l136 -145l87 -195l-47 -420l-99 -190l189 -196l-30 -112l231 -93l113 -161l159 -35l-4 -324l204 -55l-22 -231h0l17 -11l-175 -184l-133 33l-202 -139l-177 30l-113 -103l42 -190l-101 -137l-166 -23l-152 -274l-131 111l-292 -271l-162 118l-109 230l-340 157l-266 -322l-212 221l152 344l-132 134l-298 -149l-85 -156l-208 -55l-263 -294l-69 128l174 155l-362 81l-65 301l-357 37l-160 137l-286 -173l-705 -253l-242 75l-94 199l93 49l18 240l-214 104l111 146l-177 157l-148 16l99 118l147 -47l190 198l243 45l-20 208l234 152l241 -23l39 107l321 44l129 91l222 -117l276 164l237 40l609 287l119 122l391 23l421 166l352 190l171 -296l162 -26l222 200Z"></path><path class="C3306156" d="M-417414 -208725l-176 -46l-259 -272l-279 -397l225 -210l-107 -209l-160 120l60 130l-209 94l-217 1l-63 -185l-316 -32l-271 264l70 175l-35 94l136 231l21 409l385 -79l314 190l232 212h0l283 211h0l29 26l353 -177l35 -184l-95 -170l44 -196Z"></path><path class="C3306206" d="M-434015 -222165l523 -585l-1566 -361l-13 -215l185 -472l-195 -219l156 -174l-258 -277l-217 -46l-146 -751l-62 220l-122 436l-110 58l-1028 -52l-283 54l-217 -289l-189 245l-215 172l286 391l292 271l131 -111l152 274l166 23l101 137l-42 190l113 103l177 -30l202 139l133 -33l175 184l278 236l347 -121l99 166l19 240l372 -86l45 275l165 17l275 -218l271 209Z"></path><path class="C3306305" d="M-440056 -224070l-657 -527l143 -190l255 -185l25 -225l-92 -288l-136 -38l-159 -397l-188 -485l-41 573l-3 544l-453 -79l-198 199l23 543l123 275l354 156l163 130l841 -6Z"></path></g></svg>