<?xml version="1.0" encoding="utf-8"?>
<!-- Generator: Adobe Illustrator 16.0.3, SVG Export Plug-In . SVG Version: 6.00 Build 0)  -->
<!DOCTYPE svg PUBLIC "-//W3C//DTD SVG 1.1//EN" "http://www.w3.org/Graphics/SVG/1.1/DTD/svg11.dtd">
<svg version="1.1" id="Camada_1" xmlns="http://www.w3.org/2000/svg" xmlns:xlink="http://www.w3.org/1999/xlink" x="0px" y="0px"
	 width="32px" height="16px" viewBox="0 0 32 16" enable-background="new 0 0 32 16" xml:space="preserve">
<g>
	<path fill="#207192" d="M302.279,422.041c-0.326-0.35-0.75-0.557-1.332-0.654c-0.035-0.006-0.068-0.01-0.102-0.01
		c-0.203,0-0.365,0.111-0.557,0.24c-0.072,0.049-0.146,0.102-0.229,0.146c-0.025,0.016-0.053,0.033-0.08,0.053
		c-0.016,0.01-0.029,0.021-0.045,0.031c-0.738,0.469-1.504,0.707-2.271,0.707c-0.517,0-1.042-0.109-1.563-0.32
		c-0.375-0.152-0.719-0.375-1.051-0.588c-0.066-0.043-0.132-0.086-0.197-0.129c-0.144-0.09-0.281-0.131-0.435-0.131
		c-0.044,0-0.092,0.002-0.142,0.01c-0.782,0.115-1.346,0.533-1.725,1.277c-0.479,0.93-0.679,1.992-0.652,3.451
		c0.011,0.465,0.136,0.844,0.385,1.156c0.385,0.488,0.936,0.717,1.734,0.717c0.84,0.004,1.68,0.004,2.52,0.004
		c0.361,0,0.723,0,1.085,0h1.442c0.711,0,1.422-0.002,2.131-0.004c0.199,0,0.398-0.016,0.593-0.043
		c0.918-0.135,1.522-0.797,1.58-1.729c0.047-0.803-0.03-1.631-0.231-2.461C302.958,423.021,302.686,422.473,302.279,422.041z"/>
	<path fill="#207192" d="M297.663,415.766h-0.022c-1.688,0-3.025,1.33-3.039,3.025c-0.006,0.814,0.305,1.578,0.875,2.154
		c0.571,0.578,1.336,0.898,2.154,0.9h0.01c1.668,0,3.03-1.363,3.037-3.037C300.68,417.143,299.329,415.777,297.663,415.766z"/>
	<path fill="#207192" d="M293.65,418.129c-0.188,0.039-0.369,0.074-0.553,0.098c-0.111,0.012-0.225,0.02-0.334,0.02
		c-0.752,0-1.418-0.295-2.025-0.615c-0.1-0.053-0.188-0.08-0.266-0.08c-0.123,0-0.229,0.068-0.328,0.209
		c-0.101,0.143-0.207,0.309-0.229,0.461c-0.094,0.631-0.201,1.346-0.236,2.043c-0.035,0.699,0.313,1.121,1.008,1.221
		c0.358,0.053,0.736,0.055,1.102,0.055c0.134,0,0.273,0,0.41,0.004c0.011-0.004,0.031-0.018,0.043-0.029
		c0.529-0.59,1.193-0.928,2.02-1.031c-0.432-0.721-0.615-1.498-0.563-2.363C293.684,418.121,293.667,418.127,293.65,418.129z"/>
	<path fill="#207192" d="M304.813,417.555c-0.088,0-0.188,0.029-0.308,0.092c-0.584,0.305-1.165,0.578-1.829,0.582h-0.029
		c-0.289,0-0.578-0.033-0.854-0.066c-0.066-0.008-0.131-0.016-0.193-0.021c-0.006,0.076-0.01,0.154-0.016,0.232
		c-0.02,0.316-0.04,0.646-0.115,0.965c-0.074,0.322-0.205,0.635-0.33,0.936c-0.029,0.07-0.061,0.141-0.09,0.211
		c0.854,0.125,1.252,0.338,1.963,1.006c0.035,0.033,0.063,0.049,0.075,0.055c0.128-0.004,0.259-0.004,0.388-0.006
		c0.381-0.002,0.774-0.004,1.15-0.057c0.584-0.086,0.938-0.461,0.967-1.029c0.02-0.359,0.012-0.727-0.02-1.086
		c-0.045-0.527-0.092-1.072-0.385-1.537C305.034,417.586,304.906,417.555,304.813,417.555z"/>
	<path fill="#207192" d="M292.855,413.387c-0.039-0.002-0.078-0.002-0.117-0.002c-1.061,0-1.965,0.889-1.977,1.941v0.01
		c-0.07,1.051,0.784,1.973,1.906,2.055c0.045,0.002,0.091,0.004,0.137,0.004c1.014,0,1.893-0.85,1.959-1.898
		c0.034-0.527-0.145-1.039-0.502-1.436C293.902,413.66,293.402,413.422,292.855,413.387z"/>
	<path fill="#207192" d="M301.111,414.088c-0.346,0.395-0.516,0.898-0.479,1.416c0.074,1.043,0.956,1.891,1.966,1.891
		c0.039,0,0.077-0.002,0.114-0.004c0.56-0.037,1.087-0.293,1.448-0.705c0.337-0.385,0.506-0.869,0.473-1.361l-0.002-0.01
		c0.002-0.484-0.206-0.971-0.572-1.336c-0.377-0.379-0.888-0.596-1.4-0.596c-0.043,0-0.084,0-0.127,0.004
		C301.975,413.426,301.469,413.674,301.111,414.088z"/>
</g>
<g>
	<path fill-rule="evenodd" clip-rule="evenodd" fill="#1B779B" d="M3.227,14.604c0-3.762,0-7.507,0-11.281c0.463,0,0.911,0,1.399,0
		c0-0.419,0-0.813,0-1.207c0-0.77,0.289-1.06,1.054-1.06c1.574,0,3.147,0,4.722,0c0.687,0,0.994,0.311,0.997,1.003
		c0.003,0.387,0.004,0.772,0.007,1.159c0,0.026,0.02,0.052,0.037,0.1c0.22,0,0.444,0,0.669,0c0.223,0,0.447,0,0.686,0
		c0,3.779,0,7.525,0,11.286C9.603,14.604,6.421,14.604,3.227,14.604z M9.149,10.102c0.12,0,0.212,0,0.304,0
		c0.507,0,1.016,0.003,1.523,0c0.354-0.002,0.429-0.074,0.433-0.434c0.003-0.33-0.004-0.658,0.001-0.987
		c0.009-0.946,0.01-0.845-0.839-0.846c-0.469,0-0.935,0-1.424,0c0-0.651,0.004-1.262-0.001-1.875
		c-0.003-0.305-0.09-0.384-0.392-0.385C8.257,5.57,7.757,5.58,7.258,5.57C6.995,5.567,6.877,5.686,6.877,5.941
		c0,0.388,0,0.773-0.002,1.16c0,0.239,0,0.479,0,0.734c-0.653,0-1.253-0.001-1.855,0.001C4.7,7.837,4.621,7.914,4.615,8.237
		C4.609,8.596,4.618,8.953,4.614,9.311c-0.012,0.872,0.019,0.794,0.781,0.791c0.486,0,0.973,0,1.481,0
		c0,0.651-0.004,1.263,0.001,1.874c0.002,0.304,0.088,0.386,0.39,0.388c0.376,0.003,0.753,0,1.13,0c0.75,0,0.75,0,0.75-0.765
		C9.149,11.109,9.149,10.624,9.149,10.102z M5.762,3.306c1.51,0,2.993,0,4.499,0c0-0.372,0-0.734,0-1.11c-1.504,0-2.995,0-4.499,0
		C5.762,2.567,5.762,2.921,5.762,3.306z"/>
	<path fill-rule="evenodd" clip-rule="evenodd" fill="#1B779B" d="M13.698,3.339c1.156-0.121,2.147,0.685,2.202,1.815
		c0.041,0.808,0.021,1.619,0.021,2.428c0.002,1.639-0.006,3.277,0.002,4.915c0.006,0.874-0.348,1.538-1.137,1.915
		c-0.32,0.151-0.696,0.182-1.089,0.275C13.698,10.854,13.698,7.104,13.698,3.339z"/>
	<path fill-rule="evenodd" clip-rule="evenodd" fill="#1B779B" d="M2.328,14.603c-1.197,0.095-2.143-0.692-2.208-1.854
		c-0.039-0.657-0.017-1.317-0.017-1.977c-0.001-1.78,0.02-3.56-0.008-5.339C0.075,4.15,1.088,3.252,2.227,3.32
		c0.027,0.001,0.054,0.009,0.102,0.02C2.328,7.087,2.328,10.837,2.328,14.603z"/>
</g>
<g>
	<path fill-rule="evenodd" clip-rule="evenodd" fill="#F15A24" d="M19.205,14.604c0-3.762,0-7.507,0-11.281c0.464,0,0.912,0,1.399,0
		c0-0.419,0-0.813,0-1.207c0-0.77,0.289-1.06,1.054-1.06c1.574,0,3.148,0,4.723,0c0.686,0,0.994,0.311,0.996,1.003
		c0.004,0.387,0.004,0.772,0.008,1.159c0,0.026,0.02,0.052,0.037,0.1c0.219,0,0.443,0,0.668,0c0.223,0,0.447,0,0.686,0
		c0,3.779,0,7.525,0,11.286C25.582,14.604,22.4,14.604,19.205,14.604z M25.129,10.102c0.119,0,0.211,0,0.303,0
		c0.508,0,1.016,0.003,1.523,0c0.355-0.002,0.43-0.074,0.434-0.434c0.002-0.33-0.004-0.658,0-0.987
		c0.01-0.946,0.01-0.845-0.838-0.846c-0.469,0-0.936,0-1.424,0c0-0.651,0.004-1.262-0.002-1.875
		c-0.002-0.305-0.09-0.384-0.391-0.385C24.236,5.57,23.736,5.58,23.237,5.57c-0.263-0.003-0.382,0.116-0.382,0.371
		c0,0.388,0,0.773-0.002,1.16c0,0.239,0,0.479,0,0.734c-0.652,0-1.252-0.001-1.854,0.001C20.68,7.837,20.6,7.914,20.594,8.237
		c-0.006,0.358,0.003,0.716,0,1.073c-0.012,0.872,0.019,0.794,0.781,0.791c0.486,0,0.973,0,1.48,0c0,0.651-0.004,1.263,0.002,1.874
		c0.002,0.304,0.088,0.386,0.391,0.388c0.375,0.003,0.752,0,1.13,0c0.751,0,0.751,0,0.751-0.765
		C25.129,11.109,25.129,10.624,25.129,10.102z M21.74,3.306c1.511,0,2.994,0,4.5,0c0-0.372,0-0.734,0-1.11c-1.504,0-2.995,0-4.5,0
		C21.74,2.567,21.74,2.921,21.74,3.306z"/>
	<path fill-rule="evenodd" clip-rule="evenodd" fill="#F15A24" d="M29.678,3.339c1.156-0.121,2.146,0.685,2.201,1.815
		C31.92,5.962,31.9,6.773,31.9,7.582c0.002,1.639-0.006,3.277,0.002,4.915c0.006,0.874-0.348,1.538-1.137,1.915
		c-0.32,0.151-0.695,0.182-1.088,0.275C29.678,10.854,29.678,7.104,29.678,3.339z"/>
	<path fill-rule="evenodd" clip-rule="evenodd" fill="#F15A24" d="M18.307,14.603c-1.197,0.095-2.143-0.692-2.208-1.854
		c-0.038-0.657-0.017-1.317-0.017-1.977c-0.002-1.78,0.02-3.56-0.008-5.339c-0.02-1.283,0.992-2.181,2.131-2.113
		c0.027,0.001,0.055,0.009,0.102,0.02C18.307,7.087,18.307,10.837,18.307,14.603z"/>
</g>
</svg>
