<?xml version="1.0" encoding="utf-8"?>
<!-- Generator: Adobe Illustrator 16.0.3, SVG Export Plug-In . SVG Version: 6.00 Build 0)  -->
<!DOCTYPE svg PUBLIC "-//W3C//DTD SVG 1.1//EN" "http://www.w3.org/Graphics/SVG/1.1/DTD/svg11.dtd">
<svg version="1.1" id="Camada_1" xmlns="http://www.w3.org/2000/svg" xmlns:xlink="http://www.w3.org/1999/xlink" x="0px" y="0px"
	 width="32px" height="16px" viewBox="0 0 32 16" enable-background="new 0 0 32 16" xml:space="preserve">
<g>
	<path fill="#207192" d="M302.279,422.041c-0.326-0.35-0.75-0.557-1.332-0.654c-0.035-0.006-0.068-0.01-0.102-0.01
		c-0.203,0-0.365,0.111-0.557,0.24c-0.072,0.049-0.146,0.102-0.229,0.146c-0.025,0.016-0.053,0.033-0.08,0.053
		c-0.016,0.01-0.029,0.021-0.045,0.031c-0.738,0.469-1.504,0.707-2.271,0.707c-0.517,0-1.042-0.109-1.563-0.32
		c-0.375-0.152-0.719-0.375-1.051-0.588c-0.066-0.043-0.132-0.086-0.197-0.129c-0.144-0.09-0.281-0.131-0.435-0.131
		c-0.044,0-0.092,0.002-0.142,0.01c-0.782,0.115-1.346,0.533-1.725,1.277c-0.479,0.93-0.679,1.992-0.652,3.451
		c0.011,0.465,0.136,0.844,0.385,1.156c0.385,0.488,0.936,0.717,1.734,0.717c0.84,0.004,1.68,0.004,2.52,0.004
		c0.361,0,0.723,0,1.085,0h1.442c0.711,0,1.422-0.002,2.131-0.004c0.199,0,0.398-0.016,0.593-0.043
		c0.918-0.135,1.522-0.797,1.58-1.729c0.047-0.803-0.03-1.631-0.231-2.461C302.958,423.021,302.686,422.473,302.279,422.041z"/>
	<path fill="#207192" d="M297.663,415.766h-0.022c-1.688,0-3.025,1.33-3.039,3.025c-0.006,0.814,0.305,1.578,0.875,2.154
		c0.571,0.578,1.336,0.898,2.154,0.9h0.01c1.668,0,3.03-1.363,3.037-3.037C300.68,417.143,299.329,415.777,297.663,415.766z"/>
	<path fill="#207192" d="M293.65,418.129c-0.188,0.039-0.369,0.074-0.553,0.098c-0.111,0.012-0.225,0.02-0.334,0.02
		c-0.752,0-1.418-0.295-2.025-0.615c-0.1-0.053-0.188-0.08-0.266-0.08c-0.123,0-0.229,0.068-0.328,0.209
		c-0.101,0.143-0.207,0.309-0.229,0.461c-0.094,0.631-0.201,1.346-0.236,2.043c-0.035,0.699,0.313,1.121,1.008,1.221
		c0.358,0.053,0.736,0.055,1.102,0.055c0.134,0,0.273,0,0.41,0.004c0.011-0.004,0.031-0.018,0.043-0.029
		c0.529-0.59,1.193-0.928,2.02-1.031c-0.432-0.721-0.615-1.498-0.563-2.363C293.684,418.121,293.667,418.127,293.65,418.129z"/>
	<path fill="#207192" d="M304.813,417.555c-0.088,0-0.188,0.029-0.308,0.092c-0.584,0.305-1.165,0.578-1.829,0.582h-0.029
		c-0.289,0-0.578-0.033-0.854-0.066c-0.066-0.008-0.131-0.016-0.193-0.021c-0.006,0.076-0.01,0.154-0.016,0.232
		c-0.02,0.316-0.04,0.646-0.115,0.965c-0.074,0.322-0.205,0.635-0.33,0.936c-0.029,0.07-0.061,0.141-0.09,0.211
		c0.854,0.125,1.252,0.338,1.963,1.006c0.035,0.033,0.063,0.049,0.075,0.055c0.128-0.004,0.259-0.004,0.388-0.006
		c0.381-0.002,0.774-0.004,1.15-0.057c0.584-0.086,0.938-0.461,0.967-1.029c0.02-0.359,0.012-0.727-0.02-1.086
		c-0.045-0.527-0.092-1.072-0.385-1.537C305.034,417.586,304.906,417.555,304.813,417.555z"/>
	<path fill="#207192" d="M292.855,413.387c-0.039-0.002-0.078-0.002-0.117-0.002c-1.061,0-1.965,0.889-1.977,1.941v0.01
		c-0.07,1.051,0.784,1.973,1.906,2.055c0.045,0.002,0.091,0.004,0.137,0.004c1.014,0,1.893-0.85,1.959-1.898
		c0.034-0.527-0.145-1.039-0.502-1.436C293.902,413.66,293.402,413.422,292.855,413.387z"/>
	<path fill="#207192" d="M301.111,414.088c-0.346,0.395-0.516,0.898-0.479,1.416c0.074,1.043,0.956,1.891,1.966,1.891
		c0.039,0,0.077-0.002,0.114-0.004c0.56-0.037,1.087-0.293,1.448-0.705c0.337-0.385,0.506-0.869,0.473-1.361l-0.002-0.01
		c0.002-0.484-0.206-0.971-0.572-1.336c-0.377-0.379-0.888-0.596-1.4-0.596c-0.043,0-0.084,0-0.127,0.004
		C301.975,413.426,301.469,413.674,301.111,414.088z"/>
</g>
<g>
	<path fill-rule="evenodd" clip-rule="evenodd" fill="#1B779B" d="M5.121,6.233c1.892,0,3.777,0,5.693,0
		c-0.014,0.249-0.021,0.491-0.045,0.729c-0.088,0.903-0.447,1.686-1.084,2.33c-0.246,0.247-0.278,0.546-0.27,0.854
		c0.01,0.339,0.193,0.545,0.521,0.655c0.844,0.286,1.652,0.649,2.398,1.142c0.398,0.264,0.768,0.56,1.043,0.961
		c0.166,0.244,0.26,0.508,0.25,0.806c-0.002,0.165,0.01,0.332-0.014,0.494c-0.07,0.487-0.412,0.766-0.816,0.979
		c-0.629,0.337-1.32,0.47-2.02,0.563c-1.298,0.178-2.605,0.192-3.912,0.144c-1.044-0.039-2.084-0.121-3.09-0.433
		c-0.43-0.133-0.84-0.305-1.167-0.625c-0.221-0.214-0.322-0.473-0.348-0.776c-0.048-0.574,0.1-1.068,0.523-1.468
		c0.162-0.153,0.326-0.306,0.504-0.44c0.784-0.589,1.657-1.009,2.573-1.34c0.542-0.195,0.75-0.671,0.563-1.215
		C6.397,9.517,6.341,9.441,6.284,9.38C5.871,8.946,5.513,8.474,5.345,7.893C5.238,7.527,5.183,7.145,5.126,6.769
		C5.1,6.597,5.121,6.42,5.121,6.233z"/>
	<path fill-rule="evenodd" clip-rule="evenodd" fill="#1B779B" d="M7.285,3.841c0-0.8-0.003-2.406,0-3.209
		c0-0.41,0.134-0.547,0.544-0.545c0.152,0,0.304-0.001,0.454,0.018c0.176,0.024,0.279,0.139,0.305,0.313
		c0.014,0.076,0.02,0.156,0.02,0.234C8.61,1.44,8.61,2.229,8.61,3.018c0,0.062,0,0.122,0,0.182C8.623,3.204,8.553,3.897,8.564,3.9
		c0.049-0.235,0.893-2.076,1.031-2.561C9.66,1.108,9.684,1.108,9.904,1.192c1.174,0.451,1.516,0.96,1.77,2.209
		c0.031,0.154,0.043,0.313,0.047,0.47c0.002,0.123,0.053,0.201,0.164,0.224c0.504,0.097,0.65,0.463,0.693,0.911
		c0.01,0.105,0.018,0.213,0.027,0.337c-3.104,0-6.199,0-9.309,0c0.003-0.329,0.024-0.65,0.205-0.938
		c0.101-0.164,0.264-0.242,0.443-0.286c0.159-0.04,0.223-0.122,0.232-0.295c0.065-1.371,0.641-2.419,1.956-2.832
		c0.133-0.045,0.179,0.021,0.207,0.118C6.464,1.564,7.285,3.897,7.285,3.841z"/>
</g>
<g>
	<g>
		<path fill-rule="evenodd" clip-rule="evenodd" fill="#F15A24" d="M21.121,6.233c1.893,0,3.777,0,5.693,0
			c-0.014,0.249-0.021,0.491-0.045,0.729c-0.088,0.903-0.447,1.686-1.084,2.33c-0.246,0.247-0.278,0.546-0.27,0.854
			c0.01,0.339,0.193,0.545,0.521,0.655c0.844,0.286,1.652,0.649,2.398,1.142c0.398,0.264,0.768,0.56,1.043,0.961
			c0.166,0.244,0.26,0.508,0.25,0.806c-0.002,0.165,0.01,0.332-0.014,0.494c-0.07,0.487-0.412,0.766-0.816,0.979
			c-0.629,0.337-1.32,0.47-2.02,0.563c-1.298,0.178-2.605,0.192-3.912,0.144c-1.044-0.039-2.084-0.121-3.09-0.433
			c-0.43-0.133-0.84-0.305-1.168-0.625c-0.221-0.214-0.322-0.473-0.348-0.776c-0.049-0.574,0.1-1.068,0.523-1.468
			c0.162-0.153,0.326-0.306,0.504-0.44c0.783-0.589,1.656-1.009,2.572-1.34c0.543-0.195,0.75-0.671,0.564-1.215
			c-0.029-0.077-0.084-0.152-0.143-0.214c-0.412-0.434-0.77-0.906-0.938-1.487c-0.106-0.366-0.162-0.748-0.219-1.125
			C21.1,6.597,21.121,6.42,21.121,6.233z"/>
		<path fill-rule="evenodd" clip-rule="evenodd" fill="#F15A24" d="M23.285,3.841c0-0.8-0.004-2.406,0-3.209
			c0-0.41,0.135-0.547,0.545-0.545c0.151,0,0.304-0.001,0.453,0.018c0.176,0.024,0.279,0.139,0.305,0.313
			c0.014,0.076,0.02,0.156,0.02,0.234C24.61,1.44,24.61,2.229,24.61,3.018c0,0.062,0,0.122,0,0.182
			c0.013,0.004-0.058,0.698-0.046,0.701c0.049-0.235,0.893-2.076,1.031-2.561c0.064-0.231,0.088-0.231,0.309-0.147
			c1.174,0.451,1.516,0.96,1.77,2.209c0.031,0.154,0.043,0.313,0.047,0.47c0.002,0.123,0.053,0.201,0.164,0.224
			c0.504,0.097,0.65,0.463,0.693,0.911c0.01,0.105,0.018,0.213,0.027,0.337c-3.104,0-6.199,0-9.309,0
			c0.002-0.329,0.023-0.65,0.204-0.938c0.101-0.164,0.265-0.242,0.442-0.286c0.16-0.04,0.223-0.122,0.232-0.295
			c0.065-1.371,0.641-2.419,1.956-2.832c0.134-0.045,0.179,0.021,0.206,0.118C22.465,1.564,23.285,3.897,23.285,3.841z"/>
	</g>
</g>
</svg>
