<?xml version="1.0" encoding="utf-8"?>
<!-- Generator: Adobe Illustrator 16.0.3, SVG Export Plug-In . SVG Version: 6.00 Build 0)  -->
<!DOCTYPE svg PUBLIC "-//W3C//DTD SVG 1.1//EN" "http://www.w3.org/Graphics/SVG/1.1/DTD/svg11.dtd">
<svg version="1.1" id="Camada_1" xmlns="http://www.w3.org/2000/svg" xmlns:xlink="http://www.w3.org/1999/xlink" x="0px" y="0px"
	 width="32px" height="16px" viewBox="0 0 32 16" enable-background="new 0 0 32 16" xml:space="preserve">
<g>
	<path fill="#207192" d="M302.279,422.041c-0.326-0.35-0.75-0.557-1.332-0.654c-0.035-0.006-0.068-0.01-0.102-0.01
		c-0.203,0-0.365,0.111-0.557,0.24c-0.072,0.049-0.146,0.102-0.229,0.146c-0.025,0.016-0.053,0.033-0.08,0.053
		c-0.016,0.01-0.029,0.021-0.045,0.031c-0.738,0.469-1.504,0.707-2.271,0.707c-0.517,0-1.042-0.109-1.563-0.32
		c-0.375-0.152-0.719-0.375-1.051-0.588c-0.066-0.043-0.132-0.086-0.197-0.129c-0.144-0.09-0.281-0.131-0.435-0.131
		c-0.044,0-0.092,0.002-0.142,0.01c-0.782,0.115-1.346,0.533-1.725,1.277c-0.479,0.93-0.679,1.992-0.652,3.451
		c0.011,0.465,0.136,0.844,0.385,1.156c0.385,0.488,0.936,0.717,1.734,0.717c0.84,0.004,1.68,0.004,2.52,0.004
		c0.361,0,0.723,0,1.085,0h1.442c0.711,0,1.422-0.002,2.131-0.004c0.199,0,0.398-0.016,0.593-0.043
		c0.918-0.135,1.522-0.797,1.58-1.729c0.047-0.803-0.03-1.631-0.231-2.461C302.958,423.021,302.686,422.473,302.279,422.041z"/>
	<path fill="#207192" d="M297.663,415.766h-0.022c-1.688,0-3.025,1.33-3.039,3.025c-0.006,0.814,0.305,1.578,0.875,2.154
		c0.571,0.578,1.336,0.898,2.154,0.9h0.01c1.668,0,3.03-1.363,3.037-3.037C300.68,417.143,299.329,415.777,297.663,415.766z"/>
	<path fill="#207192" d="M293.65,418.129c-0.188,0.039-0.369,0.074-0.553,0.098c-0.111,0.012-0.225,0.02-0.334,0.02
		c-0.752,0-1.418-0.295-2.025-0.615c-0.1-0.053-0.188-0.08-0.266-0.08c-0.123,0-0.229,0.068-0.328,0.209
		c-0.101,0.143-0.207,0.309-0.229,0.461c-0.094,0.631-0.201,1.346-0.236,2.043c-0.035,0.699,0.313,1.121,1.008,1.221
		c0.358,0.053,0.736,0.055,1.102,0.055c0.134,0,0.273,0,0.41,0.004c0.011-0.004,0.031-0.018,0.043-0.029
		c0.529-0.59,1.193-0.928,2.02-1.031c-0.432-0.721-0.615-1.498-0.563-2.363C293.684,418.121,293.667,418.127,293.65,418.129z"/>
	<path fill="#207192" d="M304.813,417.555c-0.088,0-0.188,0.029-0.308,0.092c-0.584,0.305-1.165,0.578-1.829,0.582h-0.029
		c-0.289,0-0.578-0.033-0.854-0.066c-0.066-0.008-0.131-0.016-0.193-0.021c-0.006,0.076-0.01,0.154-0.016,0.232
		c-0.02,0.316-0.04,0.646-0.115,0.965c-0.074,0.322-0.205,0.635-0.33,0.936c-0.029,0.07-0.061,0.141-0.09,0.211
		c0.854,0.125,1.252,0.338,1.963,1.006c0.035,0.033,0.063,0.049,0.075,0.055c0.128-0.004,0.259-0.004,0.388-0.006
		c0.381-0.002,0.774-0.004,1.15-0.057c0.584-0.086,0.938-0.461,0.967-1.029c0.02-0.359,0.012-0.727-0.02-1.086
		c-0.045-0.527-0.092-1.072-0.385-1.537C305.034,417.586,304.906,417.555,304.813,417.555z"/>
	<path fill="#207192" d="M292.855,413.387c-0.039-0.002-0.078-0.002-0.117-0.002c-1.061,0-1.965,0.889-1.977,1.941v0.01
		c-0.07,1.051,0.784,1.973,1.906,2.055c0.045,0.002,0.091,0.004,0.137,0.004c1.014,0,1.893-0.85,1.959-1.898
		c0.034-0.527-0.145-1.039-0.502-1.436C293.902,413.66,293.402,413.422,292.855,413.387z"/>
	<path fill="#207192" d="M301.111,414.088c-0.346,0.395-0.516,0.898-0.479,1.416c0.074,1.043,0.956,1.891,1.966,1.891
		c0.039,0,0.077-0.002,0.114-0.004c0.56-0.037,1.087-0.293,1.448-0.705c0.337-0.385,0.506-0.869,0.473-1.361l-0.002-0.01
		c0.002-0.484-0.206-0.971-0.572-1.336c-0.377-0.379-0.888-0.596-1.4-0.596c-0.043,0-0.084,0-0.127,0.004
		C301.975,413.426,301.469,413.674,301.111,414.088z"/>
</g>
<g>
	<path fill-rule="evenodd" clip-rule="evenodd" fill="#1D7191" d="M12.62,9.341c-0.327-0.348-0.747-0.555-1.326-0.652
		c-0.034-0.007-0.067-0.01-0.101-0.01c-0.2,0-0.362,0.112-0.552,0.238c-0.072,0.051-0.146,0.102-0.227,0.147
		c-0.025,0.016-0.052,0.033-0.079,0.052c-0.016,0.01-0.031,0.021-0.045,0.03C9.556,9.613,8.796,9.849,8.032,9.849
		c-0.512,0-1.035-0.107-1.553-0.316C6.106,9.38,5.765,9.16,5.435,8.945C5.369,8.904,5.304,8.861,5.239,8.82
		C5.096,8.73,4.959,8.689,4.807,8.689c-0.044,0-0.093,0.004-0.141,0.01C3.889,8.813,3.328,9.23,2.952,9.969
		c-0.475,0.924-0.675,1.982-0.648,3.431c0.01,0.463,0.135,0.84,0.381,1.15c0.384,0.484,0.932,0.711,1.726,0.714
		c0.834,0.003,1.668,0.002,2.503,0.001c0.36,0,0.721,0,1.079,0h1.436c0.706,0,1.413,0,2.118-0.004c0.197,0,0.395-0.014,0.586-0.042
		c0.914-0.135,1.517-0.792,1.572-1.717c0.046-0.798-0.032-1.621-0.231-2.446C13.293,10.313,13.022,9.77,12.62,9.341z"/>
	<path fill-rule="evenodd" clip-rule="evenodd" fill="#1D7191" d="M8.029,3.104H8.008c-1.679,0-3.006,1.32-3.021,3.007
		C4.981,6.918,5.289,7.678,5.855,8.251c0.569,0.574,1.33,0.893,2.143,0.896h0.011c1.658,0,3.011-1.355,3.017-3.02
		C11.03,4.471,9.686,3.114,8.029,3.104z"/>
	<path fill-rule="evenodd" clip-rule="evenodd" fill="#1D7191" d="M4.042,5.451C3.854,5.49,3.677,5.525,3.492,5.548
		C3.384,5.56,3.271,5.567,3.16,5.567c-0.747,0-1.408-0.294-2.011-0.612c-0.1-0.052-0.189-0.078-0.267-0.078
		c-0.121,0-0.226,0.067-0.324,0.206c-0.102,0.142-0.206,0.308-0.228,0.46C0.237,6.17,0.13,6.878,0.096,7.575
		C0.061,8.269,0.407,8.688,1.098,8.789c0.356,0.05,0.73,0.052,1.095,0.053c0.133,0,0.271,0,0.408,0.003
		c0.01-0.003,0.03-0.017,0.043-0.028c0.526-0.587,1.185-0.924,2.005-1.024c-0.428-0.718-0.611-1.49-0.558-2.35
		C4.075,5.445,4.059,5.448,4.042,5.451z"/>
	<path fill-rule="evenodd" clip-rule="evenodd" fill="#1D7191" d="M15.135,4.88c-0.084,0-0.185,0.03-0.303,0.091
		c-0.581,0.304-1.157,0.577-1.818,0.581h-0.027c-0.291,0-0.575-0.035-0.853-0.067c-0.063-0.007-0.128-0.015-0.19-0.023
		c-0.005,0.076-0.01,0.153-0.016,0.232c-0.019,0.316-0.038,0.642-0.113,0.958c-0.075,0.322-0.205,0.631-0.329,0.931
		c-0.03,0.069-0.06,0.139-0.088,0.21c0.847,0.124,1.243,0.335,1.95,0.999c0.035,0.033,0.063,0.05,0.073,0.053
		c0.129-0.002,0.258-0.003,0.387-0.003c0.379-0.004,0.77-0.006,1.143-0.058c0.581-0.085,0.933-0.458,0.961-1.022
		c0.018-0.358,0.011-0.722-0.019-1.079c-0.046-0.525-0.092-1.068-0.381-1.528C15.356,4.912,15.229,4.88,15.135,4.88z"/>
	<path fill-rule="evenodd" clip-rule="evenodd" fill="#1D7191" d="M3.252,0.737C3.214,0.736,3.174,0.735,3.135,0.735
		c-1.053,0-1.954,0.882-1.964,1.929v0.009C1.1,3.718,1.95,4.634,3.067,4.717c0.044,0.002,0.089,0.004,0.134,0.004
		c1.007,0,1.88-0.846,1.948-1.886c0.034-0.527-0.144-1.034-0.5-1.428C4.291,1.01,3.795,0.773,3.252,0.737z"/>
	<path fill-rule="evenodd" clip-rule="evenodd" fill="#1D7191" d="M11.457,1.434c-0.343,0.394-0.511,0.894-0.474,1.408
		c0.072,1.038,0.95,1.879,1.952,1.879c0.038,0,0.076,0,0.113-0.002c0.557-0.036,1.08-0.292,1.439-0.702
		c0.336-0.383,0.503-0.863,0.469-1.353V2.653c0.001-0.479-0.206-0.963-0.568-1.328c-0.376-0.376-0.883-0.591-1.394-0.591
		c-0.042,0-0.084,0.001-0.125,0.003C12.315,0.776,11.813,1.024,11.457,1.434z"/>
</g>
<g>
	<g>
		<path fill-rule="evenodd" clip-rule="evenodd" fill="#F15A24" d="M28.606,9.341c-0.327-0.348-0.747-0.555-1.326-0.652
			c-0.034-0.007-0.067-0.01-0.101-0.01c-0.2,0-0.362,0.112-0.552,0.238c-0.072,0.051-0.146,0.102-0.227,0.147
			c-0.025,0.016-0.052,0.033-0.079,0.052c-0.016,0.01-0.031,0.021-0.045,0.03c-0.735,0.467-1.495,0.702-2.259,0.702
			c-0.513,0-1.035-0.107-1.553-0.316c-0.373-0.152-0.715-0.372-1.044-0.587c-0.066-0.041-0.132-0.084-0.197-0.125
			c-0.143-0.09-0.279-0.131-0.432-0.131c-0.044,0-0.092,0.004-0.141,0.01c-0.777,0.114-1.338,0.531-1.714,1.27
			c-0.475,0.924-0.675,1.982-0.648,3.431c0.01,0.463,0.136,0.84,0.381,1.15c0.384,0.484,0.933,0.711,1.726,0.714
			c0.834,0.003,1.668,0.002,2.503,0.001c0.36,0,0.721,0,1.079,0h1.436c0.706,0,1.413,0,2.118-0.004c0.197,0,0.395-0.014,0.586-0.042
			c0.914-0.135,1.517-0.792,1.572-1.717c0.046-0.798-0.032-1.621-0.231-2.446C29.279,10.313,29.009,9.77,28.606,9.341z"/>
		<path fill-rule="evenodd" clip-rule="evenodd" fill="#F15A24" d="M24.016,3.104h-0.021c-1.68,0-3.006,1.32-3.021,3.007
			c-0.006,0.808,0.303,1.568,0.869,2.141c0.568,0.574,1.33,0.893,2.143,0.896h0.011c1.658,0,3.011-1.355,3.017-3.02
			C27.017,4.471,25.672,3.114,24.016,3.104z"/>
		<path fill-rule="evenodd" clip-rule="evenodd" fill="#F15A24" d="M20.028,5.451c-0.188,0.039-0.365,0.074-0.55,0.097
			c-0.108,0.012-0.221,0.02-0.332,0.02c-0.747,0-1.408-0.294-2.012-0.612c-0.1-0.052-0.188-0.078-0.266-0.078
			c-0.121,0-0.227,0.067-0.324,0.206c-0.102,0.142-0.205,0.308-0.229,0.46c-0.094,0.627-0.2,1.335-0.234,2.032
			c-0.035,0.694,0.312,1.114,1.002,1.214c0.355,0.05,0.73,0.052,1.095,0.053c0.134,0,0.271,0,0.407,0.003
			c0.01-0.003,0.031-0.017,0.044-0.028c0.526-0.587,1.185-0.924,2.005-1.024c-0.428-0.718-0.611-1.49-0.558-2.35
			C20.061,5.445,20.045,5.448,20.028,5.451z"/>
		<path fill-rule="evenodd" clip-rule="evenodd" fill="#F15A24" d="M31.121,4.88c-0.084,0-0.185,0.03-0.303,0.091
			C30.237,5.275,29.661,5.548,29,5.552h-0.027c-0.291,0-0.575-0.035-0.853-0.067c-0.063-0.007-0.128-0.015-0.19-0.023
			c-0.005,0.076-0.01,0.153-0.016,0.232c-0.019,0.316-0.038,0.642-0.113,0.958c-0.075,0.322-0.205,0.631-0.329,0.931
			c-0.03,0.069-0.06,0.139-0.088,0.21c0.847,0.124,1.243,0.335,1.95,0.999c0.035,0.033,0.063,0.05,0.073,0.053
			c0.129-0.002,0.258-0.003,0.387-0.003c0.379-0.004,0.77-0.006,1.143-0.058c0.581-0.085,0.933-0.458,0.961-1.022
			c0.018-0.358,0.011-0.722-0.019-1.079c-0.046-0.525-0.092-1.068-0.381-1.528C31.343,4.912,31.216,4.88,31.121,4.88z"/>
		<path fill-rule="evenodd" clip-rule="evenodd" fill="#F15A24" d="M19.238,0.737C19.2,0.736,19.16,0.735,19.121,0.735
			c-1.053,0-1.953,0.882-1.965,1.929v0.009c-0.07,1.044,0.78,1.96,1.896,2.043c0.045,0.002,0.09,0.004,0.135,0.004
			c1.007,0,1.881-0.846,1.947-1.886c0.034-0.527-0.144-1.034-0.499-1.428C20.277,1.01,19.781,0.773,19.238,0.737z"/>
		<path fill-rule="evenodd" clip-rule="evenodd" fill="#F15A24" d="M27.443,1.434c-0.343,0.394-0.511,0.894-0.474,1.408
			c0.072,1.038,0.95,1.879,1.952,1.879c0.038,0,0.076,0,0.113-0.002c0.557-0.036,1.08-0.292,1.439-0.702
			c0.336-0.383,0.503-0.863,0.469-1.353V2.653c0.001-0.479-0.206-0.963-0.568-1.328c-0.376-0.376-0.883-0.591-1.394-0.591
			c-0.042,0-0.084,0.001-0.125,0.003C28.302,0.776,27.8,1.024,27.443,1.434z"/>
	</g>
</g>
</svg>
