<?xml version="1.0" encoding="utf-8"?>
<!-- Generator: Adobe Illustrator 16.0.3, SVG Export Plug-In . SVG Version: 6.00 Build 0)  -->
<!DOCTYPE svg PUBLIC "-//W3C//DTD SVG 1.1//EN" "http://www.w3.org/Graphics/SVG/1.1/DTD/svg11.dtd">
<svg version="1.1" id="Camada_1" xmlns="http://www.w3.org/2000/svg" xmlns:xlink="http://www.w3.org/1999/xlink" x="0px" y="0px"
	 width="595.28px" height="841.89px" viewBox="0 0 595.28 841.89" enable-background="new 0 0 595.28 841.89" xml:space="preserve">
<g>
	<g>
		<path fill-rule="evenodd" clip-rule="evenodd" fill="#207192" d="M375.439,393.054l16.587-16.661
			c-4.413-5.99-9.8-12.088-16.03-18.146l-17.127,16.781C365.174,380.998,370.741,387.054,375.439,393.054z"/>
		<path fill-rule="evenodd" clip-rule="evenodd" fill="#207192" d="M347.259,323.719l21.387-19.751
			c-0.217-0.143-0.426-0.278-0.64-0.417c-8.483,4.492-17.456,9.96-26.729,16.303C343.089,320.99,345.097,322.281,347.259,323.719z"
			/>
		<path fill-rule="evenodd" clip-rule="evenodd" fill="#207192" d="M369.393,352.117c-6.473-5.744-13.652-11.409-21.364-16.858
			l-17.972,16.598c7.92,5.478,15.356,11.229,22.132,17.117L369.393,352.117z"/>
		<path fill-rule="evenodd" clip-rule="evenodd" fill="#207192" d="M300.96,378.729c8.296,5.688,16.108,11.622,23.247,17.661
			l21.459-21.026c-6.845-5.899-14.39-11.676-22.45-17.19L300.96,378.729z"/>
		<path fill-rule="evenodd" clip-rule="evenodd" fill="#207192" d="M322.355,346.718l18.042-16.663
			c-2.73-1.795-5.148-3.314-7.154-4.542c-6.597,4.783-13.313,9.98-20.088,15.561C315.315,342.331,318.497,344.236,322.355,346.718z"
			/>
		<path fill-rule="evenodd" clip-rule="evenodd" fill="#207192" d="M289.272,430.618c-9.23-7.989-18.401-14.254-24.738-18.249
			l-1.623,1.499c-1.378,12.577-5.037,38.852-5.037,38.852l-0.678,9.267L289.272,430.618z"/>
		<path fill-rule="evenodd" clip-rule="evenodd" fill="#207192" d="M383.034,302.929c7.312,5.364,13.909,10.934,19.64,16.578
			l26.14-25.61c-7.059-6.033-19.031-6.298-34.139-1.719L383.034,302.929z"/>
		<path fill-rule="evenodd" clip-rule="evenodd" fill="#207192" d="M403.683,377.44c0.833,1.31,1.621,2.62,2.376,3.931
			c3.929-5.83,7.499-11.532,10.698-17.063L403.683,377.44z"/>
		<path fill-rule="evenodd" clip-rule="evenodd" fill="#207192" d="M374.299,406.956l-20.404,20.498
			c2.438,3.355,4.596,6.699,6.496,10.02c6.771-7.098,13.173-14.221,19.167-21.298C378.054,413.122,376.303,410.041,374.299,406.956z
			"/>
		<path fill-rule="evenodd" clip-rule="evenodd" fill="#207192" d="M397.148,384.004l-16.348,16.421
			c1.838,2.738,3.497,5.482,4.991,8.219c5.196-6.414,10.048-12.768,14.518-19.008C399.349,387.766,398.296,385.886,397.148,384.004z
			"/>
		<path fill-rule="evenodd" clip-rule="evenodd" fill="#207192" d="M286.336,379.984c-4.741-3.019-8.13-4.993-9.445-5.745
			c-4.165,4.205-8.206,8.426-12.112,12.65c-0.107,4.411-0.332,8.954-0.661,13.613L286.336,379.984z"/>
		<path fill-rule="evenodd" clip-rule="evenodd" fill="#207192" d="M382.491,351.883c6.101,5.965,11.47,12.025,15.979,18.036
			l17.375-17.454c-2.93-6.574-7.443-13.331-13.432-20.103L382.491,351.883z"/>
		<path fill-rule="evenodd" clip-rule="evenodd" fill="#207192" d="M408.88,326.027c7.021,7.912,12.241,15.891,15.596,23.765
			c9.843-20.412,13.498-37.484,9.486-48.341L408.88,326.027z"/>
		<path fill-rule="evenodd" clip-rule="evenodd" fill="#207192" d="M376.239,309.204l-21.387,19.751
			c7.577,5.413,14.651,11.05,21.056,16.777l20.297-19.888C390.449,320.208,383.74,314.617,376.239,309.204z"/>
		<path fill-rule="evenodd" clip-rule="evenodd" fill="#207192" d="M369.006,399.517c-4.641-6.008-10.23-12.098-16.635-18.123
			l-21.384,20.952c6.546,5.976,12.366,12.008,17.327,17.956L369.006,399.517z"/>
		<path fill-rule="evenodd" clip-rule="evenodd" fill="#207192" d="M347.433,433.943l-23.859,23.967
			c0.569,1.115,1.098,2.23,1.596,3.345c4.329-0.466,8.387-0.798,12.003-0.948c4.951-4.565,9.899-9.314,14.821-14.236
			c0.618-0.617,1.229-1.236,1.841-1.855C352.026,440.835,349.896,437.404,347.433,433.943z"/>
		<path fill-rule="evenodd" clip-rule="evenodd" fill="#207192" d="M324.462,408.739l-22.069,21.624
			c6.636,6.465,12.169,13.022,16.473,19.521l23.027-23.133C336.979,420.823,331.121,414.769,324.462,408.739z"/>
		<path fill-rule="evenodd" clip-rule="evenodd" fill="#207192" d="M293.243,373.605l22.235-20.535
			c-5.91-3.755-9.628-5.79-9.666-5.811l-0.004-0.002c-7.409,6.37-14.857,13.18-22.265,20.386
			C285.695,368.898,289.057,370.914,293.243,373.605z"/>
		<path fill-rule="evenodd" clip-rule="evenodd" fill="#207192" d="M295.766,424.256l21.887-21.444
			c-7.198-6.034-15.119-11.993-23.571-17.73L271.4,406.028C277.735,410.098,286.728,416.355,295.766,424.256z"/>
		<path fill-rule="evenodd" clip-rule="evenodd" fill="#207192" d="M305.152,463.658l7.207-7.239
			c-4.101-6.495-9.623-13.121-16.435-19.718l-33.048,32.309c9.788-2.064,24.622-2.27,42.545-5.083L305.152,463.658z"/>
	</g>
	<g>
		<path fill-rule="evenodd" clip-rule="evenodd" fill="#207192" d="M237.543,476.693c11.19-45.422,25.846-108.115,10.032-149.279
			c-12.319,19.294-31.488,57.736-45.559,95.673c-11.032,29.744-17.302,54.52-18.552,72.43
			C183.13,495.643,237.831,476.615,237.543,476.693z"/>
	</g>
	<path fill-rule="evenodd" clip-rule="evenodd" fill="#207192" d="M397.448,475.164c-13.329-5.363-30.153-3.815-50.126-3.815
		c-67.918,0-152.178,31.671-164.045,36.232c-8.019,41.273,35.818,42.053,43.573,42.053
		C273.233,549.634,365.894,496.873,397.448,475.164z"/>
</g>
</svg>
