<?xml version="1.0" encoding="utf-8"?>
<!-- Generator: Adobe Illustrator 16.0.3, SVG Export Plug-In . SVG Version: 6.00 Build 0)  -->
<!DOCTYPE svg PUBLIC "-//W3C//DTD SVG 1.1//EN" "http://www.w3.org/Graphics/SVG/1.1/DTD/svg11.dtd">
<svg version="1.1" id="Camada_1" xmlns="http://www.w3.org/2000/svg" xmlns:xlink="http://www.w3.org/1999/xlink" x="0px" y="0px"
	 width="16px" height="16px" viewBox="0 0 16 16" enable-background="new 0 0 16 16" xml:space="preserve">
<g>
	<g>
		<path fill="#727272" d="M10.459,12.205c-0.052,0.044,0.021,0.999,0.021,0.999l-1.557,2.311l-1.573-1.342l0.489-0.774l0.78-0.587
			l-0.318-0.585l0.054-0.471l-0.131-0.188l-1.31-0.718l0.21-1.35H6.081L5.924,7.986c0,0-1.656-1.279-1.654-1.34
			C4.273,6.585,4.255,5.5,4.255,5.5H3.864L3.143,6.318L2.338,6.463L1.115,5.337l0.63-1.015l0.799-0.149l0.229-1.212L2.57,2.65
			l1.045-0.709l0.428,0.362l0.941-0.518l-0.424-0.7l1.68-0.307l0.177,0.377L6.241,1.693l0.313,0.405l2.187-0.32l0.619-0.783
			l0.687,1.075L9.859,2.451l1.254,0.41l2.048,0.856l0.507-0.055l1.655,0.874l0.112,1.24l-1.42,1.87l-0.053,1.244L12.88,11.11
			l-2.376,1.088"/>
	</g>
</g>
</svg>
