<?xml version="1.0" encoding="utf-8"?>
<!-- Generator: Adobe Illustrator 16.0.0, SVG Export Plug-In . SVG Version: 6.00 Build 0)  -->
<!DOCTYPE svg PUBLIC "-//W3C//DTD SVG 1.1//EN" "http://www.w3.org/Graphics/SVG/1.1/DTD/svg11.dtd">
<svg version="1.1" id="Camada_1" xmlns="http://www.w3.org/2000/svg" xmlns:xlink="http://www.w3.org/1999/xlink" x="0px" y="0px"
	 width="32px" height="16px" viewBox="0 0 32 16" enable-background="new 0 0 32 16" xml:space="preserve">
<g>
	<path fill-rule="evenodd" clip-rule="evenodd" fill="#1B779B" d="M1.114,8.995C0.891,8.928,0.679,8.895,0.496,8.803
		C0.117,8.611-0.062,8.183,0.019,7.75c0.074-0.394,0.414-0.715,0.823-0.772c0.078-0.011,0.157-0.015,0.234-0.015
		c4.579,0,9.157,0,13.736-0.001c0.447,0,0.783,0.173,0.988,0.578c0.285,0.566-0.112,1.309-0.741,1.387
		c-0.09,0.011-0.18,0.021-0.279,0.031c-0.076,0.443-0.153,0.886-0.229,1.328c-0.216,1.251-0.432,2.501-0.652,3.752
		c-0.098,0.557-0.482,0.871-1.049,0.871c-3.271,0-6.54,0-9.811,0c-0.574,0-0.958-0.333-1.055-0.897
		c-0.278-1.612-0.559-3.225-0.839-4.837C1.132,9.104,1.121,9.035,1.114,8.995z M2.977,9.498c0.033,0.433,0.065,0.866,0.1,1.3
		c0.049,0.64,0.097,1.278,0.15,1.918c0.019,0.232,0.193,0.417,0.413,0.452s0.443-0.074,0.526-0.285
		c0.042-0.106,0.054-0.234,0.046-0.35c-0.075-1.031-0.158-2.062-0.238-3.094C3.948,9.139,3.727,8.932,3.444,8.947
		C3.163,8.963,2.966,9.195,2.977,9.498z M12.912,9.503c0.011-0.304-0.183-0.536-0.462-0.556c-0.288-0.02-0.511,0.189-0.534,0.499
		c-0.027,0.359-0.058,0.718-0.085,1.076c-0.054,0.697-0.111,1.395-0.159,2.092c-0.021,0.304,0.183,0.538,0.46,0.558
		c0.289,0.02,0.509-0.188,0.534-0.5c0.027-0.359,0.057-0.718,0.084-1.077C12.805,10.898,12.858,10.201,12.912,9.503z M8.937,11.057
		c0,0.508,0.014,1.018-0.004,1.525c-0.013,0.369,0.244,0.587,0.499,0.589c0.254,0.001,0.526-0.212,0.504-0.597
		c-0.018-0.317-0.003-0.637-0.003-0.955c0-0.716-0.001-1.431,0-2.146c0-0.203-0.085-0.36-0.26-0.461
		C9.344,8.822,8.94,9.064,8.938,9.455C8.934,9.989,8.937,10.522,8.937,11.057z M5.956,11.047c0,0.538-0.001,1.074,0.001,1.612
		c0.001,0.233,0.146,0.43,0.351,0.486c0.337,0.096,0.642-0.137,0.643-0.499c0.003-1.059,0.001-2.117,0-3.176
		c0-0.045-0.002-0.092-0.014-0.135c-0.062-0.254-0.29-0.413-0.546-0.387C6.157,8.975,5.958,9.195,5.957,9.446
		C5.955,9.98,5.956,10.513,5.956,11.047z"/>
	<path fill-rule="evenodd" clip-rule="evenodd" fill="#1B779B" d="M5.948,2.496c-0.476,0-0.952-0.022-1.425,0.006
		c-0.415,0.026-0.744,0.365-0.843,0.8C3.468,4.233,3.26,5.163,3.05,6.095c-0.027,0.12-0.056,0.24-0.084,0.362
		c-0.336,0-0.666,0-1.005,0C1.962,6.427,1.959,6.4,1.964,6.374c0.262-1.14,0.518-2.282,0.789-3.419
		C2.954,2.123,3.72,1.518,4.579,1.5c0.409-0.008,0.819-0.003,1.229-0.003c0.045,0,0.09,0,0.109,0C5.983,1.374,6.028,1.259,6.1,1.162
		c0.082-0.11,0.208-0.161,0.348-0.161C7.445,1,8.442,0.999,9.44,1.001c0.258,0.001,0.432,0.176,0.499,0.496c0.045,0,0.093,0,0.142,0
		c0.475,0.007,0.953-0.015,1.425,0.027c0.768,0.067,1.444,0.659,1.622,1.406c0.277,1.15,0.534,2.304,0.798,3.456
		c0.004,0.019,0.003,0.041,0.004,0.07c-0.336,0-0.669,0-1.01,0c-0.102-0.448-0.204-0.894-0.305-1.341
		c-0.135-0.601-0.269-1.201-0.405-1.801C12.094,2.8,11.706,2.49,11.18,2.489c-0.414-0.001-0.827,0-1.238,0
		c-0.088,0.373-0.244,0.496-0.62,0.496c-0.92,0-1.838,0-2.756,0C6.189,2.985,6.034,2.862,5.948,2.496z"/>
</g>
<g>
	<path fill-rule="evenodd" clip-rule="evenodd" fill="#F15A24" d="M17.221,8.995c-0.223-0.067-0.436-0.101-0.617-0.192
		c-0.379-0.191-0.559-0.62-0.478-1.053c0.074-0.394,0.414-0.715,0.823-0.772c0.077-0.011,0.156-0.015,0.234-0.015
		c4.578,0,9.156,0,13.735-0.001c0.446,0,0.783,0.173,0.987,0.578c0.285,0.566-0.111,1.309-0.74,1.387
		c-0.09,0.011-0.18,0.021-0.279,0.031c-0.076,0.443-0.153,0.886-0.229,1.328c-0.216,1.251-0.432,2.501-0.652,3.752
		c-0.099,0.557-0.482,0.871-1.05,0.871c-3.27,0-6.539,0-9.811,0c-0.573,0-0.957-0.333-1.055-0.897
		c-0.277-1.612-0.559-3.225-0.838-4.837C17.239,9.104,17.229,9.035,17.221,8.995z M19.084,9.498c0.032,0.433,0.064,0.866,0.1,1.3
		c0.049,0.64,0.096,1.278,0.149,1.918c0.019,0.232,0.193,0.417,0.413,0.452c0.219,0.035,0.442-0.074,0.525-0.285
		c0.042-0.106,0.055-0.234,0.047-0.35c-0.076-1.031-0.158-2.062-0.238-3.094c-0.025-0.301-0.246-0.508-0.529-0.492
		C19.27,8.963,19.072,9.195,19.084,9.498z M29.019,9.503c0.011-0.304-0.183-0.536-0.462-0.556c-0.287-0.02-0.511,0.189-0.533,0.499
		c-0.027,0.359-0.059,0.718-0.086,1.076c-0.054,0.697-0.111,1.395-0.158,2.092c-0.021,0.304,0.182,0.538,0.46,0.558
		c0.288,0.02,0.509-0.188,0.534-0.5c0.027-0.359,0.057-0.718,0.084-1.077C28.912,10.898,28.965,10.201,29.019,9.503z M25.043,11.057
		c0,0.508,0.014,1.018-0.004,1.525c-0.012,0.369,0.244,0.587,0.499,0.589c0.255,0.001,0.526-0.212,0.504-0.597
		c-0.018-0.317-0.003-0.637-0.003-0.955c0-0.716-0.001-1.431,0-2.146c0-0.203-0.086-0.36-0.26-0.461
		c-0.328-0.189-0.732,0.053-0.734,0.443C25.041,9.989,25.043,10.522,25.043,11.057z M22.062,11.047c0,0.538-0.001,1.074,0.002,1.612
		c0.001,0.233,0.146,0.43,0.35,0.486c0.338,0.096,0.643-0.137,0.643-0.499c0.004-1.059,0.002-2.117,0-3.176
		c0-0.045-0.002-0.092-0.014-0.135c-0.062-0.254-0.289-0.413-0.545-0.387c-0.234,0.025-0.433,0.246-0.434,0.497
		C22.062,9.98,22.062,10.513,22.062,11.047z"/>
	<path fill-rule="evenodd" clip-rule="evenodd" fill="#F15A24" d="M22.055,2.496c-0.476,0-0.952-0.022-1.425,0.006
		c-0.415,0.026-0.744,0.365-0.843,0.8c-0.212,0.931-0.42,1.861-0.63,2.792c-0.027,0.12-0.056,0.24-0.085,0.362
		c-0.336,0-0.666,0-1.005,0c0.001-0.03-0.001-0.057,0.004-0.083c0.262-1.14,0.518-2.282,0.789-3.419
		c0.2-0.833,0.967-1.438,1.825-1.455c0.408-0.008,0.818-0.003,1.229-0.003c0.045,0,0.09,0,0.109,0
		c0.066-0.124,0.111-0.238,0.184-0.335c0.082-0.11,0.207-0.161,0.348-0.161c0.997-0.001,1.994-0.003,2.992,0
		c0.258,0.001,0.433,0.176,0.499,0.496c0.045,0,0.093,0,0.142,0c0.476,0.007,0.953-0.015,1.426,0.027
		c0.768,0.067,1.443,0.659,1.621,1.406c0.277,1.15,0.535,2.304,0.799,3.456c0.004,0.019,0.003,0.041,0.004,0.07
		c-0.336,0-0.668,0-1.01,0c-0.102-0.448-0.203-0.894-0.305-1.341c-0.135-0.601-0.268-1.201-0.404-1.801
		C28.201,2.8,27.812,2.49,27.287,2.489c-0.414-0.001-0.826,0-1.238,0c-0.088,0.373-0.244,0.496-0.619,0.496c-0.92,0-1.838,0-2.756,0
		C22.296,2.985,22.141,2.862,22.055,2.496z"/>
</g>
</svg>
