<?xml version="1.0" encoding="utf-8"?>
<!-- Generator: Adobe Illustrator 16.0.3, SVG Export Plug-In . SVG Version: 6.00 Build 0)  -->
<!DOCTYPE svg PUBLIC "-//W3C//DTD SVG 1.1//EN" "http://www.w3.org/Graphics/SVG/1.1/DTD/svg11.dtd">
<svg version="1.1" id="Camada_1" xmlns="http://www.w3.org/2000/svg" xmlns:xlink="http://www.w3.org/1999/xlink" x="0px" y="0px"
	 width="32px" height="16px" viewBox="0 0 32 16" enable-background="new 0 0 32 16" xml:space="preserve">
<g>
	<path fill="#207192" d="M302.279,422.041c-0.326-0.35-0.75-0.557-1.332-0.654c-0.035-0.006-0.068-0.01-0.102-0.01
		c-0.203,0-0.365,0.111-0.557,0.24c-0.072,0.049-0.146,0.102-0.229,0.146c-0.025,0.016-0.053,0.033-0.08,0.053
		c-0.016,0.01-0.029,0.021-0.045,0.031c-0.738,0.469-1.504,0.707-2.271,0.707c-0.517,0-1.042-0.109-1.563-0.32
		c-0.375-0.152-0.719-0.375-1.051-0.588c-0.066-0.043-0.132-0.086-0.197-0.129c-0.144-0.09-0.281-0.131-0.435-0.131
		c-0.044,0-0.092,0.002-0.142,0.01c-0.782,0.115-1.346,0.533-1.725,1.277c-0.479,0.93-0.679,1.992-0.652,3.451
		c0.011,0.465,0.136,0.844,0.385,1.156c0.385,0.488,0.936,0.717,1.734,0.717c0.84,0.004,1.68,0.004,2.52,0.004
		c0.361,0,0.723,0,1.085,0h1.442c0.711,0,1.422-0.002,2.131-0.004c0.199,0,0.398-0.016,0.593-0.043
		c0.918-0.135,1.522-0.797,1.58-1.729c0.047-0.803-0.03-1.631-0.231-2.461C302.958,423.021,302.686,422.473,302.279,422.041z"/>
	<path fill="#207192" d="M297.663,415.766h-0.022c-1.688,0-3.025,1.33-3.039,3.025c-0.006,0.814,0.305,1.578,0.875,2.154
		c0.571,0.578,1.336,0.898,2.154,0.9h0.01c1.668,0,3.03-1.363,3.037-3.037C300.68,417.143,299.329,415.777,297.663,415.766z"/>
	<path fill="#207192" d="M293.65,418.129c-0.188,0.039-0.369,0.074-0.553,0.098c-0.111,0.012-0.225,0.02-0.334,0.02
		c-0.752,0-1.418-0.295-2.025-0.615c-0.1-0.053-0.188-0.08-0.266-0.08c-0.123,0-0.229,0.068-0.328,0.209
		c-0.101,0.143-0.207,0.309-0.229,0.461c-0.094,0.631-0.201,1.346-0.236,2.043c-0.035,0.699,0.313,1.121,1.008,1.221
		c0.358,0.053,0.736,0.055,1.102,0.055c0.134,0,0.273,0,0.41,0.004c0.011-0.004,0.031-0.018,0.043-0.029
		c0.529-0.59,1.193-0.928,2.02-1.031c-0.432-0.721-0.615-1.498-0.563-2.363C293.684,418.121,293.667,418.127,293.65,418.129z"/>
	<path fill="#207192" d="M304.813,417.555c-0.088,0-0.188,0.029-0.308,0.092c-0.584,0.305-1.165,0.578-1.829,0.582h-0.029
		c-0.289,0-0.578-0.033-0.854-0.066c-0.066-0.008-0.131-0.016-0.193-0.021c-0.006,0.076-0.01,0.154-0.016,0.232
		c-0.02,0.316-0.04,0.646-0.115,0.965c-0.074,0.322-0.205,0.635-0.33,0.936c-0.029,0.07-0.061,0.141-0.09,0.211
		c0.854,0.125,1.252,0.338,1.963,1.006c0.035,0.033,0.063,0.049,0.075,0.055c0.128-0.004,0.259-0.004,0.388-0.006
		c0.381-0.002,0.774-0.004,1.15-0.057c0.584-0.086,0.938-0.461,0.967-1.029c0.02-0.359,0.012-0.727-0.02-1.086
		c-0.045-0.527-0.092-1.072-0.385-1.537C305.034,417.586,304.906,417.555,304.813,417.555z"/>
	<path fill="#207192" d="M292.855,413.387c-0.039-0.002-0.078-0.002-0.117-0.002c-1.061,0-1.965,0.889-1.977,1.941v0.01
		c-0.07,1.051,0.784,1.973,1.906,2.055c0.045,0.002,0.091,0.004,0.137,0.004c1.014,0,1.893-0.85,1.959-1.898
		c0.034-0.527-0.145-1.039-0.502-1.436C293.902,413.66,293.402,413.422,292.855,413.387z"/>
	<path fill="#207192" d="M301.111,414.088c-0.346,0.395-0.516,0.898-0.479,1.416c0.074,1.043,0.956,1.891,1.966,1.891
		c0.039,0,0.077-0.002,0.114-0.004c0.56-0.037,1.087-0.293,1.448-0.705c0.337-0.385,0.506-0.869,0.473-1.361l-0.002-0.01
		c0.002-0.484-0.206-0.971-0.572-1.336c-0.377-0.379-0.888-0.596-1.4-0.596c-0.043,0-0.084,0-0.127,0.004
		C301.975,413.426,301.469,413.674,301.111,414.088z"/>
</g>
<g>
	<path fill-rule="evenodd" clip-rule="evenodd" fill="#1B779B" d="M8,2.729c2.398,0,4.797-0.001,7.195,0
		c0.531,0,0.709,0.177,0.709,0.71c0.002,3.04,0.002,6.079,0,9.12c0,0.533-0.18,0.712-0.707,0.712c-4.799,0-9.595,0-14.393,0
		c-0.528,0-0.709-0.18-0.709-0.712c-0.001-3.039-0.001-6.079,0-9.12c0-0.532,0.178-0.71,0.709-0.71C3.203,2.729,5.601,2.729,8,2.729
		z M1.151,10.094c1.277,0.146,1.979,0.845,2.118,2.113c3.156,0,6.304,0,9.464,0c0.135-1.282,0.854-1.976,2.115-2.116
		c0-1.405,0-2.792,0-4.184c-1.271-0.145-1.986-0.843-2.119-2.119c-3.156,0-6.3,0-9.47,0C3.232,4.355,3.045,4.851,2.643,5.256
		c-0.41,0.412-0.913,0.605-1.492,0.636C1.151,7.301,1.151,8.688,1.151,10.094z"/>
	<path fill-rule="evenodd" clip-rule="evenodd" fill="#1B779B" d="M10.627,8.125c-0.035,0.866-0.289,1.765-0.934,2.498
		c-1.078,1.222-2.875,1.019-3.688-0.398C5.159,8.742,5.148,7.252,6.01,5.776c0.44-0.754,1.107-1.202,2.003-1.195
		c0.904,0.006,1.557,0.478,2.006,1.24C10.418,6.499,10.627,7.235,10.627,8.125z M6.431,10.103c1.052,0,2.087,0,3.14,0
		c0-0.262,0-0.51,0-0.794c-0.348,0-0.686,0-1.045,0c0-1.244,0-2.454,0-3.657c-0.338,0-0.725-0.118-0.948,0.024
		C7.128,5.959,6.77,6.383,6.338,6.783c0.243,0.219,0.456,0.412,0.683,0.615c0.13-0.12,0.267-0.247,0.429-0.397
		c0,0.792,0,1.542,0,2.315c-0.348,0-0.677,0-1.019,0C6.431,9.593,6.431,9.844,6.431,10.103z"/>
</g>
<g>
	<g>
		<path fill-rule="evenodd" clip-rule="evenodd" fill="#F15A24" d="M24,2.729c2.398,0,4.797-0.001,7.195,0
			c0.531,0,0.709,0.177,0.709,0.71c0.002,3.04,0.002,6.079,0,9.12c0,0.533-0.18,0.712-0.707,0.712c-4.799,0-9.596,0-14.393,0
			c-0.528,0-0.709-0.18-0.709-0.712c-0.002-3.039-0.002-6.079-0.001-9.12c0-0.532,0.179-0.71,0.71-0.71
			C19.203,2.729,21.601,2.729,24,2.729z M17.15,10.094c1.277,0.146,1.979,0.845,2.118,2.113c3.156,0,6.304,0,9.464,0
			c0.135-1.282,0.854-1.976,2.115-2.116c0-1.405,0-2.792,0-4.184c-1.271-0.145-1.986-0.843-2.119-2.119c-3.156,0-6.301,0-9.471,0
			c-0.025,0.567-0.213,1.063-0.615,1.468c-0.41,0.412-0.913,0.605-1.492,0.636C17.15,7.301,17.15,8.688,17.15,10.094z"/>
		<path fill-rule="evenodd" clip-rule="evenodd" fill="#F15A24" d="M26.627,8.125c-0.035,0.866-0.289,1.765-0.934,2.498
			c-1.078,1.222-2.875,1.019-3.688-0.398c-0.848-1.482-0.857-2.973,0.004-4.449c0.44-0.754,1.107-1.202,2.004-1.195
			c0.904,0.006,1.557,0.478,2.006,1.24C26.418,6.499,26.627,7.235,26.627,8.125z M22.431,10.103c1.052,0,2.087,0,3.14,0
			c0-0.262,0-0.51,0-0.794c-0.348,0-0.686,0-1.045,0c0-1.244,0-2.454,0-3.657c-0.338,0-0.725-0.118-0.947,0.024
			c-0.449,0.283-0.809,0.707-1.24,1.106c0.242,0.219,0.456,0.412,0.683,0.615c0.13-0.12,0.267-0.247,0.429-0.397
			c0,0.792,0,1.542,0,2.315c-0.348,0-0.678,0-1.019,0C22.431,9.593,22.431,9.844,22.431,10.103z"/>
	</g>
</g>
</svg>
