<?xml version="1.0" encoding="utf-8"?>
<!-- Generator: Adobe Illustrator 16.0.3, SVG Export Plug-In . SVG Version: 6.00 Build 0)  -->
<!DOCTYPE svg PUBLIC "-//W3C//DTD SVG 1.1//EN" "http://www.w3.org/Graphics/SVG/1.1/DTD/svg11.dtd">
<svg version="1.1" id="Camada_1" xmlns="http://www.w3.org/2000/svg" xmlns:xlink="http://www.w3.org/1999/xlink" x="0px" y="0px"
	 width="16.212px" height="10.439px" viewBox="0 0 16.212 10.439" enable-background="new 0 0 16.212 10.439" xml:space="preserve">
<path fill-rule="evenodd" clip-rule="evenodd" fill="#999999" d="M8.088,0c3.031,0.104,5.436,1.384,7.314,3.7
	c0.211,0.261,0.396,0.545,0.581,0.828c0.291,0.447,0.31,0.915,0.021,1.362c-1.604,2.501-3.85,4.077-6.81,4.468
	c-2.978,0.394-5.501-0.663-7.608-2.741C1.083,7.12,0.676,6.522,0.252,5.949c-0.339-0.458-0.329-0.954-0.016-1.432
	C1.829,2.076,4.041,0.568,6.93,0.096C7.319,0.032,7.718,0.029,8.088,0z M11.634,2.054C12.675,4.119,12,6.058,10.755,7.136
	C9.517,8.208,7.59,8.443,6.213,7.654c-0.967-0.554-1.68-1.333-1.992-2.415C3.911,4.165,4.025,3.113,4.577,2.07
	c-0.1,0.039-0.136,0.048-0.168,0.065c-1.312,0.71-2.345,1.718-3.157,2.957C1.205,5.163,1.233,5.33,1.287,5.412
	c0.528,0.805,1.171,1.51,1.929,2.104c1.939,1.521,4.12,2.12,6.546,1.582c2.243-0.498,3.908-1.853,5.187-3.718
	c0.05-0.073,0.047-0.251-0.008-0.318c-0.488-0.595-0.966-1.202-1.501-1.754C12.945,2.798,12.347,2.406,11.634,2.054z M7.944,1.329
	c-1.275,0.011-2.57,1.179-2.59,2.653C5.35,4.279,5.505,4.474,5.751,4.495c0.264,0.022,0.461-0.15,0.471-0.466
	c0.032-1.009,0.873-1.813,1.81-1.836c0.339-0.008,0.525-0.219,0.507-0.472C8.519,1.447,8.301,1.304,7.944,1.329z"/>
</svg>
