<?xml version="1.0" encoding="utf-8"?>
<!-- Generator: Adobe Illustrator 16.0.0, SVG Export Plug-In . SVG Version: 6.00 Build 0)  -->
<!DOCTYPE svg PUBLIC "-//W3C//DTD SVG 1.1//EN" "http://www.w3.org/Graphics/SVG/1.1/DTD/svg11.dtd">
<svg version="1.1" id="Camada_1" xmlns="http://www.w3.org/2000/svg" xmlns:xlink="http://www.w3.org/1999/xlink" x="0px" y="0px"
	 width="32px" height="16px" viewBox="0 0 32 16" enable-background="new 0 0 32 16" xml:space="preserve">
<g>
	<path fill-rule="evenodd" clip-rule="evenodd" fill="#1B779B" d="M4.563,8.543C5.106,8.109,5.618,7.699,6.13,7.291
		C7.188,6.443,8.247,5.598,9.303,4.75c0.195-0.157,0.402-0.216,0.633-0.102c0.232,0.115,0.334,0.311,0.334,0.569
		c-0.001,1.045,0,2.091,0,3.138c0,0.05,0,0.102,0,0.186c0.195-0.154,0.368-0.292,0.54-0.429c1.396-1.117,2.791-2.232,4.186-3.351
		c0.198-0.16,0.407-0.229,0.644-0.113c0.239,0.116,0.336,0.318,0.336,0.58c-0.001,3.382,0,6.761-0.001,10.142
		c0,0.395-0.235,0.63-0.632,0.631c-4.901,0-9.803,0-14.705,0C0.232,16,0,15.767,0,15.36c0-4.897,0-9.794,0-14.692
		c0-0.413,0.231-0.641,0.648-0.641c1.088,0,2.177,0,3.266,0c0.422,0,0.649,0.228,0.649,0.654c0,2.554,0,5.106,0,7.66
		C4.563,8.397,4.563,8.452,4.563,8.543z"/>
</g>
<g>
	<path fill-rule="evenodd" clip-rule="evenodd" fill="#F15A24" d="M20.589,8.543c0.542-0.434,1.055-0.844,1.567-1.252
		c1.058-0.847,2.116-1.693,3.172-2.541c0.195-0.157,0.402-0.216,0.633-0.102c0.232,0.115,0.334,0.311,0.334,0.569
		c-0.002,1.045,0,2.091,0,3.138c0,0.05,0,0.102,0,0.186c0.195-0.154,0.368-0.292,0.54-0.429c1.396-1.117,2.791-2.232,4.186-3.351
		c0.198-0.16,0.407-0.229,0.644-0.113C31.903,4.764,32,4.966,32,5.228c-0.001,3.382,0,6.761-0.001,10.142
		c0,0.395-0.235,0.63-0.632,0.631c-4.901,0-9.803,0-14.705,0c-0.404,0-0.636-0.233-0.636-0.64c0-4.897,0-9.794,0-14.692
		c0-0.413,0.231-0.641,0.648-0.641c1.088,0,2.178,0,3.266,0c0.422,0,0.649,0.228,0.649,0.654c0,2.554,0,5.106,0,7.66
		C20.589,8.397,20.589,8.452,20.589,8.543z"/>
</g>
</svg>
