<?xml version="1.0" encoding="utf-8"?>
<!-- Generator: Adobe Illustrator 16.0.3, SVG Export Plug-In . SVG Version: 6.00 Build 0)  -->
<!DOCTYPE svg PUBLIC "-//W3C//DTD SVG 1.1//EN" "http://www.w3.org/Graphics/SVG/1.1/DTD/svg11.dtd">
<svg version="1.1" id="Camada_1" xmlns="http://www.w3.org/2000/svg" xmlns:xlink="http://www.w3.org/1999/xlink" x="0px" y="0px"
	 width="16px" height="16px" viewBox="289.64 412.945 16 16" enable-background="new 289.64 412.945 16 16" xml:space="preserve">
<g>
	<path fill="#207192" d="M302.28,422.042c-0.327-0.35-0.751-0.558-1.333-0.656c-0.035-0.006-0.068-0.009-0.102-0.009
		c-0.202,0-0.365,0.111-0.556,0.24c-0.072,0.05-0.146,0.101-0.228,0.146c-0.026,0.016-0.053,0.034-0.08,0.053
		c-0.016,0.01-0.03,0.021-0.045,0.031c-0.739,0.47-1.504,0.707-2.271,0.707c-0.517,0-1.042-0.108-1.563-0.32
		c-0.375-0.152-0.719-0.374-1.051-0.588c-0.066-0.043-0.132-0.086-0.198-0.128c-0.143-0.09-0.28-0.132-0.434-0.132
		c-0.044,0-0.092,0.003-0.142,0.011c-0.782,0.115-1.346,0.533-1.725,1.276c-0.478,0.93-0.678,1.994-0.651,3.452
		c0.01,0.465,0.135,0.843,0.384,1.156c0.385,0.488,0.936,0.717,1.735,0.718c0.839,0.003,1.679,0.003,2.519,0.003
		c0.361,0,0.723,0,1.085,0h1.443c0.711,0,1.421-0.001,2.131-0.003c0.199-0.001,0.398-0.016,0.592-0.043
		c0.918-0.136,1.523-0.797,1.58-1.729c0.047-0.803-0.03-1.631-0.232-2.461C302.958,423.021,302.685,422.472,302.28,422.042z"/>
	<path fill="#207192" d="M297.663,415.766h-0.022c-1.689,0-3.025,1.329-3.039,3.026c-0.006,0.813,0.304,1.577,0.874,2.153
		c0.572,0.578,1.337,0.898,2.155,0.9h0.01c1.668,0,3.03-1.362,3.036-3.037C300.68,417.143,299.329,415.777,297.663,415.766z"/>
	<path fill="#207192" d="M293.651,418.129c-0.189,0.039-0.369,0.074-0.554,0.097c-0.111,0.013-0.224,0.02-0.334,0.02
		c-0.752,0-1.418-0.295-2.025-0.615c-0.099-0.052-0.188-0.08-0.266-0.08c-0.123,0-0.229,0.068-0.328,0.208
		c-0.1,0.143-0.206,0.309-0.228,0.461c-0.094,0.631-0.201,1.346-0.236,2.044c-0.035,0.699,0.313,1.121,1.008,1.221
		c0.358,0.053,0.736,0.054,1.101,0.055c0.134,0,0.273,0,0.41,0.003c0.011-0.003,0.032-0.017,0.043-0.03
		c0.53-0.59,1.193-0.928,2.019-1.03c-0.431-0.721-0.615-1.499-0.562-2.364C293.683,418.122,293.667,418.126,293.651,418.129z"/>
	<path fill="#207192" d="M304.812,417.554c-0.087,0-0.188,0.03-0.307,0.092c-0.584,0.305-1.165,0.578-1.829,0.583h-0.029
		c-0.29,0-0.578-0.034-0.854-0.067c-0.067-0.007-0.131-0.015-0.193-0.022c-0.006,0.076-0.01,0.154-0.016,0.234
		c-0.02,0.316-0.04,0.645-0.115,0.964c-0.075,0.323-0.206,0.634-0.331,0.936c-0.029,0.07-0.06,0.14-0.089,0.211
		c0.853,0.124,1.252,0.337,1.963,1.005c0.035,0.033,0.063,0.05,0.075,0.054c0.128-0.003,0.259-0.003,0.388-0.004
		c0.381-0.003,0.774-0.005,1.15-0.058c0.584-0.086,0.938-0.46,0.967-1.028c0.019-0.361,0.011-0.727-0.02-1.086
		c-0.045-0.528-0.092-1.074-0.384-1.537C305.034,417.586,304.906,417.554,304.812,417.554z"/>
	<path fill="#207192" d="M292.856,413.387c-0.039-0.002-0.078-0.003-0.118-0.003c-1.06,0-1.965,0.889-1.977,1.942l0,0.009
		c-0.07,1.051,0.785,1.973,1.907,2.055c0.045,0.003,0.091,0.005,0.136,0.005c1.014,0,1.894-0.851,1.96-1.898
		c0.034-0.529-0.145-1.04-0.503-1.437C293.902,413.66,293.403,413.421,292.856,413.387z"/>
	<path fill="#207192" d="M301.111,414.087c-0.346,0.396-0.515,0.899-0.479,1.417c0.074,1.042,0.956,1.89,1.966,1.89
		c0.038,0,0.077-0.001,0.114-0.004c0.559-0.036,1.087-0.292,1.448-0.705c0.337-0.385,0.506-0.869,0.473-1.36l-0.002-0.011
		c0.002-0.483-0.206-0.971-0.572-1.336c-0.377-0.378-0.888-0.596-1.401-0.596c-0.042,0-0.084,0.001-0.127,0.004
		C301.975,413.425,301.469,413.674,301.111,414.087z"/>
</g>
</svg>
