<?xml version="1.0" encoding="utf-8"?>
<!-- Generator: Adobe Illustrator 16.0.3, SVG Export Plug-In . SVG Version: 6.00 Build 0)  -->
<!DOCTYPE svg PUBLIC "-//W3C//DTD SVG 1.1//EN" "http://www.w3.org/Graphics/SVG/1.1/DTD/svg11.dtd">
<svg version="1.1" id="Camada_1" xmlns="http://www.w3.org/2000/svg" xmlns:xlink="http://www.w3.org/1999/xlink" x="0px" y="0px"
	 width="595.28px" height="841.89px" viewBox="0 0 595.28 841.89" enable-background="new 0 0 595.28 841.89" xml:space="preserve">
<path fill-rule="evenodd" clip-rule="evenodd" fill="#207192" d="M387.894,431.133c-6.247-6.666-14.326-10.64-25.431-12.509
	c-0.656-0.111-1.305-0.167-1.93-0.167c-3.85,0-6.969,2.123-10.58,4.58c-1.386,0.943-2.819,1.919-4.35,2.803
	c-0.515,0.291-1.015,0.634-1.543,0.996c-0.285,0.194-0.569,0.389-0.858,0.578c-14.104,8.965-28.661,13.492-43.319,13.492
	c-9.848,0-19.875-2.053-29.802-6.104c-7.16-2.912-13.715-7.138-20.053-11.225c-1.259-0.811-2.514-1.621-3.771-2.417
	c-2.726-1.717-5.357-2.52-8.271-2.52c-0.855,0-1.766,0.069-2.706,0.206c-14.9,2.205-25.663,10.169-32.892,24.345
	c-9.112,17.732-12.94,38.029-12.419,65.82c0.186,8.881,2.578,16.107,7.314,22.084c7.349,9.293,17.863,13.642,33.092,13.688
	c16.007,0.059,32.014,0.044,48.03,0.031c6.899-0.006,13.8-0.012,20.7-0.012l27.544,0.004c13.546,0,27.094-0.008,40.64-0.045
	c3.789-0.02,7.582-0.303,11.261-0.838c17.526-2.564,29.074-15.186,30.137-32.938c0.907-15.316-0.581-31.111-4.423-46.945
	C400.828,449.816,395.627,439.361,387.894,431.133z"/>
<path fill-rule="evenodd" clip-rule="evenodd" fill="#207192" d="M299.813,311.456l-0.407-0.001
	c-32.222,0-57.678,25.349-57.953,57.709c-0.114,15.493,5.808,30.078,16.675,41.065c10.903,11.023,25.49,17.125,41.076,17.182
	l0.221,0.001c31.816,0,57.781-25.991,57.879-57.938C357.4,337.698,331.609,311.671,299.813,311.456z"/>
<path fill-rule="evenodd" clip-rule="evenodd" fill="#207192" d="M223.323,356.516c-3.617,0.729-7.032,1.417-10.552,1.837
	c-2.112,0.25-4.258,0.376-6.382,0.376c-14.347,0-27.037-5.638-38.613-11.73c-1.886-1.001-3.593-1.507-5.08-1.507
	c-2.331,0-4.375,1.299-6.249,3.972c-1.912,2.719-3.922,5.887-4.354,8.803c-1.801,12.029-3.842,25.657-4.501,38.986
	c-0.673,13.323,5.973,21.374,19.22,23.284c6.835,0.998,14.03,1.016,20.987,1.033c2.563,0.006,5.212,0.013,7.825,0.067
	c0.203-0.069,0.613-0.319,0.839-0.571c10.109-11.248,22.733-17.699,38.482-19.64c-8.208-13.757-11.729-28.588-10.709-45.094
	C223.93,356.394,223.626,356.455,223.323,356.516z"/>
<path fill-rule="evenodd" clip-rule="evenodd" fill="#207192" d="M436.169,345.553c-1.643,0-3.55,0.578-5.83,1.767
	c-11.152,5.809-22.211,11.03-34.876,11.118l-0.548,0.002c-5.563,0-11.025-0.652-16.308-1.283c-1.261-0.15-2.483-0.296-3.685-0.431
	c-0.105,1.452-0.196,2.93-0.29,4.458c-0.371,6.044-0.755,12.294-2.19,18.387c-1.454,6.167-3.935,12.104-6.332,17.845
	c-0.555,1.327-1.119,2.679-1.673,4.039c16.244,2.367,23.862,6.438,37.418,19.152c0.672,0.64,1.217,0.952,1.432,1.032
	c2.458-0.051,4.929-0.066,7.4-0.082c7.264-0.046,14.774-0.093,21.936-1.104c11.14-1.625,17.864-8.771,18.435-19.604
	c0.35-6.878,0.225-13.845-0.37-20.7c-0.858-10.075-1.745-20.488-7.309-29.318C440.413,346.153,437.968,345.553,436.169,345.553z"/>
<path fill-rule="evenodd" clip-rule="evenodd" fill="#207192" d="M208.156,266.078c-0.741-0.046-1.495-0.07-2.239-0.07
	c-20.221,0-37.489,16.96-37.708,37.036l-0.007,0.168c-1.345,20.043,14.974,37.623,36.377,39.188
	c0.858,0.064,1.724,0.096,2.579,0.096c19.344,0,36.115-16.236,37.386-36.194c0.648-10.101-2.755-19.833-9.583-27.408
	C228.106,271.289,218.586,266.737,208.156,266.078z"/>
<path fill-rule="evenodd" clip-rule="evenodd" fill="#207192" d="M365.581,279.427c-6.57,7.556-9.803,17.159-9.103,27.041
	c1.424,19.872,18.236,36.04,37.478,36.04c0.726,0,1.461-0.023,2.186-0.068c10.654-0.676,20.724-5.579,27.624-13.45
	c6.438-7.344,9.633-16.558,8.994-25.942l-0.007-0.212c0.026-9.209-3.955-18.499-10.924-25.487
	c-7.193-7.214-16.936-11.351-26.729-11.351c-0.8,0-1.61,0.027-2.409,0.081C382.063,266.805,372.434,271.547,365.581,279.427z"/>
</svg>
