<?xml version="1.0" encoding="utf-8"?>
<!-- Generator: Adobe Illustrator 16.0.3, SVG Export Plug-In . SVG Version: 6.00 Build 0)  -->
<!DOCTYPE svg PUBLIC "-//W3C//DTD SVG 1.1//EN" "http://www.w3.org/Graphics/SVG/1.1/DTD/svg11.dtd">
<svg version="1.1" id="Camada_1" xmlns="http://www.w3.org/2000/svg" xmlns:xlink="http://www.w3.org/1999/xlink" x="0px" y="0px"
	 width="16px" height="16px" viewBox="0 0 16 16" enable-background="new 0 0 16 16" xml:space="preserve">
<g>
	<g>
		<path fill-rule="evenodd" clip-rule="evenodd" fill="#727272" d="M9.449,7.235c1.131,0,2.262,0,3.393,0
			c0.262,0,0.303,0.041,0.304,0.3c0.001,0.309,0.003,0.618-0.001,0.927c-0.003,0.199-0.059,0.251-0.258,0.253
			c-2.3,0-4.599,0-6.897-0.002c-0.2,0-0.253-0.053-0.254-0.253C5.731,8.138,5.731,7.815,5.734,7.495C5.736,7.28,5.783,7.235,6,7.235
			C7.15,7.235,8.3,7.235,9.449,7.235z"/>
		<path fill-rule="evenodd" clip-rule="evenodd" fill="#727272" d="M9.43,5.747c-1.131,0-2.262,0-3.393,0
			c-0.26,0-0.302-0.041-0.303-0.301C5.733,5.137,5.731,4.829,5.735,4.52c0.002-0.203,0.054-0.252,0.257-0.252
			c2.298-0.001,4.598-0.001,6.896,0c0.203,0,0.254,0.049,0.256,0.252c0.004,0.314,0.003,0.631,0.001,0.945
			c-0.003,0.234-0.051,0.281-0.286,0.281C11.716,5.747,10.572,5.747,9.43,5.747z"/>
		<path fill-rule="evenodd" clip-rule="evenodd" fill="#727272" d="M9.428,11.682c-1.131,0-2.262,0.002-3.393,0
			c-0.259,0-0.3-0.041-0.301-0.303c-0.001-0.309-0.003-0.617,0.001-0.928c0.001-0.203,0.05-0.248,0.256-0.248
			c2.299-0.002,4.599-0.002,6.897,0c0.198,0,0.254,0.053,0.256,0.254c0.004,0.314,0.003,0.631,0,0.945
			c-0.002,0.234-0.048,0.279-0.286,0.279C11.715,11.684,10.571,11.682,9.428,11.682z"/>
		<path fill-rule="evenodd" clip-rule="evenodd" fill="#727272" d="M3.637,8.873c0.253,0,0.484,0,0.73,0
			c0.006-0.105,0.012-0.207,0.02-0.322c0.192,0,0.38,0,0.577,0c0,0.299,0,0.588,0,0.893c-0.687,0-1.375,0-2.063-0.002
			C2.763,8.998,2.928,8.52,3.339,8.197c0.204-0.161,0.424-0.302,0.625-0.464C4.177,7.561,4.216,7.348,4.08,7.209
			C3.941,7.07,3.695,7.098,3.518,7.278C3.471,7.327,3.429,7.38,3.371,7.446C3.216,7.34,3.061,7.235,2.865,7.102
			c0.121-0.135,0.217-0.281,0.348-0.378c0.368-0.272,0.776-0.308,1.192-0.122c0.55,0.246,0.684,0.927,0.259,1.355
			C4.493,8.13,4.277,8.258,4.082,8.409C3.915,8.535,3.709,8.625,3.637,8.873z"/>
		<path fill-rule="evenodd" clip-rule="evenodd" fill="#727272" d="M4.09,10.773c-0.178,0-0.343,0-0.52,0
			c-0.007,0.104-0.013,0.193-0.021,0.309c-0.168,0-0.333,0.006-0.497-0.006c-0.035-0.002-0.094-0.063-0.096-0.096
			c-0.008-0.254-0.004-0.504-0.004-0.768c0.646,0,1.272,0,1.905,0c0.041,0.285,0.041,0.549-0.197,0.766
			c-0.122,0.109-0.214,0.252-0.33,0.393c0.293,0.096,0.51,0.258,0.599,0.547c0.145,0.467-0.081,0.936-0.545,1.143
			c-0.483,0.215-1.139,0.092-1.498-0.291c0.101-0.156,0.203-0.316,0.299-0.465c0.16,0.074,0.304,0.172,0.459,0.201
			c0.136,0.027,0.301,0.01,0.426-0.047c0.079-0.037,0.15-0.184,0.148-0.279c-0.002-0.088-0.096-0.188-0.174-0.252
			c-0.055-0.045-0.155-0.061-0.229-0.051c-0.165,0.023-0.228-0.064-0.285-0.193c-0.039-0.09-0.041-0.152,0.024-0.232
			C3.735,11.232,3.906,11.008,4.09,10.773z"/>
		<path fill-rule="evenodd" clip-rule="evenodd" fill="#727272" d="M4.369,5.178c0.177,0,0.33,0.002,0.483-0.002
			c0.093-0.002,0.136,0.029,0.133,0.128C4.98,5.446,4.984,5.586,4.984,5.737c-0.648,0-1.277,0-1.92,0c0-0.174,0-0.35,0-0.553
			c0.192,0,0.386,0,0.594,0c0-0.496,0-0.963,0-1.447C3.564,3.825,3.475,3.909,3.373,4.004c-0.139-0.146-0.269-0.285-0.41-0.436
			c0.255-0.236,0.479-0.504,0.761-0.683C3.87,2.793,4.115,2.853,4.316,2.857c0.02,0.001,0.05,0.102,0.05,0.155
			c0.003,0.643,0.003,1.285,0.003,1.929C4.369,5.007,4.369,5.075,4.369,5.178z"/>
	</g>
</g>
</svg>
