<?xml version="1.0" encoding="utf-8"?>
<!-- Generator: Adobe Illustrator 16.0.3, SVG Export Plug-In . SVG Version: 6.00 Build 0)  -->
<!DOCTYPE svg PUBLIC "-//W3C//DTD SVG 1.1//EN" "http://www.w3.org/Graphics/SVG/1.1/DTD/svg11.dtd">
<svg version="1.1" id="Camada_1" xmlns="http://www.w3.org/2000/svg" xmlns:xlink="http://www.w3.org/1999/xlink" x="0px" y="0px"
	 width="16px" height="16px" viewBox="0 0 16 16" enable-background="new 0 0 16 16" xml:space="preserve">
<g>
	<path fill-rule="evenodd" clip-rule="evenodd" fill="#F7931E" d="M4.179,12.36c-0.453-0.452-0.872-0.871-1.308-1.306
		c0.11-0.117,0.219-0.238,0.334-0.354c1.17-1.171,2.341-2.342,3.511-3.512c0.223-0.222,0.285-0.22,0.513,0.009
		c0.488,0.492,0.977,0.984,1.456,1.467c1.063-1.052,2.109-2.09,3.174-3.145c-0.256-0.255-0.511-0.497-0.748-0.756
		c-0.068-0.074-0.135-0.215-0.106-0.29c0.026-0.071,0.178-0.134,0.274-0.135c0.918-0.01,1.836-0.007,2.754-0.005
		c0.256,0,0.311,0.052,0.311,0.304c0.002,0.925,0.005,1.85-0.006,2.775c0,0.096-0.068,0.231-0.145,0.271
		c-0.058,0.03-0.199-0.042-0.269-0.106c-0.253-0.236-0.491-0.488-0.756-0.755c-0.069,0.065-0.13,0.122-0.189,0.18
		c-1.329,1.329-2.657,2.658-3.987,3.986c-0.256,0.257-0.302,0.256-0.559,0c-0.479-0.479-0.959-0.959-1.441-1.441
		C6.051,10.488,5.117,11.421,4.179,12.36z"/>
	<path fill-rule="evenodd" clip-rule="evenodd" fill="#F7931E" d="M2.188,13.012c4.36,0,8.674,0,13.007,0c0,0.284,0,0.555,0,0.844
		c-4.605,0-9.213,0-13.839,0c0-3.454,0-6.911,0-10.379c0.272,0,0.536,0,0.832,0C2.188,6.646,2.188,9.814,2.188,13.012z"/>
</g>
</svg>
