<?xml version="1.0" encoding="utf-8"?>
<!-- Generator: Adobe Illustrator 16.0.0, SVG Export Plug-In . SVG Version: 6.00 Build 0)  -->
<!DOCTYPE svg PUBLIC "-//W3C//DTD SVG 1.1//EN" "http://www.w3.org/Graphics/SVG/1.1/DTD/svg11.dtd">
<svg version="1.1" id="Camada_1" xmlns="http://www.w3.org/2000/svg" xmlns:xlink="http://www.w3.org/1999/xlink" x="0px" y="0px"
	 width="32px" height="16px" viewBox="0 0 32 16" enable-background="new 0 0 32 16" xml:space="preserve">
<g>
	<path fill-rule="evenodd" clip-rule="evenodd" fill="#1B779B" d="M0,8.142c0-0.754,0-1.508,0-2.261
		c0-0.333,0.176-0.509,0.504-0.509c0.916,0,1.833,0,2.75,0.001c0.076,0,0.129-0.021,0.183-0.076
		c0.289-0.286,0.572-0.578,0.871-0.853c0.393-0.359,0.856-0.583,1.393-0.611c0.412-0.021,0.827-0.018,1.24,0
		c0.348,0.014,0.672,0.133,0.966,0.325c0.061,0.04,0.107,0.04,0.167,0c0.375-0.242,0.787-0.342,1.231-0.339
		c0.303,0.002,0.608,0.014,0.91-0.002c0.875-0.047,1.567,0.308,2.133,0.952c0.22,0.25,0.438,0.5,0.654,0.753
		c0.044,0.054,0.091,0.073,0.16,0.073c0.764-0.002,1.53,0.008,2.294-0.006c0.309-0.006,0.515,0.227,0.514,0.507
		c-0.007,1.441-0.003,2.882-0.003,4.323c0,0.312-0.182,0.494-0.5,0.494c-0.945,0-1.891,0-2.838-0.003
		c-0.085,0-0.128,0.024-0.167,0.103c-0.261,0.527-0.687,0.846-1.261,0.966c-0.08,0.017-0.138,0.052-0.189,0.119
		c-0.292,0.382-0.666,0.645-1.132,0.771c-0.046,0.013-0.093,0.046-0.125,0.081c-0.394,0.441-0.885,0.666-1.475,0.673
		c-0.042,0.001-0.091,0.005-0.127,0.023c-0.725,0.378-1.443,0.316-2.161-0.022c-0.418-0.199-0.786-0.467-1.115-0.791
		c-0.621-0.613-1.244-1.223-1.863-1.837c-0.064-0.062-0.125-0.086-0.214-0.086c-0.747,0.005-1.493,0.003-2.24,0.003
		c-0.401,0-0.56-0.158-0.56-0.555C0,9.62,0,8.881,0,8.142z M2.665,10.024c0.066,0,0.118,0.004,0.169,0
		c0.307-0.018,0.552,0.09,0.772,0.311c0.621,0.627,1.255,1.243,1.886,1.861c0.352,0.344,0.736,0.644,1.225,0.767
		c0.428,0.107,0.838,0.074,1.195-0.212c0.058-0.047,0.104-0.055,0.17-0.037c0.389,0.104,0.866-0.067,1.059-0.418
		c0.1-0.179,0.204-0.24,0.407-0.269c0.526-0.075,0.826-0.425,0.96-0.907c0.127,0.005,0.26,0.022,0.39,0.013
		c0.397-0.031,0.717-0.283,0.82-0.642c0.081-0.285,0.042-0.562-0.137-0.8c-0.343-0.458-0.69-0.912-1.047-1.36
		c-0.218-0.274-0.456-0.533-0.691-0.805c-0.038,0.04-0.063,0.064-0.086,0.092C9.498,7.907,9.232,8.192,8.981,8.487
		c-0.736,0.868-2.022,0.806-2.7,0.173c-0.666-0.623-0.77-1.62-0.204-2.331C6.312,6.035,6.565,5.754,6.81,5.468
		c0.174-0.205,0.349-0.408,0.546-0.64C7.15,4.783,6.974,4.722,6.793,4.709c-0.269-0.02-0.539-0.001-0.809-0.006
		C5.516,4.695,5.122,4.86,4.794,5.196C4.467,5.532,4.132,5.861,3.797,6.19C3.76,6.226,3.696,6.252,3.646,6.254
		C3.359,6.26,3.069,6.257,2.781,6.257c-0.039,0-0.078,0-0.116,0C2.665,7.521,2.665,8.769,2.665,10.024z M13.301,6.479
		c-0.181,0-0.358-0.003-0.534,0.001c-0.073,0.001-0.123-0.018-0.171-0.075c-0.333-0.387-0.67-0.769-1.004-1.154
		c-0.305-0.353-0.689-0.538-1.154-0.544c-0.428-0.006-0.858-0.009-1.287,0.002C8.818,4.718,8.522,4.847,8.3,5.099
		C7.792,5.676,7.291,6.258,6.795,6.844C6.482,7.215,6.532,7.685,6.89,8.011c0.339,0.309,1.018,0.376,1.432-0.106
		C8.57,7.616,8.824,7.333,9.076,7.048c0.186-0.21,0.369-0.423,0.559-0.63c0.143-0.157,0.362-0.204,0.535-0.125
		c0.161,0.074,0.28,0.271,0.248,0.444c-0.016,0.082,0.006,0.129,0.058,0.184c0.592,0.631,1.125,1.312,1.648,1.999
		c0.244,0.321,0.457,0.654,0.511,1.065c0.002,0.014,0.009,0.025,0.012,0.034c0.223,0,0.439,0,0.654,0
		C13.301,8.836,13.301,7.664,13.301,6.479z M1.327,10.028c0.259,0.002,0.446-0.186,0.446-0.445c0-0.257-0.183-0.44-0.44-0.442
		C1.078,9.139,0.891,9.32,0.888,9.575C0.884,9.835,1.07,10.026,1.327,10.028z M14.639,10.028c0.258-0.002,0.443-0.192,0.44-0.453
		c-0.004-0.255-0.191-0.437-0.446-0.435c-0.257,0.002-0.44,0.186-0.44,0.441C14.193,9.842,14.38,10.03,14.639,10.028z"/>
</g>
<g>
	<path fill-rule="evenodd" clip-rule="evenodd" fill="#F15A24" d="M16.031,8.142c0-0.754,0-1.508,0-2.261
		c0-0.333,0.176-0.509,0.504-0.509c0.916,0,1.833,0,2.75,0.001c0.076,0,0.129-0.021,0.183-0.076
		c0.288-0.286,0.571-0.578,0.871-0.853c0.393-0.359,0.856-0.583,1.393-0.611c0.412-0.021,0.827-0.018,1.239,0
		c0.349,0.014,0.673,0.133,0.967,0.325c0.061,0.04,0.106,0.04,0.167,0c0.374-0.242,0.787-0.342,1.231-0.339
		c0.303,0.002,0.607,0.014,0.909-0.002c0.875-0.047,1.567,0.308,2.133,0.952c0.22,0.25,0.438,0.5,0.653,0.753
		c0.045,0.054,0.092,0.073,0.16,0.073c0.765-0.002,1.53,0.008,2.295-0.006C31.795,5.583,32.001,5.816,32,6.097
		c-0.007,1.441-0.003,2.882-0.003,4.323c0,0.312-0.183,0.494-0.499,0.494c-0.945,0-1.891,0-2.838-0.003
		c-0.086,0-0.129,0.024-0.168,0.103c-0.261,0.527-0.687,0.846-1.26,0.966c-0.08,0.017-0.139,0.052-0.189,0.119
		c-0.291,0.382-0.666,0.645-1.132,0.771c-0.046,0.013-0.093,0.046-0.125,0.081c-0.394,0.441-0.885,0.666-1.476,0.673
		c-0.042,0.001-0.09,0.005-0.127,0.023c-0.725,0.378-1.443,0.316-2.16-0.022c-0.419-0.199-0.787-0.467-1.115-0.791
		c-0.621-0.613-1.244-1.223-1.863-1.837c-0.064-0.062-0.126-0.086-0.215-0.086c-0.746,0.005-1.493,0.003-2.24,0.003
		c-0.401,0-0.559-0.158-0.559-0.555C16.031,9.62,16.031,8.881,16.031,8.142z M18.695,10.024c0.066,0,0.118,0.004,0.17,0
		c0.307-0.018,0.551,0.09,0.771,0.311c0.621,0.627,1.255,1.243,1.886,1.861c0.353,0.344,0.735,0.644,1.226,0.767
		c0.428,0.107,0.838,0.074,1.194-0.212c0.058-0.047,0.104-0.055,0.17-0.037c0.389,0.104,0.866-0.067,1.06-0.418
		c0.1-0.179,0.203-0.24,0.406-0.269c0.527-0.075,0.826-0.425,0.961-0.907c0.127,0.005,0.26,0.022,0.391,0.013
		c0.396-0.031,0.717-0.283,0.819-0.642c0.081-0.285,0.042-0.562-0.138-0.8c-0.343-0.458-0.689-0.912-1.047-1.36
		c-0.219-0.274-0.455-0.533-0.691-0.805c-0.037,0.04-0.062,0.064-0.086,0.092c-0.259,0.289-0.523,0.574-0.775,0.869
		c-0.735,0.868-2.021,0.806-2.699,0.173c-0.666-0.623-0.77-1.62-0.203-2.331c0.234-0.294,0.486-0.575,0.731-0.861
		c0.174-0.205,0.349-0.408,0.546-0.64c-0.206-0.045-0.382-0.106-0.562-0.119c-0.27-0.02-0.539-0.001-0.809-0.006
		c-0.469-0.008-0.863,0.157-1.191,0.493c-0.326,0.336-0.661,0.665-0.996,0.994c-0.037,0.036-0.102,0.062-0.15,0.064
		C19.39,6.26,19.1,6.257,18.812,6.257c-0.038,0-0.078,0-0.116,0C18.695,7.521,18.695,8.769,18.695,10.024z M29.332,6.479
		c-0.181,0-0.357-0.003-0.533,0.001c-0.074,0.001-0.123-0.018-0.172-0.075c-0.332-0.387-0.67-0.769-1.004-1.154
		c-0.305-0.353-0.688-0.538-1.153-0.544c-0.429-0.006-0.858-0.009-1.286,0.002c-0.334,0.009-0.631,0.139-0.854,0.39
		c-0.508,0.577-1.009,1.159-1.504,1.746c-0.312,0.371-0.264,0.84,0.095,1.167c0.339,0.309,1.018,0.376,1.432-0.106
		c0.248-0.288,0.503-0.571,0.755-0.856c0.186-0.21,0.369-0.423,0.559-0.63c0.143-0.157,0.361-0.204,0.535-0.125
		c0.16,0.074,0.279,0.271,0.248,0.444c-0.016,0.082,0.006,0.129,0.057,0.184c0.593,0.631,1.125,1.312,1.648,1.999
		c0.244,0.321,0.457,0.654,0.512,1.065c0.002,0.014,0.009,0.025,0.012,0.034c0.223,0,0.439,0,0.654,0
		C29.332,8.836,29.332,7.664,29.332,6.479z M17.357,10.028c0.26,0.002,0.446-0.186,0.446-0.445c0-0.257-0.183-0.44-0.44-0.442
		c-0.255-0.002-0.441,0.18-0.445,0.435C16.914,9.835,17.101,10.026,17.357,10.028z M30.67,10.028
		c0.258-0.002,0.443-0.192,0.439-0.453c-0.004-0.255-0.191-0.437-0.445-0.435c-0.257,0.002-0.439,0.186-0.439,0.441
		C30.225,9.842,30.411,10.03,30.67,10.028z"/>
</g>
</svg>
