<?xml version="1.0" encoding="utf-8"?>
<!-- Generator: Adobe Illustrator 16.0.3, SVG Export Plug-In . SVG Version: 6.00 Build 0)  -->
<!DOCTYPE svg PUBLIC "-//W3C//DTD SVG 1.1//EN" "http://www.w3.org/Graphics/SVG/1.1/DTD/svg11.dtd">
<svg version="1.1" id="Camada_1" xmlns="http://www.w3.org/2000/svg" xmlns:xlink="http://www.w3.org/1999/xlink" x="0px" y="0px"
	 width="16px" height="16px" viewBox="0 0 16 16" enable-background="new 0 0 16 16" xml:space="preserve">
<path fill-rule="evenodd" clip-rule="evenodd" fill="#F7931E" d="M7.995,12.973c-1.535,0-3.073,0-4.61,0
	c-0.806,0-1.258-0.451-1.26-1.258c-0.001-2.488-0.001-4.974,0-7.459c0-0.764,0.464-1.229,1.224-1.229c3.104,0,6.207,0,9.312,0
	c0.746,0,1.213,0.465,1.215,1.213c0.001,2.494,0.001,4.989,0,7.483c-0.002,0.805-0.457,1.25-1.269,1.25
	C11.069,12.973,9.532,12.973,7.995,12.973z M11.618,9.359c0.347,0,0.692,0.002,1.041-0.002c0.245,0,0.314-0.063,0.317-0.301
	c0.007-0.398,0.007-0.8,0.002-1.199c-0.004-0.244-0.07-0.312-0.31-0.312c-0.701-0.003-1.402,0.004-2.102-0.003
	c-0.209-0.001-0.309,0.085-0.309,0.293c0,0.406-0.006,0.814,0.001,1.22c0.004,0.238,0.072,0.301,0.319,0.301
	C10.926,9.361,11.272,9.359,11.618,9.359z M8.01,10.262c-0.354,0-0.709,0.002-1.062-0.004c-0.211-0.004-0.309,0.088-0.309,0.295
	c0,0.406,0,0.813,0,1.221c0,0.199,0.088,0.303,0.302,0.301c0.707-0.004,1.415-0.004,2.122,0c0.199,0.002,0.295-0.092,0.297-0.285
	c0.001-0.412,0-0.826,0-1.24c0-0.209-0.104-0.295-0.312-0.291C8.702,10.264,8.356,10.262,8.01,10.262z M4.397,10.262
	c-0.355,0-0.708,0.002-1.063-0.004c-0.206-0.004-0.313,0.08-0.313,0.289c0,0.412,0,0.828,0,1.242
	c0.001,0.193,0.095,0.287,0.294,0.285c0.709-0.004,1.417-0.004,2.124,0c0.213,0.002,0.303-0.098,0.303-0.301
	c-0.001-0.406-0.001-0.814,0-1.221c0-0.205-0.097-0.299-0.308-0.295C5.09,10.264,4.743,10.262,4.397,10.262z M8.021,7.545
	c-0.354,0-0.708-0.002-1.063,0.001c-0.246,0-0.313,0.061-0.316,0.303C6.635,8.25,6.637,8.648,6.64,9.047
	c0.004,0.244,0.074,0.311,0.313,0.311c0.699,0.004,1.399,0,2.101,0.004C9.263,9.363,9.36,9.27,9.36,9.064
	c0-0.406,0.005-0.813-0.002-1.219C9.354,7.607,9.286,7.546,9.037,7.546C8.697,7.543,8.359,7.545,8.021,7.545z M4.387,9.359
	c0.354,0,0.708-0.004,1.063,0.002c0.199,0.002,0.293-0.094,0.293-0.287c0.001-0.412,0.001-0.829,0-1.243
	c0-0.191-0.089-0.288-0.291-0.288c-0.708,0.003-1.415,0.005-2.123,0C3.115,7.542,3.022,7.636,3.022,7.841c0,0.404,0,0.813,0,1.217
	c0,0.205,0.092,0.305,0.303,0.303C3.68,9.354,4.032,9.359,4.387,9.359z M11.597,6.646c0.354,0,0.709,0.001,1.063-0.002
	c0.247,0,0.314-0.063,0.317-0.303c0.007-0.4,0.007-0.799,0.002-1.196c-0.004-0.246-0.07-0.312-0.312-0.312
	c-0.699-0.003-1.4,0.002-2.101-0.003c-0.21-0.003-0.308,0.087-0.308,0.294c0,0.405-0.006,0.813,0.001,1.221
	c0.004,0.236,0.073,0.299,0.321,0.299C10.919,6.647,11.259,6.646,11.597,6.646z M7.995,6.646c0.354,0,0.707-0.006,1.063,0.001
	C9.253,6.65,9.358,6.568,9.36,6.369c0.001-0.421,0.001-0.842,0-1.264C9.358,4.924,9.27,4.831,9.079,4.831
	c-0.716,0.003-1.431,0.003-2.146,0c-0.2,0-0.293,0.094-0.293,0.286c0,0.414,0,0.828,0,1.242c0,0.195,0.093,0.29,0.293,0.288
	C7.287,6.642,7.641,6.646,7.995,6.646z M4.386,4.832c-0.355,0-0.708,0.006-1.061-0.001c-0.198-0.003-0.302,0.08-0.302,0.277
	c-0.003,0.422-0.003,0.843,0,1.265c0.002,0.183,0.094,0.274,0.283,0.274c0.714-0.003,1.43-0.003,2.146,0
	c0.201,0,0.29-0.099,0.29-0.291c0.001-0.413,0.001-0.826,0-1.241c0-0.193-0.096-0.287-0.295-0.284
	C5.095,4.837,4.74,4.832,4.386,4.832z M11.615,10.262c-0.347,0-0.692-0.004-1.039,0c-0.246,0-0.313,0.063-0.316,0.303
	c-0.007,0.398-0.007,0.799,0,1.197c0.002,0.244,0.07,0.309,0.312,0.311c0.701,0.002,1.4-0.002,2.101,0.002
	c0.209,0.002,0.307-0.092,0.307-0.295c0-0.408,0-0.813,0.001-1.221c0-0.203-0.09-0.305-0.303-0.301
	C12.324,10.264,11.97,10.262,11.615,10.262z"/>
</svg>
