<?xml version="1.0" encoding="utf-8"?>
<!-- Generator: Adobe Illustrator 16.0.3, SVG Export Plug-In . SVG Version: 6.00 Build 0)  -->
<!DOCTYPE svg PUBLIC "-//W3C//DTD SVG 1.1//EN" "http://www.w3.org/Graphics/SVG/1.1/DTD/svg11.dtd">
<svg version="1.1" id="Camada_1" xmlns="http://www.w3.org/2000/svg" xmlns:xlink="http://www.w3.org/1999/xlink" x="0px" y="0px"
	 width="595.28px" height="841.89px" viewBox="0 0 595.28 841.89" enable-background="new 0 0 595.28 841.89" xml:space="preserve">
<g>
	<path fill-rule="evenodd" clip-rule="evenodd" fill="#207192" d="M250.482,379.393c44.498,0,88.837,0,133.903,0
		c-0.354,5.845-0.531,11.551-1.078,17.16c-2.079,21.239-10.531,39.633-25.495,54.792c-5.765,5.804-6.53,12.846-6.334,20.102
		c0.232,7.961,4.57,12.806,12.257,15.414c19.844,6.707,38.889,15.258,56.401,26.827c9.372,6.216,18.081,13.179,24.552,22.611
		c3.901,5.746,6.079,11.943,5.885,18.944c-0.08,3.883,0.233,7.805-0.336,11.609c-1.666,11.473-9.686,18.023-19.179,23.022
		c-14.805,7.922-31.083,11.042-47.518,13.256c-30.513,4.18-61.263,4.513-91.994,3.374c-24.554-0.921-49.006-2.844-72.678-10.176
		c-10.101-3.118-19.748-7.16-27.454-14.71c-5.199-5.02-7.572-11.099-8.177-18.258c-1.14-13.492,2.35-25.121,12.315-34.514
		c3.803-3.588,7.667-7.178,11.846-10.355c18.433-13.846,38.965-23.709,60.498-31.514c12.765-4.589,17.631-15.768,13.258-28.554
		c-0.669-1.824-1.981-3.589-3.336-5.04c-9.708-10.198-18.119-21.297-22.081-34.966c-2.509-8.61-3.807-17.593-5.139-26.435
		C249.992,387.943,250.482,383.786,250.482,379.393z"/>
	<path fill-rule="evenodd" clip-rule="evenodd" fill="#207192" d="M301.372,323.129c0-18.826-0.079-56.597,0-75.481
		c0-9.629,3.159-12.864,12.806-12.825c3.571,0,7.158-0.02,10.668,0.411c4.137,0.569,6.57,3.275,7.18,7.373
		c0.294,1.785,0.45,3.669,0.45,5.513c0.059,18.55,0.059,37.103,0.059,55.654c0,1.451,0,2.863,0,4.275
		c0.294,0.098-1.354,16.415-1.061,16.473c1.14-5.53,20.965-48.812,24.24-60.225c1.53-5.433,2.06-5.433,7.237-3.451
		c27.611,10.608,35.651,22.572,41.651,51.948c0.707,3.627,1.002,7.355,1.1,11.042c0.04,2.883,1.234,4.726,3.843,5.275
		c11.848,2.276,15.299,10.886,16.316,21.416c0.215,2.47,0.392,5.001,0.646,7.923c-73.009,0-145.786,0-218.934,0
		c0.059-7.747,0.568-15.297,4.803-22.063c2.373-3.843,6.218-5.687,10.415-6.726c3.747-0.94,5.236-2.862,5.47-6.941
		c1.53-32.24,15.061-56.893,45.989-66.599c3.139-1.06,4.214,0.489,4.864,2.765C282.077,269.591,301.372,324.464,301.372,323.129z"/>
</g>
</svg>
