<?xml version="1.0" encoding="utf-8"?>
<!-- Generator: Adobe Illustrator 16.0.3, SVG Export Plug-In . SVG Version: 6.00 Build 0)  -->
<!DOCTYPE svg PUBLIC "-//W3C//DTD SVG 1.1//EN" "http://www.w3.org/Graphics/SVG/1.1/DTD/svg11.dtd">
<svg version="1.1" id="Camada_1" xmlns="http://www.w3.org/2000/svg" xmlns:xlink="http://www.w3.org/1999/xlink" x="0px" y="0px"
	 width="195.013px" height="202.754px" viewBox="0 0 195.013 202.754" enable-background="new 0 0 195.013 202.754"
	 xml:space="preserve">
<g>
	<path fill="#FFFFFF" d="M126.084,153.664c-0.686,0.592,0.296,13.2,0.296,13.2l-1.277,3.5l-5.629,6.48l-1.888,4.628l-6.536,7.387
		l-5.221,8.498l-3.314,2.666l-0.703-3.407l2.166-2.443l-18.921-14.515l6.461-10.238l10.294-7.739l-4.203-7.721l0.723-6.221
		l-1.74-2.481l-3.555,1l-2.37-8.961l-11.367-1.518l3.184-10.667L78.243,124h-9.942l-2.073-23.011c0,0-21.865-17.476-21.828-18.272
		C44.437,81.921,44.195,67,44.195,67H39.03l-9.517,9.896l-10.627,1.449l-0.574-5.979l-5.072,2.844L2.743,63.06l8.313-13.406
		l10.553-2l3.018-15.997l-2.666-4.091l1.222-8.813l12.571-0.574l5.647,4.776l12.423-6.813l-5.592-9.257l9.221,2.222l12.96-6.276
		l2.332,4.98l-2.332,7.109l4.128,5.332l28.863-4.221l8.184-10.331l9.054,14.182l-2.463,5.017l16.552,5.425l27.03,11.293l6.684-0.722
		l12.313,8.609l9.553,2.925l1.481,16.366l-18.755,24.68l-0.685,16.422l-14.312,29.326l-31.363,14.349"/>
</g>
</svg>
