<?xml version="1.0" encoding="utf-8"?>
<!-- Generator: Adobe Illustrator 16.0.3, SVG Export Plug-In . SVG Version: 6.00 Build 0)  -->
<!DOCTYPE svg PUBLIC "-//W3C//DTD SVG 1.1//EN" "http://www.w3.org/Graphics/SVG/1.1/DTD/svg11.dtd">
<svg version="1.1" id="Camada_1" xmlns="http://www.w3.org/2000/svg" xmlns:xlink="http://www.w3.org/1999/xlink" x="0px" y="0px"
	 width="16px" height="16px" viewBox="0 0 16 16" enable-background="new 0 0 16 16" xml:space="preserve">
<g>
	<path fill="#ED1E79" d="M8,0.549c-3.049,0-5.521,2.472-5.521,5.521S7.634,15.452,8,15.452c0.366,0,5.523-6.332,5.523-9.382
		S11.049,0.549,8,0.549z M8,9.064c-1.653,0-2.992-1.34-2.992-2.994C5.006,4.417,6.347,3.078,8,3.078c1.655,0,2.994,1.34,2.994,2.992
		C10.993,7.725,9.652,9.064,8,9.064z"/>
	<path fill="#FFFFFF" d="M8,15.772c-0.798,0-5.842-6.812-5.842-9.702c0-3.221,2.621-5.842,5.842-5.842
		c3.222,0,5.843,2.621,5.843,5.842C13.843,8.961,8.797,15.772,8,15.772z M8,0.87c-2.868,0-5.201,2.333-5.201,5.201
		c0,2.662,4.278,8.159,5.201,8.996c0.922-0.837,5.202-6.332,5.202-8.996C13.201,3.203,10.867,0.87,8,0.87z M8,9.385
		c-1.827,0-3.313-1.487-3.313-3.314c0-0.885,0.344-1.717,0.97-2.343C6.282,3.102,7.114,2.757,8,2.757
		c1.828,0,3.315,1.486,3.315,3.313C11.314,7.897,9.827,9.385,8,9.385z M8,3.399c-0.714,0-1.385,0.278-1.89,0.782
		C5.605,4.686,5.327,5.356,5.328,6.07c0,1.474,1.198,2.673,2.671,2.673s2.673-1.199,2.673-2.673C10.673,4.597,9.473,3.399,8,3.399z"
		/>
</g>
</svg>
