<?xml version="1.0" encoding="utf-8"?>
<!-- Generator: Adobe Illustrator 16.0.3, SVG Export Plug-In . SVG Version: 6.00 Build 0)  -->
<!DOCTYPE svg PUBLIC "-//W3C//DTD SVG 1.1//EN" "http://www.w3.org/Graphics/SVG/1.1/DTD/svg11.dtd">
<svg version="1.1" id="Camada_1" xmlns="http://www.w3.org/2000/svg" xmlns:xlink="http://www.w3.org/1999/xlink" x="0px" y="0px"
	 width="347.992px" height="68.156px" viewBox="0 0 347.992 68.156" enable-background="new 0 0 347.992 68.156"
	 xml:space="preserve">
<g>
	<path fill="#8A99C3" d="M41.683,30.086c1.628-4.356,5.897-7.302,10.559-7.302c6.205,0,11.264,5.057,11.264,11.265
		c0,6.201-5.059,11.26-11.264,11.26c-6.203,0-11.263-5.059-11.263-11.26C40.979,32.731,41.242,31.316,41.683,30.086"/>
	<path fill="#8A99C3" d="M98.533,36.116L88.094,64.68c-0.713,1.971-1.584,2.067-3.267,2.067H42.531c0,0-1.476-0.008,0-2.067
		c13.176-18.326,29.146-31.268,55.322-30.601C97.853,34.079,99.279,34.064,98.533,36.116"/>
	<path fill="#8A99C3" d="M5.905,32.071L16.344,3.503c0.711-1.972,1.584-2.063,3.267-2.063l42.47,0.008c0,0,1.467,0.007,0,2.055
		C48.922,21.845,32.761,34.775,6.585,34.108C6.585,34.108,5.159,34.116,5.905,32.071"/>
	<path fill="#8A99C3" d="M3.351,62.643C0.086,58.54-1.242,52.375,1.61,44.272l2.156-6.119c0.407-1.141,0.739-2.037,2.854-2.037
		h9.733c13.125,0,19.651,0,22.978,4.081c3.325,4.075,5.04,9.971,1.998,18.364l-2.223,6.119c-0.364,1.016-0.639,2.067-3.169,2.067
		h-9.783C15.483,66.748,6.62,66.748,3.351,62.643"/>
	<path fill="#8A99C3" d="M101.291,5.476c3.267,4.104,4.595,10.266,1.741,18.366l-2.156,6.119c-0.405,1.148-0.739,2.037-2.852,2.037
		h-9.735c-13.125,0-19.651,0-22.976-4.074c-3.325-4.082-5.04-9.977-1.998-18.368l2.221-6.119c0.366-1.013,0.639-2.065,3.168-2.065
		h9.784C89.161,1.372,98.024,1.372,101.291,5.476"/>
	<path fill="#00427E" d="M274.395,66.71l23.134-65.359h50.464l-4.758,12.731h-31.235l-4.771,12.819h29.159l-4.784,13.541h-29.161
		l-4.755,12.727h32.049l-4.879,13.541H274.395z M206.19,41.798c2.224-12.697,7.956-22.842,17.193-30.424S243.65,0,256.469,0
		c1.384,0,2.854,0.029,4.409,0.09c1.557,0.059,3.132,0.178,4.732,0.359c3.963,0.482,7.491,1.747,10.593,3.793
		c3.1,2.045,4.271,5.656,3.511,10.832c-0.114,0.784-0.286,1.641-0.514,2.574c-0.228,0.932-0.536,1.908-0.926,2.934l-17.772-0.091
		c0.052-2.407-0.542-4.289-1.789-5.641c-1.246-1.355-3.824-2.033-7.734-2.033c-5.3,0-10.358,2.5-15.183,7.493
		c-4.828,4.995-8.047,10.532-9.66,16.606c-0.098,0.244-0.169,0.533-0.217,0.859c-0.05,0.334-0.1,0.682-0.151,1.045
		c-0.124,0.837-0.194,1.726-0.212,2.659c-0.018,0.934,0.022,1.882,0.124,2.845c0.315,2.77,1.371,5.311,3.167,7.63
		c1.798,2.317,4.741,3.474,8.837,3.474c1.021,0,2.449-0.089,4.278-0.274c1.834-0.178,4.063-0.807,6.69-1.896l3.653-10.742h-12.729
		l4.772-13.452h31.323l-12.337,35.483c-6.549,1.141-12.516,2.03-17.902,2.659c-5.392,0.638-10.041,0.948-13.952,0.948h-0.499h-0.405
		h-0.406h-0.498c-9.997,0.06-16.692-2.393-20.088-7.355c-3.393-4.963-4.53-11.269-3.407-18.912L206.19,41.798z M168.144,25.456
		h10.652c2.156,0.059,3.995-0.57,5.516-1.894c1.519-1.324,2.512-2.771,2.981-4.334c0.028-0.181,0.067-0.346,0.119-0.498
		c0.052-0.15,0.087-0.287,0.104-0.404c0.213-1.446-0.141-2.724-1.063-3.837c-0.918-1.115-2.611-1.672-5.078-1.672l-9.196-0.091
		L168.144,25.456z M158.39,53.169h11.371c1.798,0.059,3.57-0.63,5.317-2.074c1.748-1.445,2.929-3.038,3.546-4.786
		c0.095-0.237,0.176-0.48,0.241-0.718c0.066-0.245,0.117-0.482,0.152-0.726c0.201-1.386-0.181-2.571-1.146-3.564
		c-0.969-0.992-2.776-1.489-5.423-1.489l-9.197-0.088L158.39,53.169z M135.096,66.71l23.766-65.359h23.472
		c6.97,0.061,13.146,0.543,18.52,1.445c5.375,0.902,7.655,4.124,6.843,9.66c-0.009,0.061-0.021,0.137-0.033,0.225
		c-0.013,0.093-0.024,0.167-0.032,0.226c-0.018,0.121-0.03,0.212-0.041,0.271c-0.009,0.061-0.021,0.152-0.038,0.272
		c-0.733,4.993-2.838,9.073-6.312,12.232c-3.472,3.16-7.959,5.249-13.467,6.271c5.145,1.444,8.352,3.267,9.626,5.467
		c1.271,2.192,1.672,4.889,1.204,8.074c-0.83,5.659-3.698,10.342-8.604,14.037c-4.908,3.704-10.043,6.009-15.414,6.911
		c-0.798,0.119-1.576,0.193-2.334,0.224c-0.757,0.028-1.496,0.044-2.22,0.044h-0.765h-0.768H135.096z M104.489,66.71l23.766-65.359
		h18.508L123.718,66.71H104.489z"/>
</g>
</svg>
