<?xml version="1.0" encoding="utf-8"?>
<!-- Generator: Adobe Illustrator 16.0.3, SVG Export Plug-In . SVG Version: 6.00 Build 0)  -->
<!DOCTYPE svg PUBLIC "-//W3C//DTD SVG 1.1//EN" "http://www.w3.org/Graphics/SVG/1.1/DTD/svg11.dtd">
<svg version="1.1" id="Camada_1" xmlns="http://www.w3.org/2000/svg" xmlns:xlink="http://www.w3.org/1999/xlink" x="0px" y="0px"
	 width="32px" height="16px" viewBox="0 0 32 16" enable-background="new 0 0 32 16" xml:space="preserve">
<g>
	<path fill="#207192" d="M302.279,422.041c-0.326-0.35-0.75-0.557-1.332-0.654c-0.035-0.006-0.068-0.01-0.102-0.01
		c-0.203,0-0.365,0.111-0.557,0.24c-0.072,0.049-0.146,0.102-0.229,0.146c-0.025,0.016-0.053,0.033-0.08,0.053
		c-0.016,0.01-0.029,0.021-0.045,0.031c-0.738,0.469-1.504,0.707-2.271,0.707c-0.517,0-1.042-0.109-1.563-0.32
		c-0.375-0.152-0.719-0.375-1.051-0.588c-0.066-0.043-0.132-0.086-0.197-0.129c-0.144-0.09-0.281-0.131-0.435-0.131
		c-0.044,0-0.092,0.002-0.142,0.01c-0.782,0.115-1.346,0.533-1.725,1.277c-0.479,0.93-0.679,1.992-0.652,3.451
		c0.011,0.465,0.136,0.844,0.385,1.156c0.385,0.488,0.936,0.717,1.734,0.717c0.84,0.004,1.68,0.004,2.52,0.004
		c0.361,0,0.723,0,1.085,0h1.442c0.711,0,1.422-0.002,2.131-0.004c0.199,0,0.398-0.016,0.593-0.043
		c0.918-0.135,1.522-0.797,1.58-1.729c0.047-0.803-0.03-1.631-0.231-2.461C302.958,423.021,302.686,422.473,302.279,422.041z"/>
	<path fill="#207192" d="M297.663,415.766h-0.022c-1.688,0-3.025,1.33-3.039,3.025c-0.006,0.814,0.305,1.578,0.875,2.154
		c0.571,0.578,1.336,0.898,2.154,0.9h0.01c1.668,0,3.03-1.363,3.037-3.037C300.68,417.143,299.329,415.777,297.663,415.766z"/>
	<path fill="#207192" d="M293.65,418.129c-0.188,0.039-0.369,0.074-0.553,0.098c-0.111,0.012-0.225,0.02-0.334,0.02
		c-0.752,0-1.418-0.295-2.025-0.615c-0.1-0.053-0.188-0.08-0.266-0.08c-0.123,0-0.229,0.068-0.328,0.209
		c-0.101,0.143-0.207,0.309-0.229,0.461c-0.094,0.631-0.201,1.346-0.236,2.043c-0.035,0.699,0.313,1.121,1.008,1.221
		c0.358,0.053,0.736,0.055,1.102,0.055c0.134,0,0.273,0,0.41,0.004c0.011-0.004,0.031-0.018,0.043-0.029
		c0.529-0.59,1.193-0.928,2.02-1.031c-0.432-0.721-0.615-1.498-0.563-2.363C293.684,418.121,293.667,418.127,293.65,418.129z"/>
	<path fill="#207192" d="M304.813,417.555c-0.088,0-0.188,0.029-0.308,0.092c-0.584,0.305-1.165,0.578-1.829,0.582h-0.029
		c-0.289,0-0.578-0.033-0.854-0.066c-0.066-0.008-0.131-0.016-0.193-0.021c-0.006,0.076-0.01,0.154-0.016,0.232
		c-0.02,0.316-0.04,0.646-0.115,0.965c-0.074,0.322-0.205,0.635-0.33,0.936c-0.029,0.07-0.061,0.141-0.09,0.211
		c0.854,0.125,1.252,0.338,1.963,1.006c0.035,0.033,0.063,0.049,0.075,0.055c0.128-0.004,0.259-0.004,0.388-0.006
		c0.381-0.002,0.774-0.004,1.15-0.057c0.584-0.086,0.938-0.461,0.967-1.029c0.02-0.359,0.012-0.727-0.02-1.086
		c-0.045-0.527-0.092-1.072-0.385-1.537C305.034,417.586,304.906,417.555,304.813,417.555z"/>
	<path fill="#207192" d="M292.855,413.387c-0.039-0.002-0.078-0.002-0.117-0.002c-1.061,0-1.965,0.889-1.977,1.941v0.01
		c-0.07,1.051,0.784,1.973,1.906,2.055c0.045,0.002,0.091,0.004,0.137,0.004c1.014,0,1.893-0.85,1.959-1.898
		c0.034-0.527-0.145-1.039-0.502-1.436C293.902,413.66,293.402,413.422,292.855,413.387z"/>
	<path fill="#207192" d="M301.111,414.088c-0.346,0.395-0.516,0.898-0.479,1.416c0.074,1.043,0.956,1.891,1.966,1.891
		c0.039,0,0.077-0.002,0.114-0.004c0.56-0.037,1.087-0.293,1.448-0.705c0.337-0.385,0.506-0.869,0.473-1.361l-0.002-0.01
		c0.002-0.484-0.206-0.971-0.572-1.336c-0.377-0.379-0.888-0.596-1.4-0.596c-0.043,0-0.084,0-0.127,0.004
		C301.975,413.426,301.469,413.674,301.111,414.088z"/>
</g>
<g>
	<g>
		<path fill-rule="evenodd" clip-rule="evenodd" fill="#1D7191" d="M12.134,6.423l0.993-1c-0.264-0.36-0.586-0.726-0.96-1.089
			L11.14,5.342C11.519,5.699,11.853,6.063,12.134,6.423z"/>
		<path fill-rule="evenodd" clip-rule="evenodd" fill="#1D7191" d="M10.444,2.265l1.283-1.184c-0.014-0.01-0.028-0.018-0.04-0.026
			c-0.509,0.27-1.047,0.598-1.604,0.977C10.193,2.101,10.314,2.178,10.444,2.265z"/>
		<path fill-rule="evenodd" clip-rule="evenodd" fill="#1D7191" d="M11.77,3.967c-0.387-0.344-0.818-0.684-1.281-1.011L9.412,3.951
			c0.475,0.329,0.921,0.675,1.325,1.028L11.77,3.967z"/>
		<path fill-rule="evenodd" clip-rule="evenodd" fill="#1D7191" d="M7.667,5.563C8.165,5.905,8.633,6.26,9.061,6.622l1.287-1.26
			c-0.41-0.354-0.861-0.7-1.347-1.03L7.667,5.563z"/>
		<path fill-rule="evenodd" clip-rule="evenodd" fill="#1D7191" d="M8.952,3.644l1.079-1c-0.164-0.107-0.308-0.199-0.43-0.272
			C9.207,2.659,8.805,2.971,8.398,3.305C8.526,3.38,8.718,3.495,8.952,3.644z"/>
		<path fill-rule="evenodd" clip-rule="evenodd" fill="#1D7191" d="M6.966,8.677C6.412,8.197,5.863,7.821,5.482,7.581L5.385,7.672
			c-0.083,0.754-0.302,2.33-0.302,2.33l-0.041,0.556L6.966,8.677z"/>
		<path fill-rule="evenodd" clip-rule="evenodd" fill="#1D7191" d="M12.587,1.017c0.438,0.323,0.835,0.656,1.178,0.996l1.568-1.537
			c-0.422-0.361-1.141-0.378-2.046-0.103L12.587,1.017z"/>
		<path fill-rule="evenodd" clip-rule="evenodd" fill="#1D7191" d="M13.827,5.486c0.051,0.078,0.098,0.157,0.143,0.234
			c0.234-0.347,0.45-0.69,0.642-1.022L13.827,5.486z"/>
		<path fill-rule="evenodd" clip-rule="evenodd" fill="#1D7191" d="M12.063,7.256l-1.222,1.229c0.145,0.202,0.275,0.404,0.391,0.602
			c0.404-0.426,0.789-0.852,1.148-1.278C12.289,7.627,12.187,7.44,12.063,7.256z"/>
		<path fill-rule="evenodd" clip-rule="evenodd" fill="#1D7191" d="M13.435,5.88l-0.98,0.984c0.11,0.165,0.21,0.329,0.301,0.494
			c0.311-0.386,0.602-0.767,0.869-1.141C13.566,6.105,13.505,5.993,13.435,5.88z"/>
		<path fill-rule="evenodd" clip-rule="evenodd" fill="#1D7191" d="M6.79,5.639C6.506,5.458,6.302,5.339,6.224,5.293
			C5.974,5.545,5.731,5.8,5.498,6.053C5.491,6.317,5.477,6.59,5.458,6.87L6.79,5.639z"/>
		<path fill-rule="evenodd" clip-rule="evenodd" fill="#1D7191" d="M12.556,3.953c0.367,0.358,0.688,0.721,0.958,1.082l1.042-1.047
			c-0.175-0.393-0.445-0.798-0.805-1.205L12.556,3.953z"/>
		<path fill-rule="evenodd" clip-rule="evenodd" fill="#1D7191" d="M14.138,2.403c0.422,0.475,0.733,0.953,0.937,1.425
			c0.589-1.225,0.808-2.248,0.568-2.899L14.138,2.403z"/>
		<path fill-rule="evenodd" clip-rule="evenodd" fill="#1D7191" d="M12.181,1.395l-1.282,1.184c0.455,0.324,0.878,0.663,1.263,1.006
			l1.218-1.193C13.033,2.055,12.631,1.719,12.181,1.395z"/>
		<path fill-rule="evenodd" clip-rule="evenodd" fill="#1D7191" d="M11.747,6.81c-0.277-0.359-0.613-0.725-0.998-1.087l-1.28,1.256
			c0.392,0.358,0.74,0.721,1.037,1.078L11.747,6.81z"/>
		<path fill-rule="evenodd" clip-rule="evenodd" fill="#1D7191" d="M10.452,8.875l-1.43,1.438c0.036,0.066,0.065,0.133,0.098,0.2
			c0.259-0.027,0.5-0.049,0.718-0.057c0.298-0.275,0.595-0.561,0.89-0.854c0.037-0.037,0.073-0.075,0.11-0.11
			C10.729,9.287,10.602,9.083,10.452,8.875z"/>
		<path fill-rule="evenodd" clip-rule="evenodd" fill="#1D7191" d="M9.076,7.362L7.753,8.661c0.397,0.389,0.729,0.78,0.989,1.17
			l1.379-1.388C9.826,8.089,9.477,7.725,9.076,7.362z"/>
		<path fill-rule="evenodd" clip-rule="evenodd" fill="#1D7191" d="M7.204,5.256l1.333-1.231C8.183,3.8,7.96,3.677,7.958,3.675
			H7.958C7.514,4.058,7.066,4.466,6.623,4.899C6.751,4.974,6.953,5.094,7.204,5.256z"/>
		<path fill-rule="evenodd" clip-rule="evenodd" fill="#1D7191" d="M7.355,8.295l1.312-1.287C8.236,6.646,7.762,6.289,7.254,5.944
			L5.894,7.2C6.274,7.444,6.813,7.821,7.355,8.295z"/>
		<path fill-rule="evenodd" clip-rule="evenodd" fill="#1D7191" d="M7.918,10.659l0.432-0.437C8.104,9.833,7.773,9.436,7.364,9.04
			l-1.98,1.939c0.586-0.125,1.476-0.138,2.551-0.307L7.918,10.659z"/>
	</g>
	<g>
		<path fill-rule="evenodd" clip-rule="evenodd" fill="#1D7191" d="M3.863,11.438c0.671-2.723,1.55-6.485,0.602-8.953
			C3.728,3.644,2.578,5.949,1.733,8.223c-0.661,1.785-1.038,3.272-1.112,4.344C0.601,12.575,3.881,11.435,3.863,11.438z"/>
	</g>
	<path fill-rule="evenodd" clip-rule="evenodd" fill="#1D7191" d="M13.452,11.347c-0.799-0.32-1.808-0.229-3.005-0.229
		c-4.073,0-9.126,1.9-9.838,2.173c-0.481,2.477,2.148,2.521,2.613,2.521C6.004,15.813,11.562,12.648,13.452,11.347z"/>
</g>
<g>
	<g>
		<g>
			<path fill-rule="evenodd" clip-rule="evenodd" fill="#F15A24" d="M28.134,6.423l0.993-1c-0.264-0.36-0.586-0.726-0.96-1.089
				L27.14,5.342C27.519,5.699,27.853,6.063,28.134,6.423z"/>
			<path fill-rule="evenodd" clip-rule="evenodd" fill="#F15A24" d="M26.444,2.265l1.283-1.184c-0.014-0.01-0.028-0.018-0.04-0.026
				c-0.509,0.27-1.047,0.598-1.604,0.977C26.193,2.101,26.314,2.178,26.444,2.265z"/>
			<path fill-rule="evenodd" clip-rule="evenodd" fill="#F15A24" d="M27.77,3.967c-0.387-0.344-0.818-0.684-1.281-1.011
				l-1.076,0.995c0.475,0.329,0.921,0.675,1.325,1.028L27.77,3.967z"/>
			<path fill-rule="evenodd" clip-rule="evenodd" fill="#F15A24" d="M23.668,5.563c0.496,0.342,0.965,0.697,1.393,1.059l1.287-1.26
				c-0.41-0.354-0.861-0.7-1.347-1.03L23.668,5.563z"/>
			<path fill-rule="evenodd" clip-rule="evenodd" fill="#F15A24" d="M24.952,3.644l1.079-1c-0.164-0.107-0.308-0.199-0.43-0.272
				c-0.395,0.287-0.797,0.599-1.203,0.933C24.526,3.38,24.718,3.495,24.952,3.644z"/>
			<path fill-rule="evenodd" clip-rule="evenodd" fill="#F15A24" d="M22.967,8.677c-0.555-0.479-1.104-0.856-1.484-1.096
				l-0.098,0.092c-0.083,0.754-0.301,2.33-0.301,2.33l-0.041,0.556L22.967,8.677z"/>
			<path fill-rule="evenodd" clip-rule="evenodd" fill="#F15A24" d="M28.587,1.017c0.438,0.323,0.835,0.656,1.178,0.996l1.568-1.537
				c-0.422-0.361-1.141-0.378-2.046-0.103L28.587,1.017z"/>
			<path fill-rule="evenodd" clip-rule="evenodd" fill="#F15A24" d="M29.827,5.486c0.051,0.078,0.098,0.157,0.143,0.234
				c0.234-0.347,0.45-0.69,0.642-1.022L29.827,5.486z"/>
			<path fill-rule="evenodd" clip-rule="evenodd" fill="#F15A24" d="M28.063,7.256l-1.222,1.229
				c0.145,0.202,0.275,0.404,0.391,0.602c0.404-0.426,0.789-0.852,1.148-1.278C28.289,7.627,28.187,7.44,28.063,7.256z"/>
			<path fill-rule="evenodd" clip-rule="evenodd" fill="#F15A24" d="M29.435,5.88l-0.98,0.984c0.11,0.165,0.21,0.329,0.301,0.494
				c0.311-0.386,0.602-0.767,0.869-1.141C29.566,6.105,29.505,5.993,29.435,5.88z"/>
			<path fill-rule="evenodd" clip-rule="evenodd" fill="#F15A24" d="M22.79,5.639c-0.284-0.181-0.487-0.299-0.566-0.346
				c-0.249,0.252-0.493,0.507-0.726,0.76c-0.007,0.265-0.021,0.537-0.039,0.817L22.79,5.639z"/>
			<path fill-rule="evenodd" clip-rule="evenodd" fill="#F15A24" d="M28.556,3.953c0.367,0.358,0.688,0.721,0.958,1.082l1.042-1.047
				c-0.175-0.393-0.445-0.798-0.805-1.205L28.556,3.953z"/>
			<path fill-rule="evenodd" clip-rule="evenodd" fill="#F15A24" d="M30.138,2.403c0.422,0.475,0.733,0.953,0.937,1.425
				c0.589-1.225,0.808-2.248,0.568-2.899L30.138,2.403z"/>
			<path fill-rule="evenodd" clip-rule="evenodd" fill="#F15A24" d="M28.181,1.395l-1.282,1.184
				c0.455,0.324,0.878,0.663,1.263,1.006l1.218-1.193C29.033,2.055,28.631,1.719,28.181,1.395z"/>
			<path fill-rule="evenodd" clip-rule="evenodd" fill="#F15A24" d="M27.747,6.81c-0.277-0.359-0.613-0.725-0.998-1.087l-1.28,1.256
				c0.392,0.358,0.74,0.721,1.037,1.078L27.747,6.81z"/>
			<path fill-rule="evenodd" clip-rule="evenodd" fill="#F15A24" d="M26.452,8.875l-1.43,1.438c0.036,0.066,0.065,0.133,0.098,0.2
				c0.259-0.027,0.5-0.049,0.718-0.057c0.298-0.275,0.595-0.561,0.89-0.854c0.037-0.037,0.073-0.075,0.11-0.11
				C26.729,9.287,26.602,9.083,26.452,8.875z"/>
			<path fill-rule="evenodd" clip-rule="evenodd" fill="#F15A24" d="M25.076,7.362l-1.323,1.299c0.397,0.389,0.729,0.78,0.989,1.17
				l1.379-1.388C25.826,8.089,25.477,7.725,25.076,7.362z"/>
			<path fill-rule="evenodd" clip-rule="evenodd" fill="#F15A24" d="M23.204,5.256l1.333-1.231c-0.354-0.226-0.576-0.348-0.578-0.35
				h-0.002c-0.443,0.383-0.891,0.791-1.334,1.224C22.752,4.974,22.953,5.094,23.204,5.256z"/>
			<path fill-rule="evenodd" clip-rule="evenodd" fill="#F15A24" d="M23.355,8.295l1.312-1.287
				c-0.431-0.362-0.905-0.719-1.413-1.064L21.894,7.2C22.274,7.444,22.813,7.821,23.355,8.295z"/>
			<path fill-rule="evenodd" clip-rule="evenodd" fill="#F15A24" d="M23.918,10.659l0.432-0.437
				c-0.245-0.39-0.576-0.787-0.986-1.183l-1.98,1.939c0.587-0.125,1.477-0.138,2.552-0.307L23.918,10.659z"/>
		</g>
		<g>
			<path fill-rule="evenodd" clip-rule="evenodd" fill="#F15A24" d="M19.863,11.438c0.672-2.723,1.551-6.485,0.602-8.953
				c-0.737,1.158-1.887,3.463-2.732,5.737c-0.66,1.785-1.037,3.272-1.111,4.344C16.602,12.575,19.881,11.435,19.863,11.438z"/>
		</g>
		<path fill-rule="evenodd" clip-rule="evenodd" fill="#F15A24" d="M29.452,11.347c-0.799-0.32-1.808-0.229-3.005-0.229
			c-4.072,0-9.126,1.9-9.838,2.173c-0.48,2.477,2.148,2.521,2.613,2.521C22.004,15.813,27.562,12.648,29.452,11.347z"/>
	</g>
</g>
</svg>
