<?xml version="1.0" encoding="utf-8"?>
<!-- Generator: Adobe Illustrator 16.0.3, SVG Export Plug-In . SVG Version: 6.00 Build 0)  -->
<!DOCTYPE svg PUBLIC "-//W3C//DTD SVG 1.1//EN" "http://www.w3.org/Graphics/SVG/1.1/DTD/svg11.dtd">
<svg version="1.1" id="Camada_1" xmlns="http://www.w3.org/2000/svg" xmlns:xlink="http://www.w3.org/1999/xlink" x="0px" y="0px"
	 width="16px" height="16px" viewBox="0 0 16 16" enable-background="new 0 0 16 16" xml:space="preserve">
<path fill-rule="evenodd" clip-rule="evenodd" fill="#1B779B" d="M14.24,11.352c0,0.357,0.015,0.686-0.004,1.01
	c-0.041,0.688-0.63,1.227-1.321,1.221c-0.699-0.002-1.276-0.527-1.32-1.223c-0.021-0.322-0.004-0.65-0.004-0.992
	c-2.399,0-4.768,0-7.178,0c0,0.336,0.018,0.67-0.001,1.004c-0.041,0.674-0.624,1.207-1.306,1.211
	c-0.699,0.006-1.292-0.521-1.334-1.207c-0.021-0.334-0.003-0.666-0.003-1.023c-0.228,0-0.42-0.006-0.61,0
	c-0.193,0.006-0.294-0.074-0.294-0.271c0.001-0.895-0.02-1.787,0.012-2.679C0.903,7.513,1.537,6.924,2.429,6.89
	C2.487,6.889,2.547,6.884,2.617,6.88C2.813,6.1,3.005,5.32,3.205,4.544c0.078-0.309,0.139-0.632,0.273-0.916
	c0.363-0.767,0.993-1.187,1.839-1.197c1.792-0.02,3.586-0.016,5.378-0.001c0.964,0.007,1.733,0.656,1.975,1.604
	c0.239,0.943,0.476,1.888,0.707,2.807c0.291,0.063,0.583,0.081,0.832,0.191c0.604,0.266,0.925,0.755,0.93,1.422
	c0.01,0.87,0.001,1.741,0.003,2.612c0.001,0.209-0.099,0.293-0.304,0.285C14.654,11.346,14.468,11.352,14.24,11.352z M4.459,6.88
	c2.369,0,4.718,0,7.079,0c-0.016-0.082-0.028-0.156-0.044-0.226c-0.175-0.699-0.35-1.399-0.523-2.096
	c-0.073-0.292-0.146-0.352-0.448-0.352c-1.578,0-3.155,0.003-4.732,0C5.078,4.204,5.128,4.174,4.963,4.841
	C4.799,5.516,4.631,6.192,4.459,6.88z M3.1,10.236c0.605-0.006,1.103-0.504,1.106-1.111c0.003-0.621-0.517-1.133-1.14-1.124
	C2.464,8.015,1.968,8.523,1.973,9.127C1.978,9.74,2.488,10.246,3.1,10.236z M12.882,10.236c0.614,0.018,1.126-0.467,1.149-1.088
	c0.022-0.607-0.481-1.133-1.095-1.147c-0.614-0.01-1.125,0.482-1.14,1.102C11.783,9.699,12.279,10.219,12.882,10.236z"/>
</svg>
