<?xml version="1.0" encoding="utf-8"?>
<!-- Generator: Adobe Illustrator 16.0.3, SVG Export Plug-In . SVG Version: 6.00 Build 0)  -->
<!DOCTYPE svg PUBLIC "-//W3C//DTD SVG 1.1//EN" "http://www.w3.org/Graphics/SVG/1.1/DTD/svg11.dtd">
<svg version="1.1" id="Camada_1" xmlns="http://www.w3.org/2000/svg" xmlns:xlink="http://www.w3.org/1999/xlink" x="0px" y="0px"
	 width="16px" height="16px" viewBox="8 0 16 16" enable-background="new 8 0 16 16" xml:space="preserve">
<g>
	<path fill="#207192" d="M302.279,422.041c-0.326-0.35-0.75-0.557-1.332-0.654c-0.035-0.006-0.068-0.01-0.102-0.01
		c-0.203,0-0.365,0.111-0.558,0.24c-0.072,0.049-0.146,0.102-0.229,0.146c-0.024,0.016-0.053,0.033-0.08,0.053
		c-0.016,0.01-0.028,0.021-0.045,0.031c-0.738,0.469-1.504,0.707-2.271,0.707c-0.517,0-1.042-0.109-1.563-0.32
		c-0.375-0.152-0.719-0.375-1.051-0.588c-0.066-0.043-0.132-0.086-0.197-0.129c-0.144-0.09-0.281-0.131-0.435-0.131
		c-0.044,0-0.092,0.002-0.142,0.01c-0.782,0.115-1.346,0.533-1.726,1.277c-0.479,0.93-0.679,1.99-0.651,3.449
		c0.011,0.467,0.136,0.846,0.385,1.156c0.385,0.488,0.936,0.717,1.734,0.717c0.84,0.004,1.68,0.004,2.52,0.004
		c0.361,0,0.723,0,1.085,0h1.442c0.711,0,1.422-0.002,2.131-0.004c0.199,0,0.398-0.016,0.593-0.043
		c0.918-0.135,1.522-0.797,1.58-1.729c0.047-0.803-0.03-1.631-0.231-2.461C302.958,423.021,302.686,422.473,302.279,422.041z"/>
	<path fill="#207192" d="M297.663,415.766h-0.022c-1.688,0-3.024,1.33-3.039,3.025c-0.006,0.814,0.305,1.578,0.875,2.154
		c0.571,0.578,1.336,0.898,2.154,0.9h0.01c1.668,0,3.03-1.363,3.037-3.037C300.68,417.143,299.329,415.777,297.663,415.766z"/>
	<path fill="#207192" d="M293.65,418.129c-0.188,0.039-0.369,0.074-0.553,0.098c-0.111,0.012-0.226,0.02-0.334,0.02
		c-0.753,0-1.418-0.295-2.025-0.613c-0.1-0.055-0.188-0.08-0.266-0.08c-0.123,0-0.229,0.066-0.328,0.209
		c-0.102,0.143-0.207,0.309-0.229,0.461c-0.095,0.631-0.201,1.346-0.235,2.043c-0.035,0.699,0.313,1.121,1.008,1.221
		c0.357,0.053,0.735,0.055,1.102,0.055c0.134,0,0.273,0,0.41,0.004c0.011-0.004,0.031-0.018,0.043-0.029
		c0.529-0.59,1.193-0.928,2.02-1.031c-0.432-0.721-0.615-1.498-0.563-2.363C293.684,418.121,293.667,418.127,293.65,418.129z"/>
	<path fill="#207192" d="M304.813,417.555c-0.088,0-0.188,0.029-0.308,0.092c-0.584,0.305-1.165,0.578-1.829,0.582h-0.029
		c-0.289,0-0.578-0.033-0.854-0.066c-0.066-0.008-0.131-0.016-0.193-0.02c-0.006,0.076-0.01,0.154-0.016,0.23
		c-0.02,0.316-0.04,0.646-0.115,0.967c-0.074,0.32-0.205,0.635-0.33,0.936c-0.029,0.07-0.061,0.141-0.09,0.211
		c0.854,0.125,1.252,0.338,1.963,1.006c0.035,0.033,0.063,0.049,0.075,0.055c0.128-0.004,0.259-0.004,0.388-0.006
		c0.381-0.002,0.774-0.004,1.15-0.057c0.584-0.086,0.938-0.461,0.967-1.029c0.02-0.359,0.012-0.727-0.02-1.086
		c-0.045-0.527-0.092-1.072-0.385-1.537C305.034,417.586,304.906,417.555,304.813,417.555z"/>
	<path fill="#207192" d="M292.855,413.387c-0.039-0.002-0.078-0.002-0.117-0.002c-1.061,0-1.965,0.889-1.977,1.941v0.01
		c-0.07,1.051,0.783,1.973,1.905,2.055c0.045,0.002,0.091,0.004,0.138,0.004c1.014,0,1.893-0.85,1.959-1.898
		c0.033-0.525-0.146-1.039-0.502-1.436C293.902,413.66,293.402,413.422,292.855,413.387z"/>
	<path fill="#207192" d="M301.111,414.088c-0.346,0.395-0.516,0.898-0.479,1.416c0.074,1.043,0.956,1.891,1.966,1.891
		c0.039,0,0.077-0.002,0.114-0.004c0.56-0.037,1.087-0.293,1.448-0.705c0.337-0.385,0.506-0.869,0.473-1.361l-0.002-0.01
		c0.002-0.484-0.206-0.971-0.572-1.336c-0.377-0.379-0.888-0.596-1.399-0.596c-0.043,0-0.084,0-0.128,0.004
		C301.975,413.426,301.469,413.674,301.111,414.088z"/>
</g>
<g>
	<g>
		<path fill="#1D7191" d="M19.989,6.596l0.993-1c-0.264-0.36-0.586-0.726-0.96-1.089l-1.026,1.008
			C19.375,5.872,19.709,6.236,19.989,6.596z"/>
		<path fill="#1D7191" d="M18.299,2.438l1.283-1.184c-0.014-0.01-0.027-0.018-0.039-0.026c-0.51,0.27-1.047,0.598-1.604,0.977
			C18.049,2.274,18.17,2.351,18.299,2.438z"/>
		<path fill="#1D7191" d="M19.625,4.14c-0.387-0.344-0.817-0.684-1.281-1.011l-1.076,0.995c0.475,0.329,0.921,0.675,1.324,1.028
			L19.625,4.14z"/>
		<path fill="#1D7191" d="M15.522,5.736c0.498,0.342,0.966,0.697,1.394,1.059l1.287-1.26c-0.41-0.354-0.861-0.7-1.347-1.03
			L15.522,5.736z"/>
		<path fill="#1D7191" d="M16.808,3.817l1.079-1c-0.164-0.107-0.309-0.199-0.43-0.272c-0.395,0.287-0.797,0.599-1.204,0.933
			C16.381,3.553,16.573,3.668,16.808,3.817z"/>
		<path fill="#1D7191" d="M14.821,8.851c-0.554-0.481-1.103-0.857-1.484-1.097L13.24,7.845c-0.083,0.755-0.302,2.33-0.302,2.33
			l-0.041,0.557L14.821,8.851z"/>
		<path fill="#1D7191" d="M20.442,1.19c0.438,0.323,0.835,0.656,1.179,0.996l1.567-1.537c-0.422-0.361-1.142-0.378-2.046-0.103
			L20.442,1.19z"/>
		<path fill="#1D7191" d="M21.683,5.659c0.051,0.078,0.098,0.157,0.144,0.234c0.233-0.347,0.449-0.69,0.641-1.022L21.683,5.659z"/>
		<path fill="#1D7191" d="M19.918,7.429l-1.222,1.229c0.146,0.202,0.275,0.403,0.392,0.602c0.404-0.426,0.789-0.852,1.147-1.278
			C20.145,7.8,20.043,7.613,19.918,7.429z"/>
		<path fill="#1D7191" d="M21.291,6.053l-0.98,0.984c0.109,0.165,0.21,0.329,0.301,0.494c0.311-0.386,0.602-0.767,0.869-1.141
			C21.422,6.278,21.36,6.166,21.291,6.053z"/>
		<path fill="#1D7191" d="M14.646,5.812c-0.284-0.181-0.488-0.3-0.566-0.346c-0.25,0.252-0.493,0.507-0.726,0.76
			c-0.007,0.264-0.021,0.537-0.04,0.817L14.646,5.812z"/>
		<path fill="#1D7191" d="M20.412,4.126c0.366,0.358,0.688,0.721,0.957,1.082l1.043-1.047c-0.176-0.393-0.445-0.798-0.806-1.205
			L20.412,4.126z"/>
		<path fill="#1D7191" d="M21.994,2.576c0.422,0.475,0.732,0.953,0.937,1.425c0.589-1.225,0.808-2.248,0.567-2.899L21.994,2.576z"/>
		<path fill="#1D7191" d="M20.037,1.568l-1.283,1.184c0.455,0.324,0.879,0.663,1.264,1.006l1.218-1.193
			C20.889,2.228,20.486,1.892,20.037,1.568z"/>
		<path fill="#1D7191" d="M19.603,6.983c-0.276-0.359-0.613-0.725-0.998-1.087l-1.28,1.256c0.393,0.358,0.74,0.721,1.037,1.078
			L19.603,6.983z"/>
		<path fill="#1D7191" d="M18.308,9.048l-1.431,1.438c0.037,0.066,0.065,0.133,0.099,0.201c0.259-0.027,0.5-0.05,0.718-0.058
			c0.299-0.274,0.596-0.562,0.891-0.854c0.037-0.037,0.072-0.074,0.109-0.109C18.584,9.46,18.457,9.256,18.308,9.048z"/>
		<path fill="#1D7191" d="M16.932,7.535l-1.323,1.299c0.397,0.389,0.729,0.78,0.989,1.17l1.379-1.389
			C17.682,8.262,17.332,7.898,16.932,7.535z"/>
		<path fill="#1D7191" d="M15.06,5.429l1.333-1.231c-0.354-0.225-0.577-0.348-0.579-0.35l0,0c-0.444,0.383-0.892,0.791-1.335,1.224
			C14.606,5.147,14.809,5.267,15.06,5.429z"/>
		<path fill="#1D7191" d="M15.21,8.468l1.312-1.287c-0.431-0.362-0.905-0.719-1.413-1.064l-1.36,1.256
			C14.129,7.617,14.668,7.994,15.21,8.468z"/>
		<path fill="#1D7191" d="M15.773,10.832l0.432-0.437c-0.246-0.39-0.577-0.787-0.986-1.183l-1.98,1.938
			c0.586-0.125,1.476-0.138,2.551-0.307L15.773,10.832z"/>
	</g>
	<g>
		<path fill="#1D7191" d="M11.718,11.61c0.671-2.723,1.55-6.484,0.602-8.953c-0.737,1.159-1.887,3.464-2.732,5.738
			c-0.661,1.785-1.038,3.272-1.112,4.343C8.457,12.748,11.736,11.608,11.718,11.61z"/>
	</g>
	<path fill="#1D7191" d="M21.308,11.521c-0.8-0.32-1.808-0.229-3.005-0.229c-4.073,0-9.126,1.899-9.838,2.173
		c-0.481,2.477,2.148,2.521,2.613,2.521C13.859,15.985,19.418,12.821,21.308,11.521z"/>
</g>
</svg>
