<?xml version="1.0" encoding="utf-8"?>
<!-- Generator: Adobe Illustrator 16.0.3, SVG Export Plug-In . SVG Version: 6.00 Build 0)  -->
<!DOCTYPE svg PUBLIC "-//W3C//DTD SVG 1.1//EN" "http://www.w3.org/Graphics/SVG/1.1/DTD/svg11.dtd">
<svg version="1.1" id="Camada_1" xmlns="http://www.w3.org/2000/svg" xmlns:xlink="http://www.w3.org/1999/xlink" x="0px" y="0px"
	 width="16px" height="16px" viewBox="8 0 16 16" enable-background="new 8 0 16 16" xml:space="preserve">
<g>
	<path fill="#207192" d="M302.279,422.041c-0.326-0.35-0.75-0.557-1.332-0.654c-0.035-0.006-0.068-0.01-0.102-0.01
		c-0.203,0-0.365,0.111-0.558,0.24c-0.072,0.049-0.146,0.102-0.229,0.146c-0.024,0.016-0.053,0.033-0.08,0.053
		c-0.016,0.01-0.028,0.021-0.045,0.031c-0.738,0.469-1.504,0.707-2.271,0.707c-0.517,0-1.042-0.109-1.563-0.32
		c-0.375-0.152-0.719-0.375-1.051-0.588c-0.066-0.043-0.132-0.086-0.197-0.129c-0.144-0.09-0.281-0.131-0.435-0.131
		c-0.044,0-0.092,0.002-0.142,0.01c-0.782,0.115-1.346,0.533-1.726,1.277c-0.479,0.93-0.679,1.99-0.651,3.449
		c0.011,0.467,0.136,0.846,0.385,1.156c0.385,0.488,0.936,0.717,1.734,0.717c0.84,0.004,1.68,0.004,2.52,0.004
		c0.361,0,0.723,0,1.085,0h1.442c0.711,0,1.422-0.002,2.131-0.004c0.199,0,0.398-0.016,0.593-0.043
		c0.918-0.135,1.522-0.797,1.58-1.729c0.047-0.803-0.03-1.631-0.231-2.461C302.958,423.021,302.686,422.473,302.279,422.041z"/>
	<path fill="#207192" d="M297.663,415.766h-0.022c-1.688,0-3.024,1.33-3.039,3.025c-0.006,0.814,0.305,1.578,0.875,2.154
		c0.571,0.578,1.336,0.898,2.154,0.9h0.01c1.668,0,3.03-1.363,3.037-3.037C300.68,417.143,299.329,415.777,297.663,415.766z"/>
	<path fill="#207192" d="M293.65,418.129c-0.188,0.039-0.369,0.074-0.553,0.098c-0.111,0.012-0.226,0.02-0.334,0.02
		c-0.753,0-1.418-0.295-2.025-0.613c-0.1-0.055-0.188-0.08-0.266-0.08c-0.123,0-0.229,0.066-0.328,0.209
		c-0.102,0.143-0.207,0.309-0.229,0.461c-0.095,0.631-0.201,1.346-0.235,2.043c-0.035,0.699,0.313,1.121,1.008,1.221
		c0.357,0.053,0.735,0.055,1.102,0.055c0.134,0,0.273,0,0.41,0.004c0.011-0.004,0.031-0.018,0.043-0.029
		c0.529-0.59,1.193-0.928,2.02-1.031c-0.432-0.721-0.615-1.498-0.563-2.363C293.684,418.121,293.667,418.127,293.65,418.129z"/>
	<path fill="#207192" d="M304.813,417.555c-0.088,0-0.188,0.029-0.308,0.092c-0.584,0.305-1.165,0.578-1.829,0.582h-0.029
		c-0.289,0-0.578-0.033-0.854-0.066c-0.066-0.008-0.131-0.016-0.193-0.02c-0.006,0.076-0.01,0.154-0.016,0.23
		c-0.02,0.316-0.04,0.646-0.115,0.967c-0.074,0.32-0.205,0.635-0.33,0.936c-0.029,0.07-0.061,0.141-0.09,0.211
		c0.854,0.125,1.252,0.338,1.963,1.006c0.035,0.033,0.063,0.049,0.075,0.055c0.128-0.004,0.259-0.004,0.388-0.006
		c0.381-0.002,0.774-0.004,1.15-0.057c0.584-0.086,0.938-0.461,0.967-1.029c0.02-0.359,0.012-0.727-0.02-1.086
		c-0.045-0.527-0.092-1.072-0.385-1.537C305.034,417.586,304.906,417.555,304.813,417.555z"/>
	<path fill="#207192" d="M292.855,413.387c-0.039-0.002-0.078-0.002-0.117-0.002c-1.061,0-1.965,0.889-1.977,1.941v0.01
		c-0.07,1.051,0.783,1.973,1.905,2.055c0.045,0.002,0.091,0.004,0.138,0.004c1.014,0,1.893-0.85,1.959-1.898
		c0.033-0.525-0.146-1.039-0.502-1.436C293.902,413.66,293.402,413.422,292.855,413.387z"/>
	<path fill="#207192" d="M301.111,414.088c-0.346,0.395-0.516,0.898-0.479,1.416c0.074,1.043,0.956,1.891,1.966,1.891
		c0.039,0,0.077-0.002,0.114-0.004c0.56-0.037,1.087-0.293,1.448-0.705c0.337-0.385,0.506-0.869,0.473-1.361l-0.002-0.01
		c0.002-0.484-0.206-0.971-0.572-1.336c-0.377-0.379-0.888-0.596-1.399-0.596c-0.043,0-0.084,0-0.128,0.004
		C301.975,413.426,301.469,413.674,301.111,414.088z"/>
</g>
<path fill="#1B779B" d="M23.821,5.676c-0.077,1.431-0.397,2.778-1.147,4.003c-0.842,1.379-2.063,2.344-3.457,3.111
	c-1.314,0.723-2.713,1.154-4.221,1.146c-1.159-0.004-2.28-0.203-3.311-0.773c-0.204-0.113-0.428-0.188-0.642-0.284
	c-0.194-0.088-0.352-0.036-0.471,0.127c-0.159,0.222-0.304,0.451-0.462,0.673c-0.156,0.223-0.304,0.455-0.484,0.656
	c-0.383,0.424-0.905,0.396-1.261-0.049c-0.492-0.612-0.496-0.956,0.049-1.521c0.292-0.304,0.638-0.554,0.955-0.832
	c0.413-0.363,0.406-0.406,0.226-0.916C9.266,10.084,9.36,9.146,9.648,8.225c0.464-1.48,1.504-2.478,2.773-3.289
	c1.302-0.832,2.744-1.053,4.252-1.087c1.029-0.026,2.06-0.122,3.086-0.223c0.576-0.058,1.07-0.322,1.47-0.76
	c0.253-0.279,0.53-0.532,0.922-0.617c0.383-0.083,0.681,0.022,0.911,0.342c0.342,0.473,0.467,1.024,0.563,1.579
	C23.713,4.669,23.756,5.175,23.821,5.676z M19.27,7.305c0.006-0.324-0.244-0.597-0.602-0.566c-0.727,0.064-1.461,0.116-2.171,0.272
	c-1.634,0.361-2.972,1.263-4.143,2.43c-0.26,0.259-0.513,0.523-0.761,0.793c-0.258,0.281-0.274,0.599-0.056,0.832
	c0.231,0.248,0.539,0.236,0.851-0.032c0.085-0.073,0.164-0.152,0.246-0.229c0.444-0.418,0.872-0.857,1.334-1.254
	c0.905-0.775,1.922-1.349,3.117-1.537c0.519-0.08,1.045-0.106,1.567-0.147C19.03,7.836,19.264,7.631,19.27,7.305z"/>
</svg>
