<?xml version="1.0" encoding="utf-8"?>
<!-- Generator: Adobe Illustrator 16.0.3, SVG Export Plug-In . SVG Version: 6.00 Build 0)  -->
<!DOCTYPE svg PUBLIC "-//W3C//DTD SVG 1.1//EN" "http://www.w3.org/Graphics/SVG/1.1/DTD/svg11.dtd">
<svg version="1.1" id="Camada_1" xmlns="http://www.w3.org/2000/svg" xmlns:xlink="http://www.w3.org/1999/xlink" x="0px" y="0px"
	 width="16px" height="16px" viewBox="0.219 0 16 16" enable-background="new 0.219 0 16 16" xml:space="preserve">
<g>
	<path fill="#207192" d="M302.279,422.041c-0.326-0.35-0.75-0.557-1.332-0.654c-0.035-0.006-0.068-0.01-0.102-0.01
		c-0.203,0-0.365,0.111-0.558,0.24c-0.072,0.049-0.146,0.102-0.229,0.146c-0.024,0.016-0.053,0.033-0.08,0.053
		c-0.016,0.01-0.028,0.021-0.045,0.031c-0.738,0.469-1.504,0.707-2.271,0.707c-0.517,0-1.042-0.109-1.563-0.32
		c-0.375-0.152-0.719-0.375-1.051-0.588c-0.066-0.043-0.132-0.086-0.197-0.129c-0.144-0.09-0.281-0.131-0.435-0.131
		c-0.044,0-0.092,0.002-0.142,0.01c-0.782,0.115-1.346,0.533-1.726,1.277c-0.479,0.93-0.679,1.99-0.651,3.449
		c0.011,0.467,0.136,0.846,0.385,1.156c0.385,0.488,0.936,0.717,1.734,0.717c0.84,0.004,1.68,0.004,2.52,0.004
		c0.361,0,0.723,0,1.085,0h1.442c0.711,0,1.422-0.002,2.131-0.004c0.199,0,0.398-0.016,0.593-0.043
		c0.918-0.135,1.522-0.797,1.58-1.729c0.047-0.803-0.03-1.631-0.231-2.461C302.958,423.021,302.686,422.473,302.279,422.041z"/>
	<path fill="#207192" d="M297.663,415.766h-0.022c-1.688,0-3.024,1.33-3.039,3.025c-0.006,0.814,0.305,1.578,0.875,2.154
		c0.571,0.578,1.336,0.898,2.154,0.9h0.01c1.668,0,3.03-1.363,3.037-3.037C300.68,417.143,299.329,415.777,297.663,415.766z"/>
	<path fill="#207192" d="M293.65,418.129c-0.188,0.039-0.369,0.074-0.553,0.098c-0.111,0.012-0.226,0.02-0.334,0.02
		c-0.753,0-1.418-0.295-2.025-0.613c-0.1-0.055-0.188-0.08-0.266-0.08c-0.123,0-0.229,0.066-0.328,0.209
		c-0.102,0.143-0.207,0.309-0.229,0.461c-0.095,0.631-0.201,1.346-0.235,2.043c-0.035,0.699,0.313,1.121,1.008,1.221
		c0.357,0.053,0.735,0.055,1.102,0.055c0.134,0,0.273,0,0.41,0.004c0.011-0.004,0.031-0.018,0.043-0.029
		c0.529-0.59,1.193-0.928,2.02-1.031c-0.432-0.721-0.615-1.498-0.563-2.363C293.684,418.121,293.667,418.127,293.65,418.129z"/>
	<path fill="#207192" d="M304.813,417.555c-0.088,0-0.188,0.029-0.308,0.092c-0.584,0.305-1.165,0.578-1.829,0.582h-0.029
		c-0.289,0-0.578-0.033-0.854-0.066c-0.066-0.008-0.131-0.016-0.193-0.02c-0.006,0.076-0.01,0.154-0.016,0.23
		c-0.02,0.316-0.04,0.646-0.115,0.967c-0.074,0.32-0.205,0.635-0.33,0.936c-0.029,0.07-0.061,0.141-0.09,0.211
		c0.854,0.125,1.252,0.338,1.963,1.006c0.035,0.033,0.063,0.049,0.075,0.055c0.128-0.004,0.259-0.004,0.388-0.006
		c0.381-0.002,0.774-0.004,1.15-0.057c0.584-0.086,0.938-0.461,0.967-1.029c0.02-0.359,0.012-0.727-0.02-1.086
		c-0.045-0.527-0.092-1.072-0.385-1.537C305.034,417.586,304.906,417.555,304.813,417.555z"/>
	<path fill="#207192" d="M292.855,413.387c-0.039-0.002-0.078-0.002-0.117-0.002c-1.061,0-1.965,0.889-1.977,1.941v0.01
		c-0.07,1.051,0.783,1.973,1.905,2.055c0.045,0.002,0.091,0.004,0.138,0.004c1.014,0,1.893-0.85,1.959-1.898
		c0.033-0.525-0.146-1.039-0.502-1.436C293.902,413.66,293.402,413.422,292.855,413.387z"/>
	<path fill="#207192" d="M301.111,414.088c-0.346,0.395-0.516,0.898-0.479,1.416c0.074,1.043,0.956,1.891,1.966,1.891
		c0.039,0,0.077-0.002,0.114-0.004c0.56-0.037,1.087-0.293,1.448-0.705c0.337-0.385,0.506-0.869,0.473-1.361l-0.002-0.01
		c0.002-0.484-0.206-0.971-0.572-1.336c-0.377-0.379-0.888-0.596-1.399-0.596c-0.043,0-0.084,0-0.128,0.004
		C301.975,413.426,301.469,413.674,301.111,414.088z"/>
</g>
<g>
	<path fill="#1D7191" d="M12.917,9.341c-0.327-0.348-0.747-0.555-1.326-0.651c-0.034-0.008-0.067-0.01-0.101-0.01
		c-0.2,0-0.362,0.111-0.553,0.237c-0.072,0.052-0.146,0.103-0.227,0.147c-0.025,0.016-0.053,0.033-0.079,0.052
		c-0.017,0.01-0.03,0.021-0.045,0.03C9.854,9.613,9.093,9.85,8.329,9.85c-0.513,0-1.035-0.107-1.553-0.316
		C6.403,9.38,6.062,9.16,5.732,8.945C5.666,8.904,5.601,8.861,5.536,8.82c-0.143-0.09-0.28-0.131-0.432-0.131
		c-0.044,0-0.093,0.004-0.141,0.01C4.186,8.813,3.625,9.23,3.249,9.969c-0.475,0.924-0.675,1.982-0.648,3.432
		c0.01,0.463,0.135,0.84,0.381,1.149c0.384,0.484,0.932,0.712,1.726,0.714c0.834,0.004,1.668,0.002,2.503,0.002
		c0.359,0,0.721,0,1.079,0h1.437c0.705,0,1.412,0,2.117-0.004c0.197,0,0.395-0.015,0.586-0.043c0.914-0.135,1.518-0.791,1.572-1.717
		c0.046-0.798-0.032-1.621-0.23-2.445C13.59,10.313,13.318,9.77,12.917,9.341z"/>
	<path fill="#1D7191" d="M8.326,3.104H8.305c-1.679,0-3.006,1.32-3.021,3.007c-0.006,0.807,0.302,1.567,0.868,2.14
		c0.569,0.574,1.331,0.894,2.143,0.896h0.011c1.658,0,3.011-1.354,3.017-3.02C11.326,4.471,9.982,3.114,8.326,3.104z"/>
	<path fill="#1D7191" d="M4.339,5.451C4.151,5.49,3.974,5.525,3.789,5.548C3.681,5.56,3.568,5.567,3.457,5.567
		c-0.747,0-1.408-0.294-2.011-0.612c-0.1-0.052-0.189-0.078-0.267-0.078c-0.121,0-0.226,0.067-0.324,0.206
		c-0.102,0.142-0.206,0.308-0.228,0.46c-0.093,0.627-0.2,1.335-0.234,2.032C0.358,8.269,0.704,8.688,1.395,8.789
		c0.356,0.05,0.73,0.052,1.095,0.053c0.133,0,0.271,0,0.408,0.004c0.01-0.004,0.03-0.018,0.043-0.029
		C3.467,8.23,4.126,7.893,4.946,7.793c-0.428-0.718-0.611-1.49-0.558-2.35C4.372,5.445,4.356,5.448,4.339,5.451z"/>
	<path fill="#1D7191" d="M15.432,4.88c-0.084,0-0.185,0.03-0.303,0.091c-0.581,0.304-1.157,0.577-1.818,0.581h-0.027
		c-0.291,0-0.574-0.035-0.853-0.067c-0.063-0.007-0.128-0.015-0.19-0.023c-0.004,0.076-0.01,0.153-0.016,0.232
		c-0.019,0.316-0.037,0.642-0.113,0.958c-0.074,0.322-0.205,0.631-0.328,0.931c-0.03,0.069-0.061,0.139-0.088,0.21
		c0.847,0.124,1.242,0.335,1.949,0.999c0.035,0.033,0.063,0.05,0.073,0.054c0.129-0.002,0.259-0.004,0.388-0.004
		c0.379-0.004,0.77-0.006,1.143-0.058c0.581-0.085,0.933-0.458,0.961-1.022c0.018-0.358,0.011-0.722-0.02-1.079
		c-0.045-0.525-0.092-1.068-0.381-1.528C15.652,4.912,15.525,4.88,15.432,4.88z"/>
	<path fill="#1D7191" d="M3.549,0.737C3.511,0.736,3.471,0.735,3.432,0.735c-1.053,0-1.954,0.882-1.964,1.929v0.009
		C1.397,3.718,2.247,4.634,3.364,4.717c0.044,0.002,0.089,0.004,0.134,0.004c1.007,0,1.88-0.846,1.948-1.886
		c0.034-0.527-0.144-1.034-0.5-1.428C4.588,1.01,4.092,0.773,3.549,0.737z"/>
	<path fill="#1D7191" d="M11.754,1.434c-0.344,0.394-0.512,0.894-0.475,1.408c0.072,1.038,0.951,1.879,1.953,1.879
		c0.037,0,0.076,0,0.112-0.002c0.558-0.036,1.08-0.292,1.438-0.702c0.336-0.383,0.504-0.863,0.47-1.353V2.653
		c0.001-0.479-0.206-0.963-0.567-1.328c-0.377-0.376-0.884-0.591-1.395-0.591c-0.042,0-0.084,0.001-0.125,0.003
		C12.611,0.776,12.109,1.024,11.754,1.434z"/>
</g>
</svg>
