<?xml version="1.0" encoding="utf-8"?>
<!-- Generator: Adobe Illustrator 16.0.0, SVG Export Plug-In . SVG Version: 6.00 Build 0)  -->
<!DOCTYPE svg PUBLIC "-//W3C//DTD SVG 1.1//EN" "http://www.w3.org/Graphics/SVG/1.1/DTD/svg11.dtd">
<svg version="1.1" id="Camada_2" xmlns="http://www.w3.org/2000/svg" xmlns:xlink="http://www.w3.org/1999/xlink" x="0px" y="0px"
	 width="143.984px" height="16px" viewBox="0 0 143.984 16" enable-background="new 0 0 143.984 16" xml:space="preserve">
<g>
	<path fill="#1D7191" d="M12.526,9.342C12.199,8.995,11.779,8.788,11.2,8.69c-0.034-0.008-0.066-0.01-0.102-0.01
		c-0.199,0-0.361,0.111-0.551,0.238c-0.072,0.051-0.146,0.102-0.228,0.146c-0.024,0.016-0.052,0.033-0.079,0.053
		c-0.016,0.01-0.031,0.02-0.045,0.029C9.462,9.614,8.702,9.85,7.938,9.85c-0.512,0-1.035-0.107-1.553-0.316
		C6.012,9.381,5.671,9.161,5.341,8.946C5.275,8.905,5.21,8.862,5.145,8.821C5.002,8.731,4.865,8.69,4.713,8.69
		c-0.044,0-0.093,0.004-0.141,0.01c-0.777,0.113-1.338,0.531-1.714,1.27C2.383,10.893,2.183,11.951,2.21,13.4
		c0.01,0.463,0.135,0.84,0.381,1.15c0.384,0.484,0.932,0.711,1.726,0.713c0.834,0.004,1.668,0.002,2.503,0.002
		c0.36,0,0.721,0,1.079,0h1.436c0.706,0,1.413,0,2.118-0.004c0.197,0,0.396-0.014,0.586-0.043c0.914-0.135,1.517-0.791,1.572-1.717
		c0.046-0.797-0.032-1.621-0.231-2.445C13.199,10.312,12.929,9.77,12.526,9.342z"/>
	<path fill="#1D7191" d="M7.935,3.104H7.914c-1.679,0-3.006,1.32-3.021,3.007C4.887,6.918,5.195,7.678,5.761,8.252
		c0.569,0.574,1.33,0.893,2.143,0.895h0.011c1.658,0,3.012-1.354,3.018-3.02C10.937,4.472,9.593,3.115,7.935,3.104z"/>
	<path fill="#1D7191" d="M3.948,5.452C3.76,5.491,3.583,5.525,3.398,5.548C3.29,5.561,3.177,5.567,3.066,5.567
		c-0.747,0-1.408-0.294-2.011-0.612c-0.1-0.052-0.189-0.078-0.267-0.078c-0.121,0-0.226,0.067-0.324,0.206
		c-0.102,0.142-0.206,0.308-0.228,0.46c-0.093,0.627-0.2,1.336-0.234,2.033C-0.033,8.27,0.313,8.688,1.004,8.79
		C1.36,8.84,1.734,8.842,2.099,8.842c0.133,0,0.271,0,0.408,0.004c0.01-0.004,0.03-0.018,0.043-0.029
		c0.526-0.586,1.185-0.923,2.005-1.023c-0.428-0.717-0.611-1.49-0.558-2.35C3.981,5.445,3.965,5.449,3.948,5.452z"/>
	<path fill="#1D7191" d="M15.041,4.88c-0.084,0-0.185,0.03-0.303,0.091c-0.581,0.304-1.157,0.577-1.817,0.581h-0.027
		c-0.291,0-0.575-0.035-0.854-0.067c-0.062-0.007-0.128-0.015-0.189-0.023c-0.006,0.076-0.01,0.153-0.016,0.232
		c-0.02,0.316-0.039,0.642-0.113,0.958c-0.075,0.322-0.205,0.631-0.33,0.932c-0.029,0.068-0.06,0.139-0.088,0.209
		c0.848,0.125,1.244,0.336,1.951,1c0.034,0.033,0.062,0.049,0.072,0.053c0.129-0.002,0.258-0.004,0.387-0.004
		c0.379-0.004,0.771-0.006,1.144-0.057c0.581-0.086,0.933-0.459,0.961-1.022c0.019-0.358,0.011-0.722-0.019-1.079
		c-0.047-0.525-0.093-1.068-0.381-1.528C15.263,4.913,15.136,4.88,15.041,4.88z"/>
	<path fill="#1D7191" d="M3.158,0.737C3.12,0.736,3.08,0.735,3.041,0.735c-1.053,0-1.954,0.882-1.964,1.929v0.009
		C1.006,3.718,1.856,4.634,2.973,4.717c0.044,0.002,0.089,0.004,0.134,0.004c1.007,0,1.88-0.846,1.948-1.886
		c0.034-0.527-0.144-1.034-0.5-1.428C4.197,1.01,3.701,0.773,3.158,0.737z"/>
	<path fill="#1D7191" d="M11.363,1.435c-0.343,0.394-0.511,0.894-0.474,1.408c0.072,1.038,0.949,1.879,1.951,1.879
		c0.039,0,0.076,0,0.113-0.002c0.557-0.036,1.08-0.292,1.439-0.702c0.336-0.383,0.503-0.863,0.469-1.353V2.653
		c0.001-0.479-0.206-0.963-0.568-1.328C13.919,0.95,13.411,0.734,12.9,0.734c-0.042,0-0.084,0.001-0.125,0.003
		C12.222,0.776,11.72,1.024,11.363,1.435z"/>
</g>
<g>
	<path fill="#1B779B" d="M21.037,6.233c1.893,0,3.777,0,5.693,0c-0.015,0.249-0.021,0.491-0.045,0.729
		c-0.088,0.902-0.447,1.686-1.084,2.33c-0.246,0.246-0.278,0.545-0.271,0.853c0.01,0.338,0.192,0.545,0.521,0.654
		c0.844,0.287,1.652,0.65,2.398,1.143c0.398,0.264,0.768,0.561,1.043,0.961c0.166,0.244,0.26,0.508,0.25,0.807
		c-0.002,0.164,0.01,0.332-0.014,0.494c-0.07,0.486-0.412,0.766-0.816,0.979c-0.629,0.336-1.32,0.469-2.02,0.562
		c-1.299,0.178-2.605,0.191-3.912,0.145c-1.045-0.039-2.084-0.121-3.09-0.434c-0.43-0.133-0.84-0.305-1.168-0.625
		c-0.221-0.213-0.321-0.473-0.348-0.775c-0.048-0.574,0.1-1.068,0.523-1.469c0.162-0.152,0.326-0.305,0.504-0.439
		c0.783-0.59,1.656-1.01,2.572-1.34c0.543-0.195,0.75-0.672,0.563-1.214C22.312,9.517,22.257,9.441,22.2,9.38
		c-0.413-0.436-0.771-0.906-0.938-1.487c-0.107-0.366-0.162-0.748-0.22-1.124C21.016,6.597,21.037,6.42,21.037,6.233z"/>
	<path fill="#1B779B" d="M23.201,3.841c0-0.8-0.003-2.406,0-3.209c0-0.41,0.134-0.547,0.544-0.545c0.151,0,0.304-0.001,0.454,0.018
		c0.176,0.024,0.279,0.139,0.305,0.313c0.014,0.076,0.02,0.156,0.02,0.234c0.002,0.788,0.002,1.577,0.002,2.366
		c0,0.062,0,0.122,0,0.182c0.014,0.004-0.057,0.697-0.045,0.7c0.049-0.235,0.893-2.076,1.031-2.561
		c0.064-0.231,0.088-0.231,0.309-0.147c1.174,0.451,1.516,0.96,1.77,2.209c0.031,0.154,0.043,0.313,0.047,0.47
		c0.002,0.123,0.053,0.201,0.164,0.224c0.504,0.097,0.65,0.463,0.693,0.911c0.01,0.105,0.018,0.213,0.027,0.337
		c-3.104,0-6.199,0-9.31,0c0.003-0.329,0.024-0.65,0.205-0.938c0.101-0.164,0.265-0.242,0.442-0.286
		c0.16-0.04,0.224-0.122,0.232-0.295c0.065-1.371,0.641-2.419,1.956-2.832c0.134-0.045,0.179,0.021,0.207,0.118
		C22.38,1.564,23.201,3.897,23.201,3.841z"/>
</g>
<g>
	<path fill="#1B779B" d="M34.384,6.268c-0.58-0.183-1.138-0.358-1.695-0.534c-0.176-0.053-0.357-0.093-0.521-0.171
		c-0.09-0.042-0.207-0.152-0.205-0.228c0.004-0.08,0.121-0.197,0.211-0.227c1.088-0.354,2.181-0.693,3.271-1.037
		c1.393-0.436,2.781-0.879,4.178-1.305c0.149-0.046,0.338-0.052,0.485-0.005c2.457,0.763,4.911,1.538,7.366,2.312
		c0.049,0.016,0.109,0.017,0.145,0.049c0.068,0.065,0.168,0.146,0.167,0.22c-0.001,0.074-0.093,0.187-0.17,0.214
		c-0.448,0.157-0.905,0.295-1.36,0.438c-2.047,0.644-4.094,1.289-6.146,1.924c-0.147,0.046-0.336,0.04-0.485-0.006
		c-1.373-0.424-2.742-0.855-4.109-1.299c-0.186-0.061-0.287-0.008-0.387,0.132c-0.365,0.516-0.486,1.108-0.522,1.722
		c-0.005,0.057,0.053,0.131,0.103,0.176c0.403,0.357,0.418,0.93,0.039,1.303c-0.06,0.06-0.104,0.176-0.095,0.258
		c0.101,0.83,0.215,1.658,0.325,2.486c0.004,0.03,0.01,0.059,0.015,0.088c0.062,0.445,0.019,0.494-0.438,0.494
		c-0.293,0-0.586,0-0.881,0c-0.387,0-0.436-0.053-0.385-0.44c0.105-0.813,0.217-1.629,0.33-2.442
		c0.027-0.199,0.029-0.354-0.143-0.525c-0.334-0.328-0.268-0.906,0.093-1.217c0.062-0.054,0.14-0.129,0.144-0.198
		C33.772,7.676,33.936,6.941,34.384,6.268z"/>
	<path fill="#1B779B" d="M35.601,7.578c0.979,0.308,1.929,0.607,2.879,0.904c0.32,0.102,0.646,0.197,0.964,0.307
		c0.29,0.099,0.569,0.092,0.862-0.001c1.193-0.381,2.389-0.755,3.584-1.132c0.076-0.023,0.152-0.045,0.26-0.075
		c0.02,0.291,0.039,0.563,0.056,0.838c0.021,0.396,0.027,0.793,0.064,1.187c0.034,0.375-0.106,0.656-0.386,0.887
		c-0.531,0.436-1.168,0.646-1.821,0.783c-1.617,0.343-3.231,0.328-4.832-0.118c-0.489-0.138-0.956-0.33-1.356-0.654
		c-0.287-0.233-0.43-0.519-0.398-0.901c0.05-0.613,0.068-1.229,0.103-1.845C35.58,7.704,35.591,7.654,35.601,7.578z"/>
</g>
<g>
	<path fill="#1B779B" d="M55.994,2.729c2.398,0,4.797-0.001,7.195,0c0.531,0,0.709,0.177,0.709,0.71c0.002,3.041,0.002,6.079,0,9.12
		c0,0.533-0.18,0.713-0.707,0.713c-4.799,0-9.596,0-14.393,0c-0.529,0-0.709-0.181-0.709-0.713c-0.002-3.039-0.002-6.078,0-9.12
		c0-0.532,0.178-0.71,0.709-0.71C51.197,2.729,53.596,2.729,55.994,2.729z M49.145,10.093c1.277,0.146,1.979,0.846,2.119,2.113
		c3.155,0,6.304,0,9.463,0c0.136-1.282,0.854-1.977,2.115-2.116c0-1.405,0-2.792,0-4.184c-1.271-0.145-1.986-0.843-2.119-2.119
		c-3.155,0-6.299,0-9.47,0c-0.026,0.567-0.214,1.063-0.616,1.468c-0.41,0.412-0.912,0.605-1.492,0.636
		C49.145,7.3,49.145,8.687,49.145,10.093z"/>
	<path fill="#1B779B" d="M58.621,8.125c-0.035,0.866-0.289,1.766-0.934,2.498c-1.078,1.222-2.875,1.02-3.688-0.398
		c-0.846-1.482-0.856-2.973,0.005-4.449c0.44-0.754,1.107-1.202,2.004-1.195c0.903,0.006,1.557,0.478,2.006,1.24
		C58.412,6.499,58.621,7.234,58.621,8.125z M54.426,10.103c1.051,0,2.086,0,3.139,0c0-0.263,0-0.511,0-0.795
		c-0.348,0-0.686,0-1.045,0c0-1.244,0-2.453,0-3.657c-0.338,0-0.725-0.118-0.947,0.024c-0.45,0.283-0.809,0.707-1.24,1.107
		c0.243,0.219,0.456,0.412,0.684,0.615C55.145,7.277,55.282,7.15,55.444,7c0,0.792,0,1.542,0,2.315c-0.349,0-0.677,0-1.019,0
		C54.426,9.592,54.426,9.843,54.426,10.103z"/>
</g>
<g>
	<path fill="#1B779B" d="M67.089,14.731c0-3.762,0-7.506,0-11.28c0.463,0,0.912,0,1.399,0c0-0.419,0-0.813,0-1.207
		c0-0.77,0.289-1.06,1.054-1.06c1.574,0,3.147,0,4.723,0c0.687,0,0.994,0.311,0.996,1.003c0.004,0.387,0.004,0.772,0.008,1.159
		c0,0.026,0.02,0.052,0.037,0.1c0.22,0,0.443,0,0.668,0c0.224,0,0.447,0,0.687,0c0,3.779,0,7.524,0,11.285
		C73.466,14.731,70.283,14.731,67.089,14.731z M73.011,10.229c0.121,0,0.213,0,0.305,0c0.507,0,1.016,0.004,1.523,0
		c0.354-0.002,0.428-0.074,0.433-0.434c0.003-0.33-0.005-0.658,0.001-0.986c0.009-0.947,0.01-0.846-0.84-0.847
		c-0.469,0-0.934,0-1.424,0c0-0.651,0.004-1.262,0-1.875c-0.004-0.304-0.09-0.383-0.393-0.384c-0.497-0.005-0.997,0.005-1.496-0.005
		c-0.263-0.004-0.381,0.115-0.381,0.371c0,0.388,0,0.772-0.002,1.16c0,0.238,0,0.479,0,0.733c-0.652,0-1.253-0.001-1.855,0.001
		c-0.319,0.001-0.398,0.078-0.404,0.4c-0.006,0.359,0.003,0.717-0.002,1.074c-0.012,0.873,0.02,0.795,0.781,0.791
		c0.486,0,0.974,0,1.481,0c0,0.651-0.004,1.264,0.001,1.875c0.002,0.304,0.088,0.385,0.391,0.388c0.375,0.003,0.752,0,1.129,0
		c0.75,0,0.75,0,0.75-0.765C73.011,11.237,73.011,10.752,73.011,10.229z M69.624,3.435c1.51,0,2.993,0,4.5,0c0-0.372,0-0.734,0-1.11
		c-1.505,0-2.996,0-4.5,0C69.624,2.695,69.624,3.049,69.624,3.435z"/>
	<path fill="#1B779B" d="M77.561,3.467c1.155-0.121,2.147,0.685,2.202,1.815c0.041,0.807,0.021,1.619,0.021,2.427
		c0.002,1.639-0.006,3.277,0.002,4.915c0.007,0.874-0.348,1.538-1.137,1.915c-0.32,0.15-0.696,0.182-1.089,0.275
		C77.561,10.981,77.561,7.231,77.561,3.467z"/>
	<path fill="#1B779B" d="M66.19,14.731c-1.197,0.095-2.143-0.692-2.208-1.854c-0.039-0.657-0.017-1.317-0.017-1.978
		c-0.002-1.779,0.02-3.56-0.008-5.337c-0.021-1.284,0.992-2.182,2.131-2.114c0.027,0.001,0.055,0.009,0.103,0.02
		C66.19,7.215,66.19,10.965,66.19,14.731z"/>
</g>
<path fill="#1B779B" d="M95.783,5.245c-0.077,1.432-0.397,2.778-1.147,4.004c-0.842,1.379-2.062,2.344-3.457,3.112
	c-1.314,0.723-2.713,1.154-4.221,1.146c-1.16-0.004-2.281-0.203-3.312-0.773c-0.204-0.113-0.429-0.188-0.642-0.284
	c-0.194-0.088-0.353-0.036-0.472,0.127c-0.159,0.222-0.304,0.451-0.462,0.673c-0.156,0.223-0.305,0.455-0.484,0.656
	c-0.383,0.424-0.904,0.396-1.261-0.049c-0.491-0.612-0.496-0.956,0.05-1.521c0.291-0.304,0.637-0.554,0.954-0.832
	c0.413-0.363,0.406-0.406,0.226-0.916c-0.328-0.934-0.233-1.872,0.055-2.793c0.464-1.479,1.504-2.478,2.773-3.289
	c1.302-0.832,2.744-1.053,4.252-1.087c1.029-0.026,2.06-0.122,3.086-0.223c0.576-0.058,1.07-0.322,1.47-0.76
	c0.253-0.279,0.53-0.532,0.922-0.617c0.383-0.083,0.681,0.022,0.911,0.342c0.342,0.473,0.467,1.024,0.562,1.579
	C95.675,4.238,95.718,4.744,95.783,5.245z M91.231,6.874c0.006-0.324-0.244-0.597-0.602-0.565c-0.727,0.063-1.461,0.116-2.172,0.271
	c-1.634,0.361-2.972,1.263-4.143,2.431c-0.26,0.259-0.514,0.523-0.762,0.793c-0.258,0.282-0.273,0.599-0.055,0.833
	c0.23,0.248,0.538,0.236,0.85-0.032c0.086-0.073,0.164-0.152,0.246-0.229c0.444-0.419,0.873-0.857,1.334-1.254
	c0.906-0.775,1.922-1.349,3.117-1.537c0.519-0.08,1.045-0.105,1.567-0.146C90.992,7.405,91.226,7.2,91.231,6.874z"/>
<g>
	<path fill="#1B779B" d="M100.346,8.529c0.543-0.434,1.056-0.844,1.567-1.252c1.058-0.848,2.117-1.693,3.173-2.541
		c0.195-0.157,0.402-0.216,0.633-0.102c0.232,0.115,0.334,0.311,0.334,0.569c0,1.045,0,2.091,0,3.138c0,0.05,0,0.102,0,0.186
		c0.195-0.154,0.369-0.292,0.541-0.429c1.396-1.117,2.791-2.232,4.186-3.351c0.197-0.16,0.406-0.229,0.645-0.113
		c0.238,0.116,0.336,0.318,0.336,0.58c-0.002,3.381,0,6.761-0.002,10.142c0,0.396-0.234,0.63-0.632,0.631c-4.901,0-9.803,0-14.704,0
		c-0.406-0.001-0.639-0.233-0.639-0.642c0-4.896,0-9.793,0-14.691c0-0.413,0.23-0.641,0.648-0.641c1.088,0,2.177,0,3.266,0
		c0.422,0,0.648,0.228,0.648,0.654c0,2.554,0,5.106,0,7.66C100.346,8.383,100.346,8.438,100.346,8.529z"/>
</g>
<g>
	<path fill="#1B779B" d="M112.896,9.041c-0.223-0.067-0.434-0.101-0.617-0.192c-0.379-0.191-0.559-0.62-0.477-1.053
		c0.073-0.394,0.414-0.715,0.822-0.772c0.078-0.011,0.157-0.015,0.234-0.015c4.578,0,9.156,0,13.736-0.001
		c0.446,0,0.783,0.173,0.987,0.578c0.285,0.566-0.112,1.31-0.741,1.387c-0.09,0.011-0.18,0.021-0.279,0.031
		c-0.075,0.442-0.152,0.886-0.229,1.328c-0.216,1.251-0.432,2.501-0.652,3.752c-0.098,0.557-0.481,0.871-1.049,0.871
		c-3.271,0-6.539,0-9.811,0c-0.574,0-0.958-0.333-1.055-0.897c-0.278-1.611-0.56-3.225-0.84-4.837
		C112.915,9.149,112.904,9.081,112.896,9.041z M114.76,9.543c0.033,0.434,0.065,0.866,0.101,1.3c0.049,0.64,0.097,1.278,0.149,1.918
		c0.02,0.232,0.193,0.417,0.414,0.452c0.219,0.035,0.442-0.074,0.525-0.285c0.042-0.105,0.055-0.234,0.046-0.35
		c-0.075-1.031-0.157-2.062-0.237-3.094c-0.026-0.301-0.248-0.508-0.531-0.492C114.946,9.008,114.749,9.241,114.76,9.543z
		 M124.695,9.548c0.011-0.304-0.184-0.536-0.462-0.556c-0.288-0.021-0.511,0.188-0.534,0.498c-0.027,0.359-0.059,0.719-0.085,1.076
		c-0.054,0.697-0.11,1.396-0.159,2.093c-0.021,0.304,0.184,0.538,0.46,0.558c0.289,0.02,0.509-0.188,0.534-0.5
		c0.027-0.359,0.057-0.718,0.084-1.077C124.588,10.944,124.641,10.247,124.695,9.548z M120.721,11.102
		c0,0.508,0.014,1.019-0.004,1.525c-0.014,0.369,0.243,0.587,0.498,0.589c0.254,0.001,0.526-0.212,0.504-0.597
		c-0.018-0.317-0.002-0.637-0.002-0.955c0-0.717-0.002-1.432,0-2.146c0-0.203-0.086-0.359-0.261-0.461
		c-0.329-0.189-0.733,0.053-0.735,0.443C120.717,10.035,120.721,10.567,120.721,11.102z M117.739,11.092
		c0,0.538-0.001,1.074,0.001,1.612c0.001,0.233,0.146,0.43,0.352,0.485c0.336,0.097,0.642-0.137,0.643-0.498
		c0.003-1.06,0.001-2.117,0-3.177c0-0.045-0.002-0.092-0.014-0.135c-0.062-0.254-0.291-0.413-0.547-0.387
		c-0.233,0.026-0.433,0.247-0.434,0.497C117.738,10.026,117.739,10.559,117.739,11.092z"/>
	<path fill="#1B779B" d="M117.731,2.542c-0.476,0-0.952-0.022-1.425,0.006c-0.416,0.026-0.744,0.365-0.844,0.8
		c-0.212,0.931-0.42,1.861-0.63,2.793c-0.026,0.12-0.056,0.24-0.084,0.362c-0.336,0-0.666,0-1.005,0
		c0.001-0.03-0.002-0.057,0.003-0.083c0.263-1.14,0.519-2.282,0.789-3.419c0.201-0.832,0.968-1.437,1.826-1.455
		c0.409-0.008,0.819-0.003,1.229-0.003c0.045,0,0.09,0,0.108,0c0.065-0.123,0.11-0.238,0.183-0.335
		c0.082-0.11,0.209-0.161,0.349-0.161c0.997-0.001,1.993-0.002,2.991,0c0.259,0.001,0.433,0.176,0.5,0.496c0.045,0,0.093,0,0.142,0
		c0.476,0.007,0.953-0.015,1.425,0.027c0.768,0.067,1.444,0.659,1.622,1.406c0.276,1.15,0.534,2.304,0.798,3.456
		c0.004,0.02,0.004,0.041,0.004,0.07c-0.336,0-0.668,0-1.01,0c-0.102-0.448-0.204-0.894-0.305-1.341
		c-0.135-0.601-0.27-1.201-0.405-1.801c-0.116-0.514-0.504-0.824-1.03-0.825c-0.414-0.001-0.826,0-1.238,0
		c-0.088,0.373-0.243,0.496-0.619,0.496c-0.92,0-1.838,0-2.756,0C117.973,3.03,117.817,2.907,117.731,2.542z"/>
</g>
<g>
	<path fill="#1B779B" d="M127.783,7.284c0-0.754,0-1.508,0-2.261c0-0.333,0.176-0.509,0.504-0.509c0.916,0,1.833,0,2.75,0.001
		c0.076,0,0.129-0.021,0.184-0.076c0.289-0.286,0.571-0.578,0.871-0.853c0.393-0.359,0.855-0.583,1.393-0.611
		c0.412-0.021,0.826-0.018,1.24,0c0.348,0.014,0.672,0.133,0.966,0.325c0.061,0.04,0.106,0.04,0.167,0
		c0.375-0.242,0.787-0.342,1.23-0.339c0.303,0.002,0.608,0.014,0.91-0.002c0.875-0.047,1.567,0.308,2.133,0.952
		c0.221,0.25,0.438,0.5,0.654,0.753c0.044,0.054,0.091,0.073,0.16,0.073c0.764-0.002,1.529,0.008,2.294-0.006
		c0.31-0.006,0.515,0.227,0.515,0.507c-0.008,1.441-0.004,2.882-0.004,4.323c0,0.312-0.182,0.494-0.5,0.494
		c-0.945,0-1.891,0-2.838-0.003c-0.085,0-0.128,0.023-0.167,0.104c-0.261,0.526-0.687,0.846-1.261,0.965
		c-0.08,0.018-0.139,0.053-0.189,0.119c-0.291,0.383-0.666,0.646-1.132,0.771c-0.046,0.013-0.093,0.046-0.125,0.081
		c-0.394,0.44-0.885,0.666-1.476,0.673c-0.041,0.001-0.09,0.005-0.127,0.023c-0.725,0.377-1.442,0.315-2.16-0.022
		c-0.418-0.199-0.786-0.467-1.115-0.791c-0.621-0.613-1.244-1.224-1.863-1.837c-0.063-0.062-0.125-0.086-0.214-0.086
		c-0.747,0.005-1.493,0.003-2.239,0.003c-0.401,0-0.561-0.158-0.561-0.556C127.783,8.762,127.783,8.022,127.783,7.284z
		 M130.448,9.165c0.065,0,0.118,0.004,0.169,0c0.307-0.018,0.553,0.091,0.771,0.312c0.621,0.627,1.256,1.243,1.887,1.86
		c0.352,0.345,0.736,0.645,1.225,0.768c0.428,0.107,0.838,0.074,1.195-0.212c0.059-0.047,0.104-0.056,0.17-0.037
		c0.389,0.104,0.866-0.067,1.059-0.418c0.101-0.179,0.205-0.239,0.407-0.269c0.526-0.075,0.826-0.426,0.96-0.907
		c0.127,0.005,0.26,0.022,0.391,0.013c0.396-0.031,0.717-0.283,0.819-0.642c0.081-0.285,0.042-0.562-0.137-0.8
		c-0.343-0.459-0.69-0.912-1.047-1.36c-0.218-0.274-0.456-0.533-0.691-0.805c-0.038,0.04-0.063,0.064-0.086,0.092
		c-0.259,0.289-0.524,0.574-0.776,0.869c-0.735,0.869-2.021,0.806-2.699,0.173c-0.666-0.623-0.77-1.62-0.204-2.331
		c0.235-0.294,0.487-0.575,0.733-0.861c0.174-0.205,0.349-0.408,0.545-0.64c-0.205-0.045-0.381-0.106-0.562-0.119
		c-0.27-0.02-0.539-0.001-0.809-0.006c-0.469-0.008-0.862,0.157-1.19,0.493c-0.327,0.336-0.662,0.665-0.997,0.994
		c-0.037,0.036-0.102,0.062-0.15,0.064c-0.287,0.006-0.578,0.003-0.865,0.003c-0.039,0-0.078,0-0.116,0
		C130.448,6.663,130.448,7.911,130.448,9.165z M141.084,5.621c-0.181,0-0.357-0.003-0.533,0.001
		c-0.074,0.001-0.123-0.018-0.172-0.075c-0.332-0.387-0.67-0.77-1.004-1.154c-0.305-0.353-0.689-0.538-1.154-0.544
		c-0.428-0.006-0.857-0.009-1.287,0.002c-0.332,0.009-0.629,0.138-0.851,0.39c-0.508,0.577-1.009,1.159-1.505,1.745
		c-0.312,0.371-0.263,0.841,0.096,1.167c0.338,0.309,1.018,0.376,1.432-0.105c0.248-0.289,0.502-0.572,0.754-0.857
		c0.186-0.21,0.369-0.423,0.559-0.63c0.143-0.157,0.362-0.204,0.535-0.125c0.161,0.074,0.28,0.271,0.248,0.444
		c-0.016,0.082,0.006,0.129,0.059,0.184c0.592,0.631,1.125,1.312,1.647,1.999c0.244,0.321,0.457,0.654,0.511,1.064
		c0.002,0.015,0.01,0.025,0.012,0.035c0.224,0,0.439,0,0.654,0C141.084,7.978,141.084,6.806,141.084,5.621z M129.11,9.169
		c0.259,0.003,0.446-0.186,0.446-0.444c0-0.257-0.184-0.44-0.44-0.442c-0.255-0.002-0.442,0.18-0.444,0.435
		C128.667,8.977,128.854,9.167,129.11,9.169z M142.422,9.169c0.258-0.002,0.443-0.191,0.44-0.452
		c-0.004-0.255-0.19-0.437-0.446-0.435c-0.257,0.002-0.439,0.186-0.439,0.44C141.977,8.983,142.163,9.172,142.422,9.169z"/>
</g>
</svg>
