<?xml version="1.0" encoding="utf-8"?>
<!-- Generator: Adobe Illustrator 16.0.4, SVG Export Plug-In . SVG Version: 6.00 Build 0)  -->
<!DOCTYPE svg PUBLIC "-//W3C//DTD SVG 1.1//EN" "http://www.w3.org/Graphics/SVG/1.1/DTD/svg11.dtd">
<svg version="1.1" id="Camada_1" xmlns="http://www.w3.org/2000/svg" xmlns:xlink="http://www.w3.org/1999/xlink" x="0px" y="0px"
	 width="201.4px" height="66px" viewBox="0 0 201.4 66" enable-background="new 0 0 201.4 66" xml:space="preserve">
<g id="logoIBGE_3_">
	<g>
		<polygon fill="#FFFFFF" points="36.6,34.9 36.7,35.1 36.8,35.3 36.9,35.5 37,35.6 37.1,35.8 37.2,36 37.4,36.2 37.5,36.3 
			37.6,36.5 37.7,36.6 37.9,36.8 38,37 38.2,37.1 38.3,37.2 38.5,37.3 38.6,37.4 38.8,37.6 39,37.7 39.2,37.8 39.3,37.9 39.6,38 
			39.7,38 39.9,38.1 40.1,38.2 40.3,38.2 40.5,38.3 40.7,38.3 40.9,38.4 41.2,38.4 41.3,38.4 41.5,38.4 41.8,38.4 42,38.4 
			42.3,38.4 42.6,38.4 42.9,38.3 43.1,38.3 43.4,38.2 43.6,38.1 43.9,38 44.1,37.9 44.4,37.7 44.6,37.6 44.8,37.5 45,37.4 
			45.2,37.2 45.4,37 45.6,36.8 45.8,36.6 46,36.4 46.1,36.2 46.3,36 46.4,35.8 46.5,35.6 46.7,35.3 46.8,35.1 46.9,34.8 47,34.6 
			47,34.3 47.1,34.1 47.2,33.8 47.2,33.6 47.2,33.2 47.2,33 47.2,32.7 47.2,32.4 47.2,32.1 47.1,31.9 47,31.6 47,31.3 46.9,31.1 
			46.8,30.9 46.7,30.6 46.5,30.4 46.4,30.2 46.3,29.9 46.1,29.7 46,29.5 45.8,29.3 45.6,29.1 45.4,29 45.2,28.8 45,28.6 44.8,28.5 
			44.6,28.3 44.4,28.2 44.1,28.1 43.9,27.9 43.6,27.9 43.4,27.8 43.1,27.7 42.9,27.6 42.6,27.6 42.3,27.5 42,27.5 41.8,27.5 
			41.5,27.5 41.2,27.5 40.9,27.6 40.7,27.6 40.4,27.7 40.1,27.8 39.9,27.9 39.6,27.9 39.4,28.1 39.2,28.2 38.9,28.3 38.7,28.5 
			38.5,28.6 38.3,28.8 38.1,29 37.9,29.1 37.7,29.3 37.6,29.5 37.4,29.7 37.2,29.9 37.1,30.2 37,30.4 36.9,30.6 36.7,30.9 
			36.6,31.1 36.6,31.3 36.5,31.6 36.4,31.9 36.4,32.1 36.3,32.4 36.3,32.7 36.3,33 36.3,33.2 36.3,33.5 36.3,33.7 36.4,34 
			36.5,34.2 36.5,34.4 36.6,34.7 		"/>
		<polygon fill="#FFFFFF" points="64.2,34 59.1,47.8 59,48 59,48.1 58.9,48.3 58.8,48.4 58.7,48.4 58.7,48.5 58.6,48.6 58.5,48.7 
			58.4,48.7 58.3,48.7 58.2,48.7 58.1,48.8 57.8,48.8 57.5,48.8 37,48.8 37,48.8 37,48.8 36.9,48.7 36.9,48.7 36.8,48.7 36.8,48.7 
			36.8,48.6 36.7,48.6 36.7,48.5 36.7,48.4 36.8,48.3 36.9,48.1 37,48 37,47.8 37.7,47 38.3,46.1 38.9,45.4 39.5,44.6 40.2,43.8 
			40.8,43.1 41.5,42.4 42.2,41.7 42.8,41 43.5,40.4 44.2,39.7 45,39.1 45.7,38.5 46.5,38 47.3,37.4 48.1,37 48.9,36.5 49.7,36 
			50.6,35.6 51.5,35.2 52.4,34.8 53.3,34.5 54.2,34.2 55.2,33.9 56.2,33.7 57.2,33.5 58.2,33.3 59.3,33.2 60.4,33.1 61.5,33 
			62.7,33 63.9,33 63.9,33 63.9,33 64,33 64,33 64.1,33.1 64.1,33.1 64.2,33.2 64.2,33.2 64.3,33.3 64.3,33.4 64.3,33.5 64.3,33.6 
			64.2,33.8 		"/>
		<polygon fill="#FFFFFF" points="19.3,32 24.4,18.2 24.5,18 24.5,17.9 24.6,17.7 24.7,17.6 24.7,17.6 24.8,17.5 24.9,17.4 25,17.3 
			25.1,17.3 25.2,17.3 25.3,17.3 25.4,17.2 25.7,17.2 26,17.2 46.5,17.2 46.5,17.2 46.6,17.2 46.7,17.3 46.7,17.3 46.8,17.3 
			46.8,17.3 46.8,17.4 46.9,17.5 46.9,17.5 46.8,17.6 46.8,17.7 46.7,17.9 46.6,18 46.5,18.2 45.9,19 45.3,19.8 44.7,20.6 
			44.1,21.4 43.4,22.2 42.7,22.9 42.1,23.6 41.4,24.3 40.7,25 40,25.6 39.3,26.3 38.5,26.9 37.8,27.5 37,28 36.2,28.6 35.5,29 
			34.6,29.5 33.8,30 32.9,30.4 32.1,30.8 31.1,31.2 30.2,31.5 29.3,31.8 28.3,32.1 27.3,32.3 26.3,32.5 25.2,32.7 24.2,32.8 
			23.1,32.9 22,33 20.8,33 19.7,33 19.6,33 19.5,33 19.5,33 19.5,32.9 19.4,32.9 19.4,32.9 19.3,32.8 19.3,32.8 19.2,32.7 
			19.2,32.6 19.2,32.5 19.2,32.4 19.3,32.2 		"/>
		<polygon fill="#FFFFFF" points="18.1,46.8 18,46.6 17.8,46.4 17.7,46.2 17.6,46 17.4,45.8 17.3,45.6 17.2,45.4 17.1,45.1 17,44.9 
			16.9,44.6 16.9,44.4 16.8,44.2 16.7,43.9 16.6,43.6 16.6,43.4 16.5,43.1 16.5,42.8 16.5,42.5 16.5,42.2 16.5,41.9 16.5,41.6 
			16.5,41.3 16.5,41 16.6,40.7 16.6,40.4 16.7,40 16.8,39.7 16.8,39.3 16.9,39 17,38.6 17.1,38.3 17.3,37.9 18.3,35 18.4,34.7 
			18.4,34.6 18.5,34.5 18.5,34.4 18.6,34.3 18.7,34.3 18.8,34.2 18.8,34.1 18.9,34.1 19.1,34 19.2,34 19.3,34 19.5,34 19.7,34 
			24.4,34 25.6,34 26.6,34 27.6,34 28.6,34 29.4,34 30.3,34.1 30.6,34.1 31,34.1 31.4,34.2 31.7,34.2 32.1,34.3 32.4,34.3 
			32.7,34.4 33,34.4 33.2,34.5 33.5,34.6 33.7,34.7 34,34.8 34.2,34.9 34.4,35.1 34.6,35.1 34.8,35.3 35,35.5 35.2,35.6 35.4,35.8 
			35.5,35.9 35.7,36.1 35.8,36.3 35.9,36.5 36.1,36.7 36.2,37 36.3,37.2 36.4,37.4 36.6,37.6 36.6,37.8 36.7,38.1 36.8,38.3 
			36.9,38.5 37,38.8 37,39.1 37.1,39.3 37.1,39.6 37.2,39.9 37.2,40.2 37.2,40.5 37.2,40.8 37.2,41.1 37.2,41.4 37.2,41.7 37.2,42 
			37.1,42.3 37.1,42.7 37,43 36.9,43.4 36.8,43.7 36.7,44.1 36.6,44.5 36.5,44.9 35.4,47.8 35.3,48 35.2,48.2 35.2,48.3 35.1,48.3 
			35.1,48.4 35,48.5 34.9,48.6 34.8,48.6 34.7,48.7 34.6,48.7 34.4,48.7 34.3,48.8 34.1,48.8 33.9,48.8 29.1,48.8 28.2,48.8 
			27.2,48.8 26.4,48.8 25.5,48.7 24.6,48.7 23.8,48.7 23.4,48.7 23,48.6 22.6,48.6 22.3,48.6 21.9,48.5 21.6,48.4 21.2,48.4 
			20.9,48.3 20.6,48.2 20.3,48.1 20,48.1 19.8,48 19.5,47.9 19.2,47.7 19,47.6 18.8,47.5 18.6,47.3 18.4,47.2 18.3,47 		"/>
		<polygon fill="#FFFFFF" points="65.5,19.2 65.7,19.3 65.8,19.5 65.9,19.7 66.1,19.9 66.2,20.2 66.3,20.4 66.4,20.6 66.5,20.8 
			66.6,21 66.7,21.3 66.8,21.5 66.8,21.8 66.9,22.1 67,22.3 67,22.6 67,22.9 67.1,23.1 67.1,23.4 67.1,23.7 67.1,24 67.1,24.3 
			67.1,24.6 67,24.9 67,25.3 67,25.6 66.9,26 66.9,26.3 66.8,26.6 66.7,27 66.6,27.3 66.5,27.7 66.3,28 65.3,31 65.2,31.2 
			65.1,31.4 65.1,31.5 65.1,31.6 65,31.7 64.9,31.7 64.8,31.7 64.7,31.8 64.7,31.9 64.5,31.9 64.4,31.9 64.3,32 64.1,32 63.9,32 
			59.2,32 58,32 57,32 55.9,32 55,32 54.1,31.9 53.3,31.9 52.9,31.9 52.5,31.8 52.2,31.8 51.8,31.7 51.5,31.7 51.2,31.7 50.9,31.6 
			50.6,31.5 50.3,31.4 50.1,31.3 49.9,31.3 49.6,31.2 49.4,31 49.1,30.9 49,30.8 48.7,30.7 48.6,30.5 48.4,30.4 48.2,30.2 48.1,30 
			48,29.8 47.8,29.6 47.6,29.4 47.5,29.2 47.4,29 47.3,28.8 47.2,28.6 47.1,28.3 46.9,28.1 46.9,27.9 46.8,27.6 46.7,27.4 
			46.6,27.1 46.5,26.9 46.5,26.6 46.5,26.4 46.4,26.1 46.4,25.8 46.4,25.5 46.4,25.2 46.4,24.9 46.4,24.6 46.4,24.3 46.4,24 
			46.5,23.6 46.5,23.3 46.6,22.9 46.7,22.6 46.8,22.2 46.9,21.9 47,21.5 47.1,21.1 48.2,18.2 48.3,18 48.4,17.8 48.4,17.7 
			48.4,17.6 48.5,17.6 48.6,17.5 48.7,17.4 48.7,17.3 48.8,17.3 49,17.3 49.1,17.2 49.3,17.2 49.5,17.2 49.7,17.2 54.4,17.2 
			55.4,17.2 56.3,17.2 57.3,17.2 58.2,17.2 59,17.3 59.8,17.3 60.2,17.3 60.6,17.3 60.9,17.4 61.3,17.4 61.7,17.5 62,17.5 
			62.4,17.6 62.7,17.6 63,17.7 63.3,17.8 63.5,17.9 63.8,18 64.1,18.1 64.3,18.2 64.6,18.4 64.8,18.5 65,18.7 65.2,18.8 65.4,19 		
			"/>
		<polygon fill="#FFFFFF" points="78.6,17.2 87.5,17.2 76.4,48.8 67,48.8 		"/>
		<path fill="#FFFFFF" d="M93.4,17.2h11.4h0.6h0.6h0.6h0.6h0.6l0.6,0l0.6,0l0.6,0l0.5,0l0.5,0l0.5,0l0.5,0l0.5,0l0.5,0.1l0.5,0.1
			l0.5,0.1l0.3,0l0.2,0l0.2,0l0.2,0l0.2,0l0.2,0.1l0.2,0.1l0.2,0.1l0.2,0.1l0.2,0.1l0.1,0.1l0.1,0.1l0.1,0.1l0.1,0.1l0.1,0.1
			l0.1,0.1l0.1,0.1l0.1,0.2l0.1,0.2l0.1,0.2l0,0.2l0,0.2l0,0.2l0,0.2l0,0.2V21v0.2v0.2v0.2v0.2v0.3l0,0.3v0v0v0v0v0.1v0v0v0.1
			l-0.1,0.4l-0.1,0.4l-0.1,0.4l-0.1,0.4l-0.1,0.4l-0.1,0.4l-0.2,0.4l-0.2,0.4l-0.2,0.4l-0.2,0.4l-0.2,0.4l-0.3,0.4l-0.3,0.3
			l-0.3,0.3l-0.3,0.3l-0.3,0.3l-0.3,0.3l-0.4,0.3l-0.4,0.3l-0.4,0.3l-0.4,0.2l-0.4,0.2l-0.4,0.2l-0.4,0.2l-0.4,0.2l-0.4,0.2
			l-0.4,0.2l-0.4,0.1l-0.5,0.1l-0.5,0.1l-0.5,0.1l-0.5,0.1l0.4,0.1l0.4,0.1l0.4,0.1l0.4,0.1l0.4,0.1l0.4,0.2l0.3,0.2l0.3,0.2
			l0.3,0.2l0.3,0.2l0.3,0.2l0.2,0.2l0.2,0.2l0.2,0.2l0.1,0.2l0.1,0.2l0.1,0.2l0.1,0.2l0.1,0.2l0.1,0.2l0.1,0.2l0,0.2l0,0.2l0,0.3
			l0,0.3v0.3v0.3v0.3v0.3v0.3l0,0.3l0,0.3l0,0.3l0,0.3l0,0.3l0,0.2l0,0.3l-0.1,0.2l-0.1,0.2l-0.1,0.2l-0.1,0.2l-0.1,0.2l-0.1,0.2
			l-0.1,0.2l-0.1,0.2l-0.1,0.2l-0.1,0.2l-0.1,0.2l-0.1,0.2l-0.1,0.2l-0.1,0.2l-0.1,0.2l-0.2,0.2l-0.2,0.2l-0.2,0.2l-0.2,0.2
			l-0.2,0.2l-0.2,0.2l-0.2,0.2l-0.2,0.2l-0.2,0.2l-0.2,0.2l-0.2,0.2l-0.2,0.2l-0.4,0.3l-0.4,0.3l-0.4,0.3l-0.4,0.3l-0.4,0.3
			l-0.5,0.3l-0.5,0.2l-0.5,0.2l-0.5,0.2l-0.5,0.2l-0.5,0.2l-0.5,0.1l-0.5,0.1l-0.5,0.1l-0.5,0.1l-0.5,0.1l-0.3,0l-0.3,0H100h-0.3
			h-0.3h-0.3h-0.3h-0.3h-0.1h-0.1h-0.1h-0.1h-0.1h-0.1H98h-0.1H81.8L93.4,17.2L93.4,17.2z M98.6,42.2h0.2H99h0.2l0.2,0l0.2,0l0.2,0
			l0.2,0l0.2,0l0.2,0l0.2-0.1l0.2-0.1l0.2-0.1l0.2-0.1l0.2-0.1l0.2-0.1l0.2-0.1l0.2-0.1l0.1-0.1l0.1-0.1l0.1-0.1l0.1-0.1l0.1-0.1
			l0.1-0.1l0.1-0.1l0.1-0.1l0.1-0.1l0.1-0.2l0.1-0.1l0.1-0.1l0.1-0.2l0-0.2l0-0.2l0-0.1l0-0.1v-0.1l0-0.1v-0.1v-0.1v-0.1v-0.1v-0.1
			V38v-0.1v-0.1v-0.1v-0.1l0-0.1l-0.2,0l0-0.1l0-0.1l0-0.1l0-0.1l0-0.1l-0.1-0.1l-0.1-0.1l-0.1-0.1l-0.1-0.1l-0.1-0.1l-0.1-0.1
			l-0.1-0.1l-0.1,0l-0.1,0l-0.1,0l-0.2,0l-0.2,0l-0.2,0l-0.2,0l-0.2,0h-0.2h-0.2h-0.2h-0.2l-4.5,0l-2.3,6.5L98.6,42.2L98.6,42.2
			L98.6,42.2z M103,28.8h0.2h0.2h0.2h0.2l0.2,0l0.2,0l0.2,0l0.2,0l0.2,0l0.2,0l0.1-0.1l0.2-0.1l0.1-0.1l0.1-0.1l0.1-0.1l0.1-0.1
			l0.3-0.3l0.3-0.3l0.1-0.1l0.1-0.1l0.1-0.1l0.1-0.1l0.1-0.1l0.1-0.1l0.1-0.1l0.1-0.1l0-0.1l0-0.1l0-0.1l0-0.1v-0.1l0-0.1l0-0.1
			v-0.1v-0.1v-0.1V25v-0.1v-0.1v-0.1v-0.1l0-0.1l0-0.1l0-0.1l0-0.1l0-0.1l0-0.1l0-0.1l-0.1-0.1l-0.1-0.1l-0.1-0.1l-0.1-0.1l-0.1-0.1
			l-0.1-0.1l-0.1-0.1l-0.1,0l-0.1,0l-0.1,0l-0.2,0l-0.2,0l-0.2,0H105h-0.2h-0.2h-0.2h-0.2l-4.5,0l-1.9,6.1L103,28.8L103,28.8
			L103,28.8z"/>
		<polygon fill="#FFFFFF" points="116.3,36.7 116.4,36.2 116.5,35.6 116.6,35 116.7,34.5 116.9,34 117,33.4 117.2,32.9 117.4,32.4 
			117.6,31.8 117.8,31.3 118,30.8 118.2,30.3 118.4,29.8 118.7,29.4 118.9,28.9 119.2,28.4 119.4,28 119.7,27.5 120,27.1 
			120.3,26.7 120.6,26.2 120.9,25.8 121.2,25.4 121.6,25 121.9,24.6 122.3,24.2 122.6,23.8 123,23.4 123.4,23.1 123.8,22.7 
			124.2,22.4 124.6,22 125,21.7 125.4,21.4 125.9,21 126.3,20.7 126.8,20.4 127.2,20.1 127.6,19.9 128.1,19.6 128.6,19.3 129,19.1 
			129.5,18.9 130,18.7 130.5,18.4 131,18.2 131.4,18 131.9,17.9 132.5,17.7 133,17.6 133.5,17.4 134,17.3 134.5,17.2 135,17 
			135.6,16.9 136.1,16.9 136.7,16.8 137.2,16.7 137.8,16.6 138.3,16.6 138.9,16.5 139.4,16.5 140,16.5 140.6,16.5 140.9,16.5 
			141.1,16.5 141.4,16.5 141.7,16.5 141.9,16.5 142.2,16.5 142.4,16.5 142.8,16.5 143,16.5 143.3,16.6 143.6,16.6 143.9,16.6 
			144.2,16.6 144.5,16.7 144.7,16.7 145,16.7 145.4,16.8 145.8,16.8 146.1,16.9 146.4,17 146.8,17 147.1,17.2 147.4,17.3 
			147.7,17.3 148.1,17.5 148.4,17.6 148.7,17.7 149,17.9 149.3,18 149.6,18.2 149.9,18.4 150.2,18.5 150.3,18.7 150.4,18.8 
			150.6,18.8 150.7,19 150.8,19.1 150.9,19.2 151,19.3 151.1,19.4 151.2,19.5 151.3,19.7 151.4,19.9 151.5,20 151.5,20.1 
			151.6,20.3 151.7,20.4 151.7,20.6 151.8,20.8 151.8,20.9 151.9,21.1 151.9,21.3 151.9,21.5 151.9,21.7 151.9,21.8 151.9,22.1 
			151.9,22.2 151.9,22.5 151.9,22.7 151.9,22.9 151.9,23.3 151.9,23.8 151.8,24.1 151.8,24.4 151.7,24.7 151.6,25 151.5,25.4 
			151.4,25.7 151.3,26.1 151.2,26.5 142.5,26.4 142.5,26.2 142.5,26 142.5,25.8 142.5,25.6 142.5,25.4 142.4,25.2 142.4,25 
			142.4,24.8 142.3,24.7 142.2,24.5 142.2,24.4 142.1,24.2 142,24.1 141.9,23.9 141.8,23.8 141.7,23.7 141.6,23.6 141.4,23.4 
			141.3,23.3 141.1,23.3 140.9,23.2 140.8,23.1 140.5,23 140.3,22.9 140.1,22.9 139.8,22.9 139.5,22.8 139.3,22.8 139,22.7 
			138.6,22.7 138.3,22.7 137.9,22.7 137.7,22.7 137.5,22.7 137.2,22.7 137,22.8 136.7,22.8 136.5,22.8 136.3,22.9 136,22.9 
			135.8,23 135.6,23 135.3,23.1 135.1,23.2 134.9,23.3 134.6,23.4 134.4,23.5 134.2,23.6 134,23.7 133.7,23.8 133.5,24 133.3,24.1 
			133,24.3 132.8,24.4 132.6,24.6 132.4,24.8 132.2,24.9 131.9,25.1 131.7,25.3 131.5,25.5 131.3,25.7 131,25.9 130.8,26.1 
			130.6,26.3 130.2,26.8 129.8,27.2 129.4,27.7 129,28.2 128.6,28.7 128.3,29.2 128,29.7 127.7,30.2 127.4,30.7 127.1,31.2 
			126.9,31.7 126.7,32.2 126.5,32.8 126.2,33.3 126.1,33.8 125.9,34.3 125.9,34.4 125.9,34.6 125.8,34.7 125.8,34.8 125.8,34.9 
			125.8,35 125.7,35.1 125.7,35.3 125.7,35.6 125.7,35.9 125.7,36.2 125.7,36.6 125.7,36.9 125.7,37.3 125.7,37.6 125.7,38 
			125.7,38.2 125.8,38.5 125.8,38.7 125.9,38.9 126,39.2 126,39.4 126.1,39.6 126.2,39.9 126.3,40.1 126.4,40.3 126.5,40.5 
			126.7,40.8 126.8,41 126.9,41.2 127.1,41.4 127.3,41.6 127.4,41.9 127.6,42 127.8,42.2 128,42.4 128.2,42.5 128.4,42.7 
			128.7,42.8 129,42.9 129.2,43 129.5,43.1 129.8,43.1 130.1,43.2 130.5,43.3 130.8,43.3 131.1,43.3 131.5,43.3 131.7,43.3 
			131.9,43.3 132.2,43.3 132.4,43.3 132.7,43.3 133,43.2 133.3,43.2 133.6,43.2 133.9,43.1 134.3,43.1 134.7,43 135.1,42.9 
			135.5,42.8 135.9,42.6 136.4,42.4 136.8,42.3 138.6,37.1 132.4,37.1 134.8,30.5 149.9,30.5 144,47.7 143.3,47.8 142.8,48 
			142.2,48 141.6,48.1 141,48.2 140.5,48.3 139.9,48.4 139.4,48.5 138.8,48.6 138.3,48.6 137.8,48.7 137.3,48.8 136.7,48.8 
			136.3,48.9 135.8,49 135.2,49 134.3,49.1 133.4,49.2 132.5,49.3 131.6,49.4 130.8,49.4 130,49.5 129.2,49.5 128.5,49.5 
			128.4,49.5 128.3,49.5 128.2,49.5 128.1,49.5 128,49.5 127.9,49.5 127.8,49.5 127.6,49.5 127.2,49.5 126.8,49.5 126.3,49.5 
			125.9,49.5 125.5,49.4 125.1,49.4 124.7,49.3 124.3,49.3 123.9,49.2 123.6,49.1 123.2,49.1 122.9,49 122.5,48.9 122.2,48.8 
			121.9,48.7 121.6,48.6 121.3,48.5 121,48.4 120.7,48.3 120.4,48.1 120.2,48 119.9,47.8 119.7,47.6 119.4,47.5 119.2,47.3 
			119,47.2 118.8,46.9 118.6,46.8 118.4,46.6 118.2,46.4 118.1,46.1 117.9,45.9 117.8,45.7 117.6,45.5 117.5,45.2 117.4,45 
			117.2,44.7 117.1,44.5 117,44.2 116.9,44 116.8,43.8 116.7,43.5 116.6,43.2 116.5,42.9 116.5,42.7 116.4,42.4 116.3,42.1 
			116.3,41.8 116.2,41.5 116.2,41.2 116.2,41 116.1,40.7 116.1,40.4 116.1,40 116.1,39.7 116.1,39.4 116.1,39.1 116.1,38.8 
			116.1,38.5 116.1,38.1 116.1,37.8 116.2,37.4 116.2,37.1 116.3,36.8 		"/>
		<polygon fill="#FFFFFF" points="160.5,17.2 184.9,17.2 182.6,23.3 167.5,23.3 165.2,29.5 179.3,29.5 177,36.1 162.9,36.1 
			160.6,42.2 176.1,42.2 173.7,48.8 149.3,48.8 		"/>
	</g>
	<rect fill="none" width="201.4" height="66"/>
</g>
</svg>
