<?xml version="1.0" encoding="utf-8"?>
<!-- Generator: Adobe Illustrator 16.0.3, SVG Export Plug-In . SVG Version: 6.00 Build 0)  -->
<!DOCTYPE svg PUBLIC "-//W3C//DTD SVG 1.1//EN" "http://www.w3.org/Graphics/SVG/1.1/DTD/svg11.dtd">
<svg version="1.1" id="Camada_1" xmlns="http://www.w3.org/2000/svg" xmlns:xlink="http://www.w3.org/1999/xlink" x="0px" y="0px"
	 width="347.992px" height="68.156px" viewBox="0 0 347.992 68.156" enable-background="new 0 0 347.992 68.156"
	 xml:space="preserve">
<g>
	<path fill="#FFFFFF" d="M41.683,30.086c1.628-4.356,5.897-7.302,10.559-7.302c6.205,0,11.264,5.057,11.264,11.265
		c0,6.201-5.059,11.26-11.264,11.26c-6.203,0-11.263-5.059-11.263-11.26C40.979,32.731,41.242,31.316,41.683,30.086"/>
	<path fill="#FFFFFF" d="M98.533,36.116L88.094,64.68c-0.713,1.971-1.584,2.067-3.267,2.067H42.531c0,0-1.476-0.008,0-2.067
		c13.176-18.326,29.146-31.268,55.322-30.601C97.853,34.079,99.279,34.064,98.533,36.116"/>
	<path fill="#FFFFFF" d="M5.905,32.071L16.344,3.503c0.711-1.972,1.584-2.063,3.267-2.063l42.47,0.008c0,0,1.467,0.007,0,2.055
		C48.922,21.845,32.761,34.775,6.585,34.108C6.585,34.108,5.159,34.116,5.905,32.071"/>
	<path fill="#FFFFFF" d="M3.351,62.643C0.086,58.54-1.242,52.375,1.61,44.271l2.156-6.119c0.407-1.141,0.739-2.036,2.854-2.036
		h9.733c13.125,0,19.651,0,22.978,4.081c3.325,4.074,5.04,9.971,1.998,18.363l-2.223,6.119c-0.364,1.016-0.639,2.067-3.169,2.067
		h-9.783C15.483,66.748,6.62,66.748,3.351,62.643"/>
	<path fill="#FFFFFF" d="M101.291,5.476c3.267,4.104,4.595,10.266,1.741,18.366l-2.156,6.119c-0.405,1.148-0.739,2.037-2.852,2.037
		h-9.735c-13.125,0-19.651,0-22.976-4.074c-3.325-4.082-5.04-9.977-1.998-18.368l2.221-6.119c0.366-1.013,0.639-2.065,3.168-2.065
		h9.784C89.161,1.372,98.024,1.372,101.291,5.476"/>
	<path fill="#FFFFFF" d="M274.395,66.71l23.135-65.359h50.464l-4.759,12.731H312l-4.771,12.819h29.16l-4.785,13.541h-29.16
		l-4.756,12.728h32.049l-4.879,13.541H274.395z M206.189,41.798c2.225-12.697,7.957-22.842,17.193-30.424
		C232.62,3.792,243.65,0,256.469,0c1.385,0,2.854,0.029,4.409,0.09c1.558,0.059,3.132,0.178,4.731,0.359
		c3.963,0.482,7.492,1.747,10.594,3.793c3.1,2.045,4.271,5.656,3.511,10.832c-0.114,0.784-0.286,1.641-0.515,2.574
		c-0.227,0.932-0.535,1.908-0.926,2.934l-17.771-0.091c0.053-2.407-0.542-4.289-1.789-5.641c-1.246-1.355-3.824-2.033-7.734-2.033
		c-5.299,0-10.357,2.5-15.183,7.493c-4.828,4.995-8.047,10.532-9.66,16.606c-0.098,0.244-0.169,0.533-0.217,0.859
		c-0.05,0.334-0.101,0.682-0.151,1.045c-0.123,0.837-0.193,1.726-0.211,2.658c-0.019,0.935,0.021,1.883,0.123,2.846
		c0.315,2.77,1.371,5.311,3.168,7.63c1.797,2.317,4.74,3.474,8.836,3.474c1.021,0,2.449-0.089,4.278-0.273
		c1.834-0.178,4.063-0.807,6.69-1.896l3.652-10.742h-12.729l4.771-13.452h31.323l-12.337,35.483
		c-6.549,1.141-12.516,2.03-17.902,2.659c-5.392,0.638-10.041,0.948-13.951,0.948h-0.5h-0.404h-0.406h-0.498
		c-9.997,0.06-16.691-2.394-20.088-7.355c-3.393-4.963-4.529-11.27-3.407-18.912L206.189,41.798z M168.144,25.456h10.652
		c2.156,0.059,3.995-0.57,5.517-1.894c1.519-1.324,2.512-2.771,2.98-4.334c0.027-0.181,0.066-0.346,0.119-0.498
		c0.052-0.15,0.087-0.287,0.104-0.404c0.213-1.446-0.141-2.724-1.063-3.837c-0.918-1.115-2.611-1.672-5.078-1.672l-9.196-0.091
		L168.144,25.456z M158.39,53.169h11.371c1.798,0.06,3.57-0.63,5.317-2.073c1.748-1.445,2.929-3.039,3.546-4.787
		c0.095-0.236,0.176-0.479,0.241-0.718c0.066-0.245,0.117-0.481,0.152-0.726c0.2-1.387-0.182-2.571-1.146-3.564
		c-0.969-0.992-2.775-1.488-5.423-1.488l-9.197-0.088L158.39,53.169z M135.096,66.71l23.766-65.359h23.472
		c6.971,0.061,13.146,0.543,18.52,1.445c5.375,0.902,7.655,4.124,6.844,9.66c-0.01,0.061-0.021,0.137-0.033,0.225
		c-0.014,0.093-0.023,0.167-0.032,0.226c-0.019,0.121-0.03,0.212-0.041,0.271c-0.009,0.061-0.021,0.152-0.038,0.272
		c-0.732,4.993-2.838,9.073-6.312,12.232c-3.472,3.16-7.959,5.249-13.468,6.271c5.146,1.444,8.353,3.268,9.627,5.467
		c1.271,2.191,1.672,4.889,1.203,8.074c-0.83,5.658-3.697,10.342-8.604,14.037c-4.908,3.703-10.043,6.009-15.414,6.91
		c-0.798,0.119-1.576,0.193-2.334,0.225c-0.757,0.027-1.496,0.044-2.22,0.044h-0.765h-0.768H135.096z M104.489,66.71l23.766-65.359
		h18.508L123.718,66.71H104.489z"/>
</g>
</svg>
