<?xml version="1.0" encoding="utf-8"?>
<!-- Generator: Adobe Illustrator 16.0.3, SVG Export Plug-In . SVG Version: 6.00 Build 0)  -->
<!DOCTYPE svg PUBLIC "-//W3C//DTD SVG 1.1//EN" "http://www.w3.org/Graphics/SVG/1.1/DTD/svg11.dtd">
<svg version="1.1" id="Camada_1" xmlns="http://www.w3.org/2000/svg" xmlns:xlink="http://www.w3.org/1999/xlink" x="0px" y="0px"
	 width="19.594px" height="19.688px" viewBox="0 0 19.594 19.688" enable-background="new 0 0 19.594 19.688" xml:space="preserve">
<path fill-rule="evenodd" clip-rule="evenodd" fill="#B3B3B3" d="M18.98,16.951c-0.306-0.336-0.639-0.65-0.962-0.973
	c-0.994-0.992-1.988-1.984-3.003-2.996c1.266-1.854,1.693-3.891,1.294-6.067c-0.401-2.19-1.516-3.97-3.366-5.237
	C9.678-0.559,5.254-0.144,2.532,2.632c-2.75,2.806-3.087,7.231-0.903,10.397c1.987,2.881,6.823,4.99,11.309,2.064
	c0.091,0.087,0.19,0.178,0.285,0.271c1.215,1.209,2.426,2.421,3.645,3.625c0.623,0.615,1.486,0.63,2.084,0.051
	C19.542,18.47,19.563,17.591,18.98,16.951z M8.271,13.551c-2.839-0.016-5.186-2.395-5.141-5.209C3.178,5.459,5.487,3.163,8.32,3.186
	c2.883,0.023,5.219,2.371,5.181,5.205C13.463,11.281,11.146,13.567,8.271,13.551z"/>
</svg>
