<svg xmlns="http://www.w3.org/2000/svg" viewBox="0 0 347.992 68.156">
  <g fill="#FFF">
    <path d="M41.68 30.1c1.63-4.37 5.9-7.32 10.56-7.32 6.2 0 11.27 5.06 11.27 11.27 0 6.2-5 11.26-11.2 11.26-6.2 0-11.3-5-11.3-11.2 0-1.3.3-2.7.7-3.9"/>
    <path d="M98.53 36.12L88.1 64.68c-.72 1.97-1.6 2.07-3.27 2.07h-42.3s-1.48 0 0-2.07C55.7 46.35 71.68 33.4 97.85 34.08c0 0 1.43-.02.68 2.04M5.9 32.07L16.34 3.5c.72-1.97 1.6-2.06 3.27-2.06h42.5s1.5.02 0 2.06C49 21.84 32.8 34.77 6.6 34.1c0 0-1.42.02-.67-2.03M3.37 62.64C.1 58.54-1.23 52.37 1.6 44.27l2.17-6.12c.4-1.14.73-2.03 2.85-2.03h9.73c13.13 0 19.65 0 22.98 4.08 3.33 4.07 5.04 9.97 2 18.36l-2.22 6.12c-.3 1-.6 2.07-3.1 2.07h-9.8c-10.6 0-19.5 0-22.8-4.1m97.9-57.17c3.3 4.1 4.6 10.26 1.8 18.36l-2.1 6.12c-.4 1.15-.7 2.04-2.8 2.04h-9.8c-13.1 0-19.6 0-23-4.08-3.3-4.08-5-9.97-2-18.36l2.3-6.12c.36-1.02.63-2.07 3.16-2.07h9.8c10.67 0 19.53 0 22.8 4.1m173 61.23L297.6 1.35H348l-4.77 12.73H312l-4.77 12.82h29.16l-4.8 13.54h-29.2l-4.8 12.73h32l-4.8 13.53h-50.4zm-68.2-24.9c2.2-12.7 7.96-22.84 17.2-30.43C232.6 3.8 243.66 0 256.46 0c1.38 0 2.85.03 4.4.1 1.57.05 3.14.17 4.74.35 4 .48 7.5 1.75 10.6 3.8 3.1 2.04 4.3 5.65 3.5 10.82-.1.8-.2 1.65-.5 2.58-.2.93-.5 1.9-.9 2.93l-17.7-.1c.1-2.4-.5-4.28-1.8-5.63-1.2-1.35-3.8-2.03-7.7-2.03-5.3 0-10.3 2.5-15.2 7.5-4.8 5-8 10.52-9.6 16.6-.1.24-.1.53-.2.86l-.1 1.04c-.1.84-.2 1.73-.2 2.66 0 .93 0 1.88.1 2.84.34 2.77 1.4 5.32 3.2 7.63 1.8 2.32 4.74 3.48 8.8 3.48 1 0 2.48-.1 4.3-.27 1.85-.18 4.07-.8 6.7-1.9l3.65-10.74h-12.8l4.78-13.45h31.35l-12.4 35.48c-6.54 1.14-12.5 2.03-17.9 2.66-5.4.7-10.03 1-13.94 1h-1.8c-10 .1-16.7-2.4-20.1-7.3-3.4-4.9-4.5-11.2-3.4-18.9v-.1zM168.2 25.46h10.65c2.16.05 4-.57 5.5-1.9 1.54-1.32 2.53-2.77 3-4.33l.1-.5c.07-.15.1-.3.13-.4.2-1.45-.15-2.73-1.07-3.84-.9-1.2-2.6-1.7-5.05-1.7l-9.2-.1-4.05 12.7zm-9.76 27.7h11.3c1.8.07 3.5-.62 5.3-2.06 1.7-1.45 2.9-3.04 3.5-4.8.1-.23.2-.47.2-.7l.1-.74c.2-1.38-.2-2.57-1.12-3.56-.96-1-2.76-1.5-5.4-1.5l-9.2-.08-4.86 13.45zM135.1 66.7l23.75-65.34h23.47c6.97.06 13.15.54 18.52 1.45 5.38.9 7.66 4.2 6.85 9.7l-.1.2-.1.3-.1.3-.1.3c-.76 5-2.86 9.1-6.3 12.3-3.5 3.2-8 5.3-13.5 6.3 5.12 1.5 8.33 3.3 9.6 5.5 1.26 2.2 1.66 4.9 1.2 8.1-.84 5.68-3.7 10.37-8.6 14.06-4.9 3.7-10.05 6-15.4 6.9-.8.14-1.6.2-2.36.25l-2.2.03H135zm-30.6 0l23.75-65.34h18.5L123.72 66.7H104.5z"/>
  </g>
</svg>