<?xml version="1.0" encoding="utf-8"?>
<!-- Generator: Adobe Illustrator 22.0.1, SVG Export Plug-In . SVG Version: 6.00 Build 0)  -->
<svg version="1.1" id="Camada_1" xmlns="http://www.w3.org/2000/svg" xmlns:xlink="http://www.w3.org/1999/xlink" x="0px" y="0px"
	 viewBox="0 0 113.3 114" style="enable-background:new 0 0 113.3 114;" xml:space="preserve">
<style type="text/css">
	.st0{fill:#FBB03B;}
	.st1{fill:#E2932B;}
	.st2{fill:#FFFFFF;}
</style>
<g>
	<circle class="st0" cx="56.8" cy="56.8" r="55.8"/>
	<path class="st1" d="M79.3,29.7h-2.6v3h-2v-3H67c0-3-2.3-5.2-5.2-5.2c-2.9,0-5.2,2.2-5.2,5.2h-6.9v3h-4v-3h-0.6
		c-2.7,0-5.3,1.2-7.2,3h-0.2v0.2c-1.8,1.9-3,4.3-3,7v47.5c0,5.5,4.9,10.3,10.4,10.3h34.2c5.5,0,10.4-4.7,10.4-10.3V39.9
		C89.8,34.4,84.9,29.7,79.3,29.7z M61.8,27.4c1.4,0,2.5,1.1,2.5,2.5c0,1.4-1.1,2.5-2.5,2.5c-1.4,0-2.5-1.1-2.5-2.5
		C59.3,28.5,60.5,27.4,61.8,27.4z"/>
	<g>
		<g>
			<path class="st2" d="M73.3,23.7h-2.6v4h8v60h-45v-60h6v-4h-0.6c-5.5,0-10.4,4.7-10.4,10.2v47.5c0,5.5,4.9,10.3,10.4,10.3h34.2
				c5.5,0,10.4-4.7,10.4-10.3V33.9C83.8,28.4,78.9,23.7,73.3,23.7z"/>
			<g>
				<path class="st2" d="M75.8,74.7v-44h-5v5h-31v-5h-3v54h28v-10H75.8z M41.8,39.7h27v4h-27V39.7z M41.8,48.7h27v4h-27V48.7z
					 M55.8,72.7h-14v-5h14V72.7z M41.8,62.7v-4h27v4H41.8z"/>
				<polygon class="st2" points="68.8,77.7 68.8,84.2 75.8,78.3 75.8,77.7 				"/>
			</g>
		</g>
		<path class="st2" d="M61,23.7c0-3-2.3-5.2-5.2-5.2c-2.9,0-5.2,2.2-5.2,5.2h-6.9v9h25v-9H61z M55.8,21.4c1.4,0,2.5,1.1,2.5,2.5
			c0,1.4-1.1,2.5-2.5,2.5c-1.4,0-2.5-1.1-2.5-2.5C53.3,22.5,54.5,21.4,55.8,21.4z"/>
	</g>
</g>
</svg>
