<?xml version="1.0" encoding="utf-8"?>
<!-- Generator: Adobe Illustrator 16.0.3, SVG Export Plug-In . SVG Version: 6.00 Build 0)  -->
<!DOCTYPE svg PUBLIC "-//W3C//DTD SVG 1.1//EN" "http://www.w3.org/Graphics/SVG/1.1/DTD/svg11.dtd">
<svg version="1.1" id="Camada_1" xmlns="http://www.w3.org/2000/svg" xmlns:xlink="http://www.w3.org/1999/xlink" x="0px" y="0px"
	 width="16.706px" height="24.202px" viewBox="0 0 16.706 24.202" enable-background="new 0 0 16.706 24.202" xml:space="preserve">
<g>
	<path fill-rule="evenodd" clip-rule="evenodd" fill="#ED1E79" d="M8.354,0.5C4.016,0.5,0.5,4.017,0.5,8.353
		c0,4.338,4.748,15.35,7.854,15.35s7.853-11.012,7.853-15.35C16.206,4.017,12.689,0.5,8.354,0.5z M8.355,12.745
		c-2.449,0-4.436-1.984-4.436-4.434s1.986-4.434,4.436-4.434c2.448,0,4.434,1.984,4.434,4.434S10.804,12.745,8.355,12.745z"/>
	<path fill="#FFFFFF" d="M8.354,24.202C4.736,24.202,0,12.596,0,8.353C0,3.747,3.748,0,8.354,0c4.605,0,8.353,3.747,8.353,8.353
		C16.706,12.596,11.971,24.202,8.354,24.202z M8.354,1C4.299,1,1,4.298,1,8.353c0,4.438,4.749,14.85,7.354,14.85
		c2.604,0,7.353-10.412,7.353-14.85C15.706,4.298,12.408,1,8.354,1z M8.355,13.245c-2.722,0-4.936-2.213-4.936-4.934
		s2.214-4.934,4.936-4.934c2.72,0,4.934,2.213,4.934,4.934S11.076,13.245,8.355,13.245z M8.355,4.378
		c-2.17,0-3.936,1.765-3.936,3.934s1.766,3.934,3.936,3.934c2.169,0,3.934-1.765,3.934-3.934S10.524,4.378,8.355,4.378z"/>
</g>
</svg>
