<?xml version="1.0" encoding="utf-8"?>
<!-- Generator: Adobe Illustrator 16.0.3, SVG Export Plug-In . SVG Version: 6.00 Build 0)  -->
<!DOCTYPE svg PUBLIC "-//W3C//DTD SVG 1.1//EN" "http://www.w3.org/Graphics/SVG/1.1/DTD/svg11.dtd">
<svg version="1.1" id="Camada_1" xmlns="http://www.w3.org/2000/svg" xmlns:xlink="http://www.w3.org/1999/xlink" x="0px" y="0px"
	 width="16px" height="16px" viewBox="289.64 412.945 16 16" enable-background="new 289.64 412.945 16 16" xml:space="preserve">
<g>
	<path fill="#207192" d="M294.796,419.2c1.909,0,3.81,0,5.74,0c-0.015,0.25-0.022,0.495-0.046,0.736
		c-0.089,0.91-0.451,1.699-1.093,2.348c-0.248,0.248-0.28,0.552-0.271,0.862c0.01,0.341,0.195,0.549,0.524,0.66
		c0.852,0.288,1.669,0.654,2.419,1.151c0.401,0.265,0.774,0.563,1.052,0.969c0.168,0.246,0.261,0.512,0.253,0.812
		c-0.004,0.167,0.01,0.335-0.015,0.498c-0.071,0.49-0.415,0.771-0.822,0.986c-0.635,0.34-1.332,0.474-2.037,0.569
		c-1.308,0.178-2.626,0.191-3.943,0.143c-1.051-0.038-2.1-0.122-3.114-0.435c-0.434-0.133-0.848-0.307-1.178-0.631
		c-0.223-0.215-0.324-0.477-0.351-0.783c-0.047-0.577,0.102-1.076,0.529-1.479c0.164-0.153,0.329-0.307,0.507-0.444
		c0.791-0.593,1.67-1.016,2.594-1.351c0.546-0.196,0.756-0.675,0.569-1.223c-0.03-0.078-0.085-0.154-0.144-0.216
		c-0.416-0.438-0.777-0.913-0.946-1.5c-0.107-0.369-0.163-0.754-0.221-1.133C294.776,419.567,294.796,419.389,294.796,419.2z"/>
	<path fill="#207192" d="M296.979,416.789c0-0.807-0.003-2.426,0-3.235c0-0.413,0.136-0.551,0.549-0.55c0.154,0,0.307,0,0.458,0.018
		c0.177,0.024,0.282,0.141,0.309,0.316c0.012,0.076,0.018,0.157,0.018,0.235c0.004,0.796,0.004,1.591,0.004,2.386
		c0,0.062,0,0.123,0,0.183c0.012,0.004-0.059,0.704-0.046,0.707c0.048-0.237,0.898-2.093,1.039-2.582
		c0.065-0.233,0.089-0.233,0.311-0.148c1.183,0.455,1.528,0.967,1.786,2.227c0.028,0.155,0.042,0.315,0.046,0.474
		c0.002,0.124,0.053,0.202,0.165,0.226c0.507,0.097,0.655,0.466,0.699,0.917c0.009,0.105,0.017,0.214,0.026,0.34
		c-3.129,0-6.247,0-9.383,0c0.003-0.333,0.025-0.656,0.206-0.946c0.102-0.165,0.267-0.244,0.446-0.288
		c0.162-0.041,0.225-0.123,0.234-0.298c0.066-1.382,0.646-2.438,1.971-2.854c0.134-0.046,0.181,0.021,0.209,0.118
		C296.151,414.494,296.979,416.846,296.979,416.789z"/>
</g>
</svg>
